<svg xmlns="http://www.w3.org/2000/svg" width="605" height="413" viewBox="0 0 605 413"><style>.a{fill:#FDB3D0;}</style><path d="M188.5 273.8c-3.1 3.3-8.3 9-13.6 14.6 -3.2 3.4-6.1 3.3-9.4-0.1 -3.1-3.1-6.6-5.8-10.2-8.3 -9.4-6.6-19.8-10-31.4-9.7 -2.7 0.1-5.4 0.3-8.1-0.1 -2.1-0.3-4.1-1.3-6.2-2.1 1-1.7 1.8-3.6 3-5 13.1-15.1 15.3-32.6 11.2-51.3 -2-9.3-2.2-9.5 7.5-9.2 14.2 0.3 28.2 0.9 41.4 7.6C198 223 205.3 247 188.5 273.8z" class="a"/><path d="M126.1 113.5c3.4 2.7 7 5.2 10.2 8.3 14.5 14.1 17 29.7 5.8 46.4 -5.7 8.5-14.2 15.1-21.5 22.5 -2.3 2.4-4.2 1-5.7-1.3 -11.3-17.6-28.4-23.9-48.4-24.5 -2.4-0.1-4.7-0.1-7.1-0.3 -1.3-0.1-2.5-0.6-3.8-1 0.7-1.4 1.2-3 2.3-4.2 2.7-3 5.9-5.5 8.6-8.6 10.4-11.7 13.6-25.2 10.3-40.5 -2.4-10.7-2.3-10.7 9.1-9.4C100.1 102.5 113.9 105.2 126.1 113.5z" class="a"/><path d="M109 251c-1.2 1.4-2.5 2.9-3.8 4.4 -8.3 9.4-8.3 9.4-17.9 1.1 -8.5-7.4-18.9-10.1-29.8-11.5 -1.7-0.2-3.4-0.2-5-0.3 -12.8-0.9-12.4-0.7-8.2-12.8 5.3-15.3 6.9-30.9 1.6-46.7 -2.9-8.6-2.8-8.9 6.6-9.3 7.4-0.3 14.9-0.3 22.2 0.5 16.8 1.8 28.9 10.4 35.1 26.5 5.6 14.6 8 29.3 1 44.2C110.1 248.2 109.6 249.5 109 251z" class="a"/><path d="M213.7 214.5c-2.1 2.3-5.3 5.7-8.5 9.1 -3-3-6-5.9-9-8.9 -10.7-10.9-23.6-17.9-38.7-20.5 -4.3-0.8-8.7-0.8-13.1-1.6 -2.1-0.3-4-1.4-6.1-2.2 1.2-1.6 2.2-3.3 3.5-4.7 11-11.7 18.5-25 17.2-41.7 -0.3-4.1 1.3-5.4 5-5.6 17.2-1 33 3.2 46.6 13.8 13.7 10.7 17.2 31.9 9.2 50.1C218.4 206 216.3 209.5 213.7 214.5z" class="a"/><path d="M165.3 353.6c-1.2 1.7-2.2 3.4-3.5 4.9 -7.6 9.2-10.6 9.4-18.6 0.9 -10.3-11.1-23.2-17-37.8-20 -8.8-1.8-9-2.2-4.4-10.2 7.3-12.9 6.8-26.5 4.2-40.4 -1.6-8.1-1.6-8.1 6.9-8 5.1 0.1 10.2-0.2 15.2 0.1 26.2 1.6 48.4 27.9 45.1 53.8 -0.8 6.5-3.9 12.8-5.9 19.1C166 353.8 165.7 353.7 165.3 353.6z" class="a"/><path d="M225.9 307.8c11 8.5 17.7 16.5 19.9 27.9 2.5 12.9 1.8 25.6-1.8 38.1 -2.4 8.4-4 8.9-11 4.5 -14.8-9.4-31.3-12-48.4-12.2 -2.7 0-5.4 0.3-8.1 0.3 -3.8 0.1-4.9-1.5-3.1-5 1.3-2.4 2.5-4.8 3.7-7.2 7.5-14.4 7.5-29.1 2.2-44.1 -2.4-6.9-2.2-7.4 5.4-7.4 8.1 0 16.3-0.1 24.3 0.9C215.5 304.3 221.8 306.7 225.9 307.8z" class="a"/><path d="M589.6 18.4c9.4 7.6 15 16.1 14.4 27 -0.7 13.2-4.6 25.9-10.5 37.8 -2.6 5.3-6.3 6.8-12.4 5 -9.7-2.8-19.7-4.4-29.7-6.4 -6.3-1.2-6.7-1.4-3.4-6.7 5.6-9 7.2-18.6 7.1-29 -0.1-13.2-6.7-21.7-17.8-27.2 -7.5-3.7-15.6-6.3-23.5-9.4 -2.2-0.8-4.6-1.2-6.8-2.1 -1.1-0.5-1.9-1.6-2.9-2.5 1.1-0.5 2.1-1.5 3.3-1.6 22.8-2 45.2-1.2 66.3 9.4C579.1 15.4 585.1 16.8 589.6 18.4z" class="a"/><path d="M168.5 111.9c-3.4 3.7-6.9 7.4-10.1 11.2 -2.5 2.9-4.4 3.6-7.1 0.1 -13.8-18.1-32.5-27.9-54.7-31.5 -3.4-0.6-6.7-2.1-10.1-3.2 2.4-2.7 4.5-5.7 7.2-8.1 9.3-8.6 20.6-14 32.3-18.6 8.2-3.2 16.9-5 24.8-8.6 6.1-2.8 9.8-0.4 13.3 3.5C175 68.8 182.7 91.9 168.5 111.9z" class="a"/><path d="M249.3 247.7c21.3 13.2 24.9 34.9 10.6 53.7 -0.2 0.3-0.4 0.5-0.6 0.8 -3.5 3.6-6.5 9-10.7 10.1 -2.6 0.7-6.9-5.1-10.5-7.9 -7.6-5.8-16-10.1-25.8-11.1 -4.4-0.4-8.8-0.5-13.1-1.1 -3.2-0.4-6.3-1.4-9.4-2.2 1.6-2.5 3.1-5.1 4.9-7.4 8.6-10.6 13.5-22.6 13.9-36.3 0.2-5.8 2.4-7.5 8-7.3C229 239.5 240.7 242 249.3 247.7z" class="a"/><path d="M407.1 230.5c14 8.3 16.4 25 5.4 36.6 -5.3 5.6-10.8 11.1-16.4 16.5 -2.8 2.8-5.9 4.2-9.8 1.2 -10.5-7.9-22.5-10.1-35.4-9.7 -7.2 0.3-7.8-0.6-4.6-6.3 7.1-12.7 8.3-26.2 5.9-40.2 -1.4-8.3-1.4-8.3 7.1-8.7C376.6 219.1 394.6 223.1 407.1 230.5z" class="a"/><path d="M92.4 323.4c-5.8 9.4-7.8 9.8-13.3 2.6 -7.8-10-18.5-14.4-30.3-16.7 -6.6-1.3-13.3-2-20-2.9 -4.7-0.6-5.5-2.8-3.7-7 2.4-5.6 5-11.1 6.7-16.9 1.8-6.4 3.1-13.1 3.6-19.7 0.7-9.1 0.3-9.2 9.9-8.2 6.7 0.7 13.5 1.1 20 2.5 14.4 3.2 23.7 12.3 27.5 26.7 2.8 10.5 5.6 21 2.4 31.9C94.1 318.9 92.8 322 92.4 323.4z" class="a"/><path d="M370.1 189.5c-6.6 5.6-13.2 11.3-19.9 16.9 -3.4 2.8-6.7 2.5-9.8-0.9 -8.6-9.4-19.5-14.2-32.2-15.3 -3.9-0.3-4.4-2.4-2.3-5.4 2.1-3 4.4-6 6.3-9.2 6.7-11.1 10.1-23 6-35.8 -1.8-5.5 0.7-6.5 5.3-6.3 12 0.3 23.6 2.4 34.2 8.2C377.4 152.3 381.7 170 370.1 189.5z" class="a"/><path d="M391.8 137.2c-2.7 3.8-4.1 5.7-5.5 7.6 -2.5 3.3-4.8 4.2-8 0.4 -11.5-13.8-27.3-19.2-44.3-21.8 -2-0.3-4-0.4-6-0.6 -4.6-0.4-4.1-2.3-1.6-5 1.1-1.2 2.2-2.6 3.2-3.9 7.8-9.8 13-20.6 11.6-33.5 -0.6-5.1 1.3-6.8 6.2-6.3 7 0.7 14.2 0.6 21.1 2 24.5 5 35.8 23.5 29.1 47.4C396 128.9 393.2 134 391.8 137.2z" class="a"/><path d="M247 148.2c6.9-9.2 9.3-21.1 5.7-33.9 -1.5-5.3-0.2-6.5 5-6 11.8 1.3 23.5 2.5 33.4 10.1 24.3 18.7 23.9 46.9-0.8 66.7 -4.4 3.5-7.3 1.6-10.1-2 -8.5-11.3-20.1-17.7-33.3-21.7 -7.5-2.3-7.5-2.4-2.8-9.1C244.8 151.4 245.3 150.6 247 148.2z" class="a"/><path d="M323.7 104.6c-1 1.2-3.2 4.1-5.8 6.8 -8.4 8.5-8.4 8.4-17.9 0.7 -9.4-7.6-20.2-11.8-32.2-13.4 -6.7-0.9-6.9-1.8-2.4-7.1 10.5-12.3 13.4-26 8.1-41.5 -2.1-6.2-1.7-6.9 4-5.9 10.6 1.8 21.6 3 31.3 7.1C329.5 59.9 336.5 84.3 323.7 104.6z" class="a"/><path d="M257.9 176.8c29.5 20.8 32.1 47.3 19.2 74.4 -1.9 4.1-4.2 3.6-6.8 0.5 -12-14.2-27.8-20.8-46-22.8 -6.1-0.7-6.5-1.4-2.9-6.7 9.6-14.6 14.8-30.3 12.9-47.9 -0.4-3.5 1-5.4 4.6-4.1C246.2 172.6 253.5 175.2 257.9 176.8z" class="a"/><path d="M433.4 226.9c-5.2 8.4-6.6 8.6-12 2.9 -11.3-12.1-26.3-16-41.6-18.9 -12.8-2.5-12.9-2.2-4.9-12.2 6.4-8.1 11.4-16.8 12-27.3 0.2-4.3 2.1-6.2 6.2-6 7.4 0.2 14.9-0.2 22.2 0.8 12.2 1.8 20.2 8.9 23 21.2C441.5 201.6 439 215.3 433.4 226.9z" class="a"/><path d="M335.5 267.3c-2.3 2.5-4.1 4.5-5.9 6.5 -3.1 3.4-6 3.8-9.3 0.1 -7.7-8.5-17-14.3-28.8-15.4 -3.5-0.3-4.8-2.1-3.4-5.4 0.6-1.6 1.2-3.2 1.8-4.7 5.2-13.6 7.1-27.5 3.7-41.8 -1-4.2 0.3-5.4 4.3-5.7 30.4-2.5 52.2 19.7 42.7 55C339.3 260 337 263.9 335.5 267.3z" class="a"/><path d="M453.6 158.6c-0.8 1.1-1.6 2.2-2.4 3.3 -6.9 9.3-6.4 8.6-16.1 1.9 -6.2-4.2-13.9-6.6-21.2-8.7 -4.4-1.3-9.4-0.6-14.1-0.6 -4.2 0-5.9-1.4-3.3-5.4 0.9-1.4 1.9-2.8 2.8-4.2 6.7-10.1 10.3-21.1 10.4-33.4 0-8.2 0.3-8.3 8.7-8.2 5.1 0 10.2-0.1 15.2 0.5 18.1 2.4 30.2 18.2 27.3 36.2 -1 6.5-4 12.7-6.1 19.1C454.2 158.8 453.9 158.7 453.6 158.6z" class="a"/><path d="M177 118.1c5.7-8.6 9.5-17.9 9.8-28.3 0.1-5 2.5-6.4 7.1-5.8 18.5 2.5 34.7 10.1 45.1 25.8 10.5 15.9 3.8 29.5-8.2 41.6 -2.7 2.8-4.7 0.5-6.7-1.5 -12.4-12.3-27.5-19.1-44.8-21.5 -8.7-1.2-8.7-1.3-3.4-8.7C176.1 119.1 176.6 118.6 177 118.1z" class="a"/><path d="M411.4 80.5c-4.9 7.8-6 8-11.4 1.7 -9.9-11.4-22.7-16.4-37.3-18 -3-0.3-6.1-0.2-9-1.1 -1.1-0.3-2.6-3-2.2-4 3.5-9.8 7.2-19.5 11.1-29.1 0.8-1.9 3-4.2 4.8-4.5 8.6-1.3 17.4-3.2 26-2.7 12 0.7 24.3 14.5 25.2 26.7C419.5 61 416.3 71.5 411.4 80.5z" class="a"/><path d="M469.3 93.3c-1.4 2.3-2.7 4.7-4.4 6.7 -2.6 3.2-5.4 4.8-9.4 1.6 -8.5-7-18.5-9.1-29.2-9.3 -9.1-0.1-9.1-0.4-5.1-8 6.2-11.9 9.6-24.3 7.9-37.9 -0.8-6.9-0.2-7.9 6.7-8 15.1-0.2 28.7 3.4 37.7 16.9 7.5 11.2 3.3 21.9-1.2 32.7 -0.8 1.8-2.1 3.4-3.2 5.1C469.1 93.2 469.2 93.2 469.3 93.3z" class="a"/><path d="M229.5 85.1c-8.7-3.5-17.3-7.3-26.2-10.4 -4.1-1.4-5.5-2.2-3-6.8 3.3-6.1 6-12.8 7.8-19.5 1.3-4.7 3.1-6.9 8.1-7.1 6.1-0.2 12.5 0 18.1-1.9 12-4.3 20.2 1.4 26.6 9.6 7.1 9.1 6 22-1.2 32.2 -1.4 1.9-2.8 3.9-4.4 5.6 -8.3 8.9-11.8 9.2-22 2.1 -1.4-1-2.8-1.8-4.3-2.7C229.2 85.8 229.3 85.4 229.5 85.1z" class="a"/><path d="M268.9 306.4c6.8-9 9.7-19.3 9.8-30.4 0.1-5.9 2.7-7.4 8.1-7.5 15.2-0.2 29.8 10.4 33.1 26.3 1.9 9.4 1.5 19.5 1.1 29.2 -0.2 5.9-1.8 6.5-7 3.9 -13.8-6.9-28.6-10.1-43.9-11.5 -2.2-0.2-4.3-1.2-6.5-1.8 1.2-1.9 2.3-3.9 3.5-5.8C267.6 308 268.3 307.2 268.9 306.4z" class="a"/><path d="M495.7 119.3c7.4 6.6 13.8 10.9 13.1 19.7 -0.1 1.3-0.1 2.9 0.6 3.9 2.8 4 2.9 7.8 1.2 12.4 -2.6 7.3-6.5 13.3-13.6 16.5 -2.5 1.1-5.9 0.9-8.7 0.6 -7-0.8-14-2.3-21-3 -7.8-0.9-7.3-0.4-4.2-7.3 3.4-7.6 6.4-15.5 8.3-23.6 1-4.3-0.2-9.3-1-14 -1.2-7.4-1-8.4 6.7-8C484 116.8 490.9 118.5 495.7 119.3z" class="a"/><path d="M224.4 384.4c2.5 1.6 3.1 1.9 3.6 2.3 7.1 5.1 7.1 7 0 11.5 -3.1 2-6.3 4.1-9.8 5.3 -15.2 5.1-31 6.8-46.8 6.5 -9.2-0.2-13.4-5.4-14.2-14.6 -1.4-16-1.4-15.9 15.1-18.3 15.7-2.3 30.9-0.7 45.8 4.6C221 382.7 223.7 384.1 224.4 384.4z" class="a"/><path d="M509.9 61.9c9.4 7.8 15 14.6 14 26.7 -0.7 8.5 0.7 17.2-2.4 25.6 -0.7 1.9-1.1 3.9-1.9 5.8 -2.4 5.5-3.7 6-7.5 1.2 -7.4-9.5-17.5-13.1-28.8-15.1 -7.4-1.3-7.6-1.5-4.3-7.7 5.8-10.9 9.7-22.3 8.8-34.8 -0.3-4.7 2.1-6.3 6-5.5C499.7 59.1 505.4 60.8 509.9 61.9z" class="a"/><path d="M92.5 381.7c-1.5-0.7-3-1.5-4.6-2.2 -2.9-1.3-4.2-3-2.2-6.3 3.8-6.5 6.8-13.2 6.1-21.1 -0.1-1.2 2.1-3.5 3.4-3.7 23.1-3 50.3 20.3 52.1 44.4 0.6 7.7-0.1 8.4-7.5 6.5 -8.2-2.1-16.3-4.4-24.2-7.2 -7.9-2.8-15.6-6.3-23.4-9.5C92.3 382.3 92.4 382 92.5 381.7z" class="a"/><path d="M305.4 334.5c9.5 5.7 9.9 7.7 3 12.2 -16.3 10.8-32.9 21.1-49.5 31.5 -1.2 0.7-3.1 0.7-4.5 0.4 -0.4-0.1-0.7-2.4-0.5-3.6 3.2-14.7 4.5-29.3 1.5-44.2 -0.2-1.2 2.3-4.3 3.6-4.3C276.1 325.9 292.6 328.7 305.4 334.5z" class="a"/><path d="M492.7 37.5c-5.4 7.9-10.8 9.6-18.1 3.3 -12.8-11.1-28.6-15-45.4-12.5 -5.4 0.8-8.9-0.9-12.3-4.7 -3-3.3-1.4-4.7 1.7-5.7 1.9-0.6 3.9-0.7 5.9-1 2.7-0.4 5.7 0 7.9-1.2 16.2-8.9 34.9-5.8 51.8-11.2 1.8-0.6 5 0.1 6.3 1.5C497.2 12.5 498.1 29.4 492.7 37.5z" class="a"/><path d="M572.6 107.2c-9.6 11.2-18.3 23.7-32.4 30.8 -5 2.5-9 6.9-13.5 10.5 -3.1 2.4-5.2 1.7-5.2-2.2 0-3.6-0.1-7.6 1.5-10.6 6.4-11.7 10-24.2 11.8-37.3 1-7.4 1.4-8 9-7.3 8 0.7 16 2 23.9 3.7C577.2 96.9 577.9 99 572.6 107.2z" class="a"/><path d="M377.1 290.1c5.6 3.5 6.2 6.8 0.8 10.8 -9.7 7.2-19.9 13.9-29.9 20.8 -4.4 3-8.6 6.4-13.1 9.2 -3.4 2.1-5.2 0.7-4.4-3.2 2.6-11.5 1.2-22.8-0.4-34.3 -0.2-1.8 1.2-5.3 2.3-5.5 14.3-2.6 28.8-5.2 42.8 1.4C375.9 289.5 376.5 289.8 377.1 290.1z" class="a"/><path d="M540.5 69c-1 1.4-2 2.7-3 4.1 -1.9 2.5-4 2.7-5.3-0.3 -5.3-12.4-15.3-19.4-27.5-23.7 -3.3-1.2-3.5-2.9-2.4-6.2 2.1-6 4-12.1 4.8-18.4 0.7-5 2.9-5.4 6.7-4.1 5.4 1.9 10.9 3.6 16.1 6 13.1 6.1 16.6 11.8 15.4 26.3 -0.5 5.6-2.4 11-3.7 16.6C541.2 69.2 540.8 69.1 540.5 69z" class="a"/><path d="M62.7 324.9c9.4 6.4 15.4 14 18 23.8 0.9 3.5 1.4 7.6 0.4 10.9 -1.1 3.5-3.8 7.2-6.8 9.1 -1.3 0.8-5.4-2.7-8-4.6 -13.1-9.8-21.4-23.9-32.1-35.9 -1.5-1.7-2.9-3.7-3.9-5.8 -1.2-2.4-1.2-4.9 2.5-4.6C43.4 318.8 54.1 320.2 62.7 324.9z" class="a"/><path d="M34.4 228.6c-2.3 4.1-4 4.9-6.6 1.7 -5.6-7.1-11.6-14-17.1-21.2 -1.3-1.7-2.5-4.5-2.1-6.3 2.4-10.5 5.3-20.8 8.1-31.2 1.2-4.3 3.7-4.3 6.7-1.7 6.8 6 11.5 13.3 13.5 22.1C39.7 204.8 38.4 217.4 34.4 228.6z" class="a"/><path d="M32.4 144.6c5.8-9 11.3-18.3 17.5-27.1 2.7-3.8 6.4-6.9 9.9-10 2.7-2.5 4.7-1.7 5.8 1.9 3.5 12.5 2.8 24.4-6.5 34.1 -6.5 6.7-14.3 12.2-21.6 18.2 -2.9 2.4-5.4 1.7-8.1-0.5 -2.9-2.5-4-5.4-2-8.9 1.5-2.6 3.2-5.1 4.9-7.7C32.3 144.6 32.3 144.6 32.4 144.6z" class="a"/><path d="M19 286.9c-2.7 5-5 5.1-6.4 1.5 -1.9-4.6-3.8-9.5-4.5-14.4 -1.9-12.6-3.4-25.3-4.6-38 -0.4-4.7-2-10.1 2.8-13.9 3.3 3.2 7.2 5.9 9.7 9.5C28.9 250 25.9 269.2 19 286.9z" class="a"/><path d="M344.6 50.1c-2 2.5-3.4 4.4-5 6.1 -2.4 2.5-5.1 3.5-7.7 0.2 -10.4-13.3-25-19-40.9-22 -1.2-0.2-2.3-1-3.4-1.6 1.3-0.7 2.7-2.2 4-2.1 9.9 0.2 19.7-3.8 29.6-0.3 1.1 0.4 2.7 0.3 3.8-0.2 4-1.7 7.6-2.2 11.5 0.6 1.1 0.8 3.2 0.5 4.9 0.5 9.7 0 10 0.4 7.1 9.4C347.4 44 345.7 47.4 344.6 50.1z" class="a"/><path d="M476.2 190.8c-8.1 9.7-16.2 19.5-24.5 29.2 -1 1.2-2.7 1.9-4.1 2.8 -0.1-1.8-0.5-3.6-0.4-5.3 0.4-10.3 1.2-20.7 1.3-31 0-3.1 0.1-5.4 3.7-5.6 7.3-0.5 14.7-1.3 22-0.9 6.4 0.4 7 2.2 4 7.6C477.8 188.6 477 189.7 476.2 190.8z" class="a"/><path d="M193.2 60.1c-1.3 1.6-2.6 3.5-4.4 5.1 -2.6 2.4-5 2.9-7.3-0.8 -2.8-4.6-6-8.8-9-13.3 -2.1-3-1.4-5 2.4-5.4 5.3-0.7 10.6-1.5 15.9-2.1 5.9-0.6 7.1 0.8 6 6.9 -0.3 1.6-0.8 3.3-1.4 4.8C194.9 56.8 194.1 58.3 193.2 60.1z" class="a"/></svg>