<svg xmlns="http://www.w3.org/2000/svg" width="490" height="327" viewBox="0 0 490 327"><style>.a{fill:#F98233;}</style><path d="M488.4 78.8c-0.2-1-0.5-1.9-0.6-2.9 -0.3-3.2-2.4-5.3-4.4-7.4 -1.9-2-4.7-2.4-7.3-2 -2.1 0.4-4.2 1-6.2 1.8 -2.5 1-4.9 2.3-7.3 3.4 -0.6 0.3-1.2 0.7-1.9 0.1 -1.8-1.5-3.7-3-5.5-4.5 -1.4-1.2-2.8-2.4-4.3-3.4 -3-1.9-6-3.7-9.2-5.4 -1.8-0.9-3.9-1.3-5.5-2.7 -0.3-0.3-0.9-0.2-1.3-0.3 -1.8-0.6-3.6-1.2-5.4-2 -1.8-0.8-3.4-1.8-5.1-2.7 -2.3-1.2-4.7-2.1-6.8-3.4 -5.7-3.7-11.8-6.4-18.2-8.4 -2.4-0.7-4.9-1.4-7.3-2.2 -1.5-0.5-2.9-1.2-4.3-1.6 -5.1-1.4-10.3-2.8-15.4-4 -4-0.9-8.1-2-12.3-2 -0.7 0-1.5-0.2-2.2-0.5 -1.5-0.6-3.1-1.1-4.7-0.5 -0.3 0.1-0.8 0-1.1-0.1 -2.5-0.9-5.1-1.5-7.8-1.8 -3.8-0.4-7.4-2-11.3-1.8 -0.2 0-0.5 0-0.7-0.1 -1.9-1-4.1-1-6.1-1 -3.2-0.1-6.2-1-9.4-1.4 -2.8-0.3-5.6-0.8-8.5-1.1 -1.6-0.2-3.2 0.3-4.8 0 -4.6-0.8-9.2-0.5-13.7-0.3 -3.8 0.2-7.5 0.9-11.2 1.5 -4.3 0.7-8.5 1.5-12.7 2.3 -3 0.5-5.9 0.9-8.9 1.3 -2.5 0.4-5 0.9-7.5 1.3 -4.5 0.6-9 1.2-13.5 1.7 -2 0.2-4 0.6-6 0.6 -3.1 0-6 1.2-9.1 0.6 -0.1 0-0.3 0.1-0.5 0.1 -3.6 0.6-7.1 1.1-10.7 1.7 -1.3 0.2-2.6 0.7-3.8 0.8 -6.4 0.2-12.4 2.3-18.6 3.6 -5.7 1.2-11.3 3-17.1 3.9 -1.9 0.3-3.7 0.8-5.6 1.1 -2.1 0.3-4.3 0.3-6.4 0.5 -2.3 0.3-4.3-0.6-6-2 -1.1-0.9-2.4-1.2-3.7-1.8 -2.1-0.9-4.3-1.8-6.1-3.1 -2.3-1.7-4.3-3.9-6.5-5.9 -1.1-1-2.2-2-3.4-3.1 -0.2 0.5-0.4 0.7-0.4 0.9 -0.5 4.9-2.7 9-5.7 12.7 -1.5 1.8-2.9 3.7-4.2 5.6 -1.7 2.5-3.2 5.1-3.9 8.1 -0.3 1.4-1.1 1.9-2.1 1.7 -0.8-0.2-1.4-1-1.3-2.2 0-0.5 0.2-0.9 0.3-1.4 0.9-3.7 2.8-6.8 5-9.9 1.8-2.4 3.6-4.8 5.4-7.3 1.7-2.3 2.6-5 2.7-7.8 0.3-5.3-0.3-10.5-1.8-15.5 -1.3-4.1-4.1-6.7-7.9-8.1 -2.7-1-5.4-1.5-8.4-0.9 -1.4 0.3-2.7 0.4-3.9 1.3 -1.5 1.2-3.1 2.3-4.6 3.5 -0.4 0.3-0.9 0.7-1.1 1.1 -1.6 2.8-3.2 5.6-4.7 8.5 -0.3 0.6-0.5 1.3-0.7 2 -0.4 2.2-0.7 4.4-1 6.6 -0.5 3.1-1 6.3-1.6 9.4 -0.2 1.3-1.1 2-2 1.9 -1.1-0.1-1.6-1-1.5-2.5 0-0.2 0.1-0.5 0.1-0.7 0.3-1.8 0.6-3.5 0.8-5.3 0.3-2.1 0-2.3-2-1.7 -0.4 0.1-0.7 0.2-1.1 0.4 -4.2 1.6-8.4 3-12.6 4.7 -4.2 1.7-8.1 3.8-11.7 6.5 -3 2.2-5.8 4.6-8.9 6.6 -3.7 2.5-6.8 5.6-9.7 8.9 -3.2 3.7-6.1 7.7-9.1 11.6 -2.6 3.5-5.2 6.9-8.7 9.5 -3.4 2.5-6.6 5.3-9.9 8 -0.7 0.6-1 1.2-0.3 2 1.3 1.6 2.5 3.4 4.1 4.7 3.3 3 4.6 8.9 1.5 13.6 -2.4 3.7-5 7-8.7 9.5 -0.7 0.5-1.4 1-1.3 2 0.1 1.5 0.1 3.1 1.4 4.3 0.9 0.8 1.6 1.7 2.3 2.6 0.8 1.1 1.9 1.7 3.1 1.8 2.1 0.3 4.3 0.5 6.4 0.7 5.2 0.5 10.2 1.9 15.2 2.9 5.2 1.1 10.1 3.3 15.4 4.2 7.6 1.4 15 3.7 22.5 5.5 7.2 1.7 13.9 4.7 20.4 8.3 1.2 0.6 4.7 3.9 5.2 4.8 0.6 1 1.3 1.9 1.9 2.9 1.4 2.6 2.8 5.2 3.9 7.9 0.8 2 1.5 4 2.8 5.8 1.6 2.2 3 4.4 2.4 7.2 0 0.1 0 0.2 0 0.2 0.5 3.6 1 7.2 1.5 10.8 0.5 3.7 1.6 7.2 1.9 10.9 0.2 3.3 1.4 6.4 2.4 9.6 1.4 4.1 3 8.1 4.6 12.1 1.4 3.4 2.8 6.9 4.2 10.3 0.1 0.1 0.1 0.3 0.1 0.5 1.1 3.7 2.1 7.4 3.2 11.1 0.4 1.4 0.7 2.9 1 4.3 0.9 3.7 1.9 7.3 2.9 11 0.3 1 0.7 2.1 1 3.1 1 3.6 2 7.3 3 10.9 0.3 1.3 0.6 2.6 0.6 3.9 0 2.8 0.3 5.7-0.3 8.5 -0.1 0.3 0.1 0.6 0.1 0.9 -0.1 2.4 0.2 4.9-0.3 7.1 -0.6 2.5-0.9 5-1.2 7.5 -0.2 1.4-0.8 2.5-2.1 3.1 -3 1.4-6 2.4-9.3 2.4 -3.8 0-7.7 2.8-9 6.4 -1.2 3.2-1.5 6.4-1.4 9.8 0 1.4 0.6 2.5 1.5 3.5 3.3 3.7 7.7 5.2 12.4 5.3 2.3 0 4.5-0.1 6.8 0 0.5 0 0.9-0.1 1.4-0.1 0.9-0.1 1.8-0.2 2.8-0.2 4.8-0.1 9-1.6 13-4.1 1.8-1.1 3.4-2.6 5.1-3.9 4.5-3.5 9.3-6.7 13.9-10 1-0.7 2.1-1.4 2.9-2.3 1.9-2.2 3.8-4.5 5.6-6.8 2-2.7 4-5.5 4.3-9.1 0-0.4 0.2-0.7 0.3-1.1 1-3 1.9-6 2.9-9 1.2-3.7 2.5-7.5 3.8-11.2 1.4-4 3-7.9 4.5-11.9 1.8-4.6 3.6-9.2 5.7-13.7 4.8-10.2 9.7-20.4 14.8-30.5 1.7-3.5 2.4-7.1 2.2-10.8 -0.3-4.9 0.4-9.7 0.3-14.6 0-0.5 0.1-0.9 0.2-1.4 0.2-0.8 0.7-1.4 1.6-1.4 1 0 1.6 0.6 1.8 1.5 0.2 0.7 0.1 1.4 0.1 2.1 0 3.8 0 7.6-0.1 11.3 0 2.2-0.1 4.5-0.4 6.7 -0.2 2.1 0.2 2.7 2.4 3 1.1 0.1 2.1 0.4 3.2 0.6 1.8 0.3 3.5 0.6 5.2 0.9 3.5 0.7 7.3 0.5 10.5 2.5 0.2 0.1 0.4 0.2 0.7 0.2 1.4 0 2.7 0.1 4.1 0 2.1-0.1 4.2-0.4 6.2-0.3 2.3 0 4.6 0.2 6.9 0.5 3.3 0.4 6.5-0.2 9.7-0.2 3.9 0 7.7-0.1 11.6-0.2 0.6 0 1.2 0.1 1.8 0.1 2.3 0.2 4.7 0 6.9 0.6 4.2 1 8.4 1.9 12.8 2.1 2 0.1 4 0.6 6 0.7 3.2 0.2 6.5 0.6 9.7 0.3 5.6-0.4 10.9-2.2 16.3-3.6 6.3-1.7 12.7-3.3 19.1-4.9 1.1-0.3 1.7-0.7 1.6-1.8 0-1.2-0.1-2.5-0.2-3.7 -0.1-1.2-0.3-2.5-0.2-3.7 0.4-4.5 0-9.1 1.3-13.6 1.2-4.3 2.1-8.7 3.3-13 0.2-0.9 0.8-1.7 1.3-2.4 0.4-0.6 1.2-1 1.8-0.5 0.5 0.4 0.9 1 1.1 1.6 0.1 0.6-0.1 1.2-0.3 1.8 -1.9 6.1-3.4 12.2-4.2 18.5 -0.4 3.1-0.5 6.3-0.5 9.5 0 2.1 0.2 4.2 0.4 6.2 0.4 4 0.1 8.1 1.2 12 0.9 3.2 2.1 6.3 2.8 9.5 0.7 2.9 1.9 5.4 3.7 7.6 1.6 1.9 2.9 4 4.2 6.1 1 1.5 2.1 2.8 3.5 4 1.2 1 2.1 2.5 3.1 3.7 0.3 0.4 0.4 0.9 0.7 1.2 3.8 4.6 6.8 9.9 11.1 14.2 0.9 0.9 1.8 1.7 2.6 2.6 2.2 2.4 4.3 4.9 6.6 7.2 2.3 2.4 5.1 4.2 8.1 5.7 1 0.5 2 0.9 2.3 2.1 0.6 2.6 0.6 5.2 0 7.8 -0.3 1.3-1 2.6-1.8 3.7 -2.6 3.2-5.4 6.2-9.4 7.7 -0.1 0.1-0.3 0.1-0.4 0.2 -3.7 2.6-6.5 5.7-6.2 10.7 0.1 1.9 0.9 3.1 2.5 4.1 4.5 2.6 9.3 2.7 14.2 2.3 2.3-0.2 4.5-0.6 6.7-1.1 6-2.6 12-5 18-7.6 2.4-1.2 4.7-2.3 7.1-3.5 1-0.5 2-0.9 2.9-1.5 4.6-3.1 8.9-6.7 12.7-10.8 0.5-0.5 0.8-1.1 1.3-1.6 1.3-1.6 2.4-3.4 3.9-4.9 1.1-1.1 1.8-2.2 2.2-3.4 0-0.7 0.1-1.4 0.1-2.1 0-0.3 0-0.5 0-0.8 -1.5-6-3.8-11.7-5.6-17.7 -0.2-0.4-0.3-0.8-0.5-1.2 -6.9-12.2-10.3-26.2-14.1-39.6 -2-7.2-5-14.5-5.9-22 -0.3-2.7-0.3-5.4 0-8 -0.1-0.3-0.2-0.6-0.1-0.9 0.1-0.3 0.2-0.7 0.3-1 0.1-2.5 0.9-5.2 2.1-7.5 0-0.4 0-0.8 0.1-1.1 1-2.4 1.9-4.8 3-7 2.4-4.6 4.5-9.3 6.1-14.3 0.2-0.5 0.5-1 0.7-1.5 0.7-1.6 1.5-3.2 2.1-4.9 0.9-2.6 1.6-5.3 2.5-7.9 1.1-3.4 2.3-6.7 3.4-10.1 0.3-0.7 0.6-1.5 0.9-2.2 0.6-2.1 1.1-4.3 1.7-6.4 0.7-5.4 1.2-10.8 2.2-16.2 0-0.3-0.1-0.5-0.1-0.8 -0.2-1.5 0-2.9 1.5-3.6 1.2-0.5 2.5-0.8 3.7-1.2 1.1-0.3 2.3-0.4 3.4-0.8 4.3-1.3 8.2-3.2 11.3-6.5 2.2-2.4 4.1-4.9 4.9-8.3 0.4-1.7 0.1-3.4 0.5-5C489.3 83 488.8 81 488.4 78.8zM64.4 49.9c1.2-0.6 2.5-1 3.8-1.5 1 0.2 1.8 0.4 2.1 1.4 0.3 1-0.3 1.7-1.1 2 -1 0.5-2.2 0.7-3.2 1.1 -0.9 0.4-1.7 0.2-2.2-0.7C63.3 51.6 63.5 50.4 64.4 49.9zM62.5 57.8c0.4-0.5 1.1-0.9 1.7-1.1 1.5-0.4 3-0.6 4.3-0.8 1 0.1 1.8 0.2 2 1.2 0.2 1-0.2 1.8-1.1 2.1 -1.9 0.5-3.9 1-5.8 1.1C62.2 60.4 61.6 58.9 62.5 57.8zM78.7 77.5c-1.3 3-3.7 4.7-6.5 4.7 -3.9-0.1-6.4-1.7-8.3-4.3 -0.3-0.4-0.5-0.8-0.6-1.2 -0.6-3.6-0.2-6.9 2.6-9.6 1.2-1.1 2.6-1.5 4.2-1.5 3.2 0 5.4 1.5 7.3 3.7C79.5 71.8 80 74.6 78.7 77.5zM93.6 69.3c-0.2 0.5-0.8 0.9-1.3 1.1 -0.4 0.2-0.9 0-1.3-0.1 -1.5-0.5-2.9-1-4.4-1.5 -0.9-0.3-1.5-0.9-1.4-1.9 0.1-0.8 1-1.4 2.2-1.6 1.9 0.7 3.7 1.4 5.6 2.2C93.7 67.8 93.9 68.6 93.6 69.3zM152.6 90.6c0 0.9-0.6 1.5-1.4 1.6 -1.1 0.1-2.1 0-3.2 0 0 0.1 0 0.1 0 0.2 -1 0-2 0-3 0 -0.8 0-1.3-0.4-1.5-1.2 -0.2-0.8 0.2-1.4 0.8-1.7 0.4-0.2 0.8-0.5 1.3-0.5 1.9 0 3.8 0 5.7 0.1C152.1 89.1 152.7 89.7 152.6 90.6zM141.2 52c2-0.3 3.9-0.5 5.9-0.5 1.3 0 1.8 0.6 1.8 1.6 0 1.1-0.8 1.5-1.6 1.6 -1.7 0.2-3.3 0.4-5 0.6 -0.2 0-0.5 0-0.7 0 -1-0.1-1.7-0.7-1.8-1.4C139.7 53.1 140.3 52.1 141.2 52zM106.6 42.4c-1.5 0.5-2.8 0.1-3.7-1.1 -1.3-1.9-1.4-4.1-0.5-6.2 0.4-1.1 1.3-1.4 2.2-1.2 1.1 0.3 1.1 1.2 1.1 2 0 0.8-0.8 1.9 0.2 2.3 1 0.5 1.6-0.7 2.2-1.3 2.5-2.2 4.3-4.9 5.1-8.1 0.4-1.6 0.5-3.3 0.7-5 0.1-3.1-0.6-6-2.6-8.5 -0.8-1-0.7-2.2-0.1-2.7 0.7-0.7 1.9-0.6 2.9 0.3 1.7 1.7 2.7 3.8 3.1 6.1 0.9 4.8 0.5 9.5-1.7 14 -1.7 3.5-4.1 6.3-7.2 8.6C107.8 41.9 107.2 42.2 106.6 42.4zM122 124.5c-0.7 0.6-1.8 0.6-2.7-0.3 -1.5-1.3-2.9-2.8-4.4-4.1 -1.8-1.6-3.6-3.1-5.8-4.1 -0.8-0.3-1.3-1.1-0.9-1.9 0.3-0.6 1-1 1.6-1.5 1 0.4 1.9 0.6 2.5 1.1 2 1.4 4 2.9 5.9 4.4 1.1 0.9 2 1.9 3 2.9 0.3 0.3 0.5 0.6 0.7 0.9C122.5 123 122.6 123.9 122 124.5zM129.4 116.1c-0.3 1.1-1.2 0.9-2.2 1.2 -1.7-0.7-3.4-1.3-5.1-2 -0.5-0.2-0.9-0.6-1.2-1.1 -0.6-0.7-0.6-1.6-0.1-2.3 0.6-0.8 1.5-0.6 2.3-0.2 1.3 0.6 2.7 1.1 4 1.7 0.4 0.2 0.7 0.3 1 0.5C129.1 114.3 129.7 115 129.4 116.1zM131.3 106.5c-0.8-0.4-1.2-1.2-0.9-2.2 0.4-1 1.3-1.1 2.1-0.9 1.1 0.2 2.1 0.6 3.1 0.9 1.2 0.4 1.7 1.1 1.5 2 -0.2 0.9-0.8 1.3-2.2 1.6C133.7 107.5 132.5 107.1 131.3 106.5zM138.2 157.8c-1.4-1.6-2.8-3.3-4-5.1 -0.3-0.5-0.4-1.3-0.2-1.9 0.2-0.4 0.9-0.7 1.4-1.1 0.7 0.5 1.2 0.7 1.6 1.2 1.7 1.9 3.4 3.8 5.1 5.7 0.6 0.7 0.8 1.5 0.2 2.3 -0.6 0.7-1.5 0.8-2.5 0.2C139.2 158.7 138.6 158.3 138.2 157.8zM144 204c-0.5 0.2-1.4-0.3-1.7-0.7 -0.7-1.1-1.1-2.3-1.5-3.6 -0.4-1.2-0.6-2.4-0.8-3.6 -0.1-1 0.4-1.8 1.2-2 0.9-0.2 1.7 0.1 1.9 0.9 0.8 2.4 1.5 4.8 2.3 7.5C144.9 203 144.5 203.8 144 204zM154.5 133.6c-0.7 0.1-1.4 0-2.1 0 0 0.1 0 0.2-0.1 0.3 -1.3-0.4-2.7-0.7-3.9-1.2 -0.9-0.4-1.2-1.3-0.8-2.1 0.4-0.8 1.1-1.2 1.9-0.9 1.6 0.4 3.1 0.7 4.8 0.5 0.9-0.1 1.7 0.7 1.8 1.5C156.3 132.4 155.5 133.5 154.5 133.6zM157.3 117.6c-0.7-0.7-0.5-1.8 0.2-2.5 0.8-0.7 1.6-0.4 2.3 0.1 0.7 0.5 1.4 1 2 1.6 0.4 0.4 0.6 1 0.7 1.2 0 1.6-0.9 2.3-2 1.8C159.3 119.3 158.2 118.5 157.3 117.6zM164.7 243.4c-0.6 0.5-1.4 0.2-1.9-0.4 -0.4-0.5-0.8-1-1-1.5 -0.7-2.1-1.4-4.3-2.1-6.4 -0.1-0.2-0.1-0.5-0.1-0.7 0-0.9 0.3-1.7 1.3-2 0.7-0.2 1.5 0.3 2 1.2 0.2 0.4 0.2 0.7 0.4 1.1 0.7 1.8 1.3 3.6 1.9 5.5 0.2 0.5 0.4 1 0.6 1.8C165.5 242.4 165.2 243 164.7 243.4zM169.3 227.3c-0.4-1.2-0.8-2.5-1-3.3 0-1.3 0.1-2.2 1.1-2.5 0.9-0.2 1.7 0.2 2.1 1.3 0.4 1.1 0.7 2.3 1 3.5 0.2 0.9-0.1 1.7-1.1 2C170.4 228.5 169.7 228.2 169.3 227.3zM173.6 277.8c-0.5 0.2-1.2 0-1.7-0.3 -1.3-0.9-2.2-4.4-1.4-5.7 0.3-0.5 1-1 1.6-1.1 0.4 0 1.2 0.5 1.4 1 0.5 1.5 0.8 3.1 1.2 4.9C174.3 276.9 174.1 277.6 173.6 277.8zM179.2 264.4c-0.9 0.5-2.1 0.3-2.6-0.8 -1.2-2.6-2.2-5.4-3.3-8.2 0.6-0.7 0.9-1.4 1.5-1.7 0.8-0.5 1.4 0.2 1.9 0.8 0.2 0.3 0.4 0.7 0.5 1 0.8 2.1 1.7 4.3 2.5 6.4C180.1 263.2 179.9 264 179.2 264.4zM177.2 90.8c-0.7 0.1-1.8 0.1-3 0.3 -0.9 0.1-1.6-0.1-1.9-0.9 -0.4-0.8-0.1-1.6 0.5-2.1 0.6-0.4 1.3-0.8 2.1-0.9 1.8-0.1 3.5 0 5.3 0.1 0.3 0 0.6 0.1 0.9 0.2 0.8 0.3 1.4 0.8 1.3 1.7 -0.1 0.9-0.6 1.5-1.5 1.6C179.8 90.9 178.7 90.8 177.2 90.8zM184.8 250.9c-0.7 0.4-1.4-0.1-1.7-0.7 -0.8-1.6-1.6-3.3-2.2-5.1 -0.1-0.4 0.2-1.2 0.6-1.6 0.6-0.5 1.3-0.4 1.9 0.1 0.2 0.2 0.5 0.4 0.7 0.6 0.7 1.6 1.5 3.2 2.2 5C185.8 249.8 185.4 250.5 184.8 250.9zM187.1 66.8c-0.7 1.3-3.8 3-5.1 2.6 -0.6-0.1-1.3-0.7-1.4-1.2 -0.1-0.5 0.2-1.5 0.6-1.8 1.3-0.8 2.7-1.4 4.2-1.9 1.1-0.4 2 0.3 2.1 1.4C187.4 66.1 187.3 66.4 187.1 66.8zM194.1 236.7c-0.1 0.7-0.6 1.4-1.4 1.2 -0.5-0.1-1.1-0.6-1.4-1 -0.9-1.9-0.8-3.9-0.5-5.9 0.2-0.8 0.8-1.3 1.7-1.3 0.8 0 1.3 0.5 1.5 1.3 0.2 1 0.2 2 0.3 3.1C194.3 234.9 194.3 235.8 194.1 236.7zM194.1 213.9c-0.7-0.2-1.5-0.6-1.9-1.1 -0.9-1.2-1.7-2.6-2.4-3.9 -0.5-0.8-0.4-1.6 0.4-2.3 0.7-0.5 1.7-0.5 2.3 0.3 1.2 1.5 2.2 3.2 3.2 4.8 0.1 0.2 0.1 0.4 0.1 0.6C195.8 213.4 195.1 214.2 194.1 213.9zM205.7 77.2c-2.6 0.5-4.6 2.2-6.8 3.3 -0.5 0.3-1.4 0.4-1.9 0.2 -0.9-0.3-1.2-1.4-0.7-2.1 2.1-2.4 4.7-3.9 7.9-4.6 0.6 0.2 1.3 0.3 1.8 0.6C206.9 75.3 206.8 77 205.7 77.2zM208 48.3c-1.9 0.8-3.9 1.4-5.9 2 -0.8 0.3-1.5-0.1-1.9-0.9 -0.4-0.9-0.1-1.7 0.7-2.2 1.8-1 3.6-1.7 5.6-1.8 0.5 0 0.9 0 1.3 0.1 0.8 0.1 1.3 0.7 1.2 1.4C208.9 47.4 208.4 48.2 208 48.3zM276.9 46.9c0.8-0.1 1.5 0 2.3 0 0 0 0 0 0 0 0.9 0.1 1.9 0 2.8 0.2 1.2 0.2 1.9 1 1.8 2 -0.1 0.9-0.8 1.5-2 1.5 -1.5 0-3 0-4.6 0 -1.1 0-1.9-0.6-2-1.5C275.1 47.9 275.8 47 276.9 46.9zM224.9 43.3c0.8-0.4 1.7-0.8 2.5-1.1 1.2-0.4 2.5-0.7 3.5-1 0.8 0.1 1.4 0 1.7 0.2 0.5 0.3 1 0.8 1.1 1.3 0.1 0.4-0.3 1.2-0.6 1.3 -2.5 0.8-5 1.6-7.5 2.2 -0.4 0.1-1.1-0.5-1.3-1C223.9 44.6 224.1 43.7 224.9 43.3zM226 63.9c-0.5 0.8-1.3 1.6-2.2 1.9 -2.6 0.9-5.3 1.5-8 2.2 0-0.1 0-0.2-0.1-0.2 -0.4 0-0.8 0-1.1-0.1 -1-0.2-1.7-1-1.6-1.9 0.1-0.9 0.7-1.6 1.9-1.6 3-0.1 5.9-0.8 8.7-2.1 0.4-0.2 0.9-0.3 1.3-0.2C226 61.8 226.6 63 226 63.9zM235.7 51.9c-0.2 0.9-0.8 1.2-1.7 1.3 -0.2 0-0.5 0-1.2-0.1 -1 0.2-2.5 0.6-4 0.9 -0.7 0.2-1.5 0.3-2.3 0.2 -0.7 0-1.4-0.5-1.4-1.3 0-0.5 0.4-1.1 0.7-1.6 0.1-0.2 0.4-0.3 0.6-0.3 2.2-0.5 4.4-1 6.5-1.4 0.6-0.1 1.2 0.1 1.8 0.4C235.5 50.4 235.9 51.1 235.7 51.9zM255 78.6c-0.3 0.9-1 1.2-2.3 1.1 -2.8-0.3-5.7-0.6-8.5-0.8 -1.2-0.1-1.9-0.7-1.9-1.6 0-0.9 0.7-1.6 1.9-1.7 1.1-0.1 2.2 0 3.2 0 0 0 0-0.1 0-0.1 1.8 0.2 3.5 0.4 5.3 0.6 0.3 0 0.6 0.1 0.9 0.2C254.7 76.7 255.3 77.8 255 78.6zM261.7 62.6c-0.1 0.8-0.7 0.9-1.3 1 -1.5 0.1-3 0.3-4.6 0.4 -0.9 0.1-1.7-0.1-1.9-1.2 -0.2-0.9 0.3-1.7 1.4-2.1 1.1-0.3 2.3-0.4 3.5-0.6 0.7 0.2 1.4 0.3 2.1 0.5C261.8 61 261.9 61.8 261.7 62.6zM265.9 43c-1.7 0.3-3.3 0.5-4.7 0.7 -0.7 0-1.1 0-1.4 0 -0.8-0.1-1.5-0.5-1.6-1.4 -0.1-0.9 0.5-1.5 1.3-1.7 1.9-0.4 3.8-0.7 5.6-1.1 0.2 0 0.5 0 0.7 0 1 0.2 1.9 1 1.8 1.8C267.5 42.3 266.8 42.8 265.9 43zM277.3 111.4c-0.2 0.5-0.7 1.2-1.2 1.2 -1.9 0.3-3.8 0.4-5.7 0.4 -1 0-1.6-0.8-1.6-1.6 0-0.9 0.6-1.4 1.4-1.6 1.3-0.3 2.6-0.5 4-0.7 0.8 0.2 1.6 0.3 2.4 0.7C277.1 110 277.6 110.6 277.3 111.4zM287.1 73.6c-0.2 0.5-0.8 0.9-1.3 1 -2 0.3-4.1 0.6-6.1 0.7 -0.6 0-1.3-0.4-1.7-0.8 -0.6-0.6-0.3-1.4 0.2-1.9 0.5-0.5 1.1-0.9 1.7-1.1 1.4-0.3 2.9-0.3 4.7-0.5 0.5 0.2 1.3 0.4 2 0.8C287.1 72.2 287.5 72.9 287.1 73.6zM290.3 63.2c-0.2 0.9-0.8 1.4-1.6 1.3 -2.2-0.2-4.3 0.5-6.3 1.2 -0.4 0.1-0.8 0.2-1.1 0.2 -0.9 0-1.6-0.4-1.7-1.3 0-0.6 0.4-1.5 0.9-1.7 2-0.9 4.2-1.5 6.3-2.3 0 0.1 0.1 0.2 0.1 0.3 0.8 0.1 1.5 0.2 2.3 0.4C290 61.6 290.5 62.4 290.3 63.2zM295.4 33.6c-0.3 0.2-0.7 0.2-1.1 0.3 -0.7 0-1.4 0-1.8 0 -1.1-0.1-2-0.1-2.8-0.2 -1.1-0.2-1.9-1.2-1.8-2.1 0.1-0.8 0.9-1.4 2.1-1.5 1.8 0 3.6-0.1 5.2 0.9C296.2 31.7 296.4 33.1 295.4 33.6zM325.6 48.7c-0.4 0.8-1.2 1-2.4 0.6 -1-0.3-2-0.7-3-1 -1.2-0.4-1.7-1-1.6-1.9 0.2-0.9 0.9-1.4 2.2-1.6 1.3 0.5 2.8 0.9 4 1.6C325.8 46.8 326 47.9 325.6 48.7zM297.5 41.2c0.1-0.9 0.7-1.3 2-1.4 0.2 0 0.3 0 0.8 0 0.8 0.2 2 0.3 3.1 0.6 1.2 0.4 1.7 1.3 1.4 2.3 -0.3 0.9-1 1.3-2.3 1 -1.1-0.2-2.3-0.4-3.4-0.7C297.9 42.7 297.4 42.2 297.5 41.2zM301.7 95.3c-0.4-0.6-0.1-1.3 0.4-1.9 1.2-1.2 4.7-1.7 6.1-0.9 0.7 0.4 1.3 1 1.1 1.9 -0.2 0.9-0.8 1.3-1.6 1.3 -1.4 0.1-2.9 0.3-4.9 0.5C302.7 96.1 302 95.8 301.7 95.3zM309.4 172.6c-0.7 0.2-1.5 0.3-2.2 0.4 -0.7-0.1-1.4-0.1-1.9-0.4 -0.5-0.2-1.1-0.7-1.2-1.2 0-0.5 0.4-1.3 0.8-1.5 1.4-0.7 3-0.8 4.5-0.3 0.5 0.1 0.9 0.9 1 1.4C310.6 171.7 310.2 172.4 309.4 172.6zM313.4 116.4c-0.4 0.5-1.2 0.9-1.7 0.8 -2.1-0.4-4.1-1.1-6.2-1.6 -0.1 0-0.3-0.1-0.4-0.2 -0.8-0.5-1.4-1.2-0.9-2.1 0.3-0.5 1.1-0.8 1.5-1.1 2.2 0.5 4.1 0.9 5.9 1.4 0.6 0.2 1 0.6 1.5 1C313.6 115.1 313.9 115.8 313.4 116.4zM313.3 27.6c0.1-0.9 0.8-1.3 1.5-1.5 0.4-0.1 0.8-0.1 1.5-0.2 1.4 0.3 3.1 0.5 4.8 1 0.7 0.2 1.4 1 1.7 1.7 0.5 1-0.2 1.8-1.3 1.9 -0.1 0-0.2 0-0.2 0 -2.2-0.4-4.4-0.7-6.6-1.1C313.9 29.3 313.2 28.7 313.3 27.6zM327.3 68.2c-0.3 0.8-0.8 1-2.2 1.2 -2.4-0.7-4.9-1.4-7.2-2.2 -0.5-0.2-0.9-0.8-1.2-1.3 -0.4-0.8 0.2-1.8 1.1-1.8 0.8-0.1 1.5 0 2.3 0.2 1.6 0.4 3.1 0.8 4.7 1.3 0.4 0.1 0.9 0.3 1.3 0.5C327.2 66.6 327.6 67.3 327.3 68.2zM332.5 58.7c-0.3 0-0.6-0.2-0.9-0.3 -1.3-0.6-1.9-1.6-1.6-2.5 0.3-0.9 1-1.1 1.8-1.1 1.3 0.1 2.6 1.2 2.6 2.2C334.6 58 333.5 58.9 332.5 58.7zM344.4 48.7c-0.6 0.7-1.4 0.5-2.1 0.1 -1.6-1-3.1-2-4.7-3 -0.7-0.5-1.3-1.3-0.8-2.2 0.3-0.5 1-0.8 1.5-1.1 2.6 0.8 4.8 1.9 6.3 4.1C345 47.2 345 48 344.4 48.7zM356.2 66.6c-0.2 0.9-0.8 1.2-2.5 1.3 -1.2-0.3-2.5-0.6-3.7-1.1 -0.9-0.3-1.4-1-1.2-2 0.2-0.9 1-1.4 2.1-1.3 1.2 0.2 2.4 0.5 3.6 0.9C355.8 65 356.4 65.8 356.2 66.6zM361.3 42.7c-1.1-0.2-1.7-0.7-1.6-1.6 0.1-1 0.7-1.5 1.6-1.7 0.4-0.1 0.8-0.1 1.2-0.1 0-0.1 0-0.1 0.1-0.2 1.7 0.5 3.4 0.9 5.1 1.5 1.1 0.4 1.5 1.4 1.2 2.2 -0.3 0.9-1.2 1.3-2.5 1C364.6 43.5 363 43.1 361.3 42.7zM371.4 57.9c-0.4 0.9-1.4 1.2-2.6 0.8 -1.5-0.5-3-1.1-4.5-1.6 -1.3-0.5-1.9-1.2-1.7-2 0.2-0.9 1-1.3 2.5-1.5 1.8 0.7 3.6 1.3 5.3 2.1C371.4 56.1 371.7 57.2 371.4 57.9zM391.1 202.5c0.6-0.4 1.4-0.1 1.9 0.5 1 1.3 2.1 2.5 2.9 3.9 0.3 0.5 0.3 1.4 0 1.9 -0.2 0.4-1 0.4-1.6 0.6 -0.1 0-0.3 0-0.4-0.1 -1.4-0.4-3.7-3.6-3.7-5.5C390.4 203.5 390.6 202.8 391.1 202.5zM379.7 194c-0.7 0.7-1.4 0.4-2.1 0 -1.9-1.1-2.7-2.8-3-5 0-0.8 0.4-1.6 1.3-1.8 1-0.3 1.5 0.3 2 1.2 0.5 1 1.1 1.8 1.6 2.8 0.2 0.3 0.4 0.5 0.5 0.8C380.2 192.6 380.3 193.3 379.7 194zM387.6 72.1c-0.3 0.5-1.1 0.6-1.5 0.9 -0.6-0.2-0.9-0.2-1.1-0.4 -1.4-0.9-2.7-1.8-4-2.7 -0.3-0.2-0.5-0.6-0.7-0.9 -0.5-1.2 0.2-2.2 1.5-2.2 0.2 0 0.5 0 0.7 0.1 2 0.8 3.8 1.7 5 3.6C387.7 70.9 387.8 71.8 387.6 72.1zM397.4 225.3c-0.1 0.4-0.9 0.7-1.4 1 -0.8-0.4-1.5-0.5-2-0.9 -2.3-2-4-4.5-4.8-7.5 -0.3-1.2 0-2 0.8-2.4 0.9-0.4 1.8 0 2.5 1.1 0.9 1.6 1.7 3.1 2.6 4.6 0.5 0.8 1.5 1.4 2 2.2C397.5 223.9 397.6 224.7 397.4 225.3zM396.2 198.1c-1.5 0.2-3.4-1.5-3.1-2.9 0.1-0.5 0.6-1.1 1-1.3 1.1-0.5 3.6 1.4 3.6 2.5C397.7 197.2 397.1 197.9 396.2 198.1zM397 52.2c-1.1-0.3-2.2-0.7-3.3-1.1 -0.9-0.4-1.3-1.1-1-2.1 0.2-0.8 1-1.2 2.4-1.1 0.8 0.3 2 0.6 3.1 1.2 1 0.5 1.3 1.5 0.9 2.3C398.7 52.4 397.8 52.5 397 52.2zM402.3 179.1c-1.4-0.1-3.7-2.7-3.5-4.1 0.1-0.5 0.4-1.2 0.8-1.2 0.6-0.1 1.5-0.1 1.9 0.2 1 0.9 1.8 1.9 2.4 3.1C404.5 178 403.5 179.2 402.3 179.1zM422.6 70.9c-0.3 0.8-1.1 1.1-2.1 0.9 -0.4-0.1-0.9-0.3-1.3-0.5 -1.3-0.5-2.5-0.6-3.7 0.2 -1 0.7-1.9 0.5-2.5-0.2 -0.5-0.8-0.4-2 0.4-2.7 1.1-1.1 2.6-1.3 4.2-1.3 1.5 0.2 3.1 0.5 4.4 1.6C422.5 69.4 422.9 70 422.6 70.9zM432.2 222.9c-1-0.6-2-1.5-3-2.2 -0.5-0.4-1-0.7-1.5-1.1 -0.9-0.9-1.1-1.9-0.4-2.7 0.6-0.7 1.5-0.8 2.5-0.1 1.3 0.9 2.7 1.8 3.9 2.9 0.6 0.5 0.9 1.2 1.1 1.5C434.9 223.1 433.5 223.8 432.2 222.9zM439.9 243.1c1.4 1.8 2.7 3.5 3.9 5.4 0.6 1-0.1 2.1-1.5 2.2 -0.3-0.1-0.9-0.3-1.3-0.7 -1.2-1.4-2.4-2.8-3.4-4.3 -0.7-1-0.4-2.1 0.5-2.6C438.7 242.6 439.4 242.5 439.9 243.1zM466.7 87.5c-1 0.6-2 1.1-3 1.5 -0.8 0.3-1.6-0.2-1.8-1.1 -0.1-0.6 0-1.5 0.4-1.8 1-0.9 2.3-1.4 3.8-1.2 0.8 0.1 1.2 0.6 1.2 1.6C467.2 86.7 467 87.3 466.7 87.5zM469.5 78.6c-1.9 1-3.9 1.8-5.8 2.7 -0.8 0.4-1.5 0.2-2.1-0.4 -0.5-0.7-0.5-1.4 0-2.1 0.3-0.4 0.7-0.8 1.2-1 2-1 4-1.9 6.1-2.8 1.3-0.5 2.6 0.3 2.5 1.6C471.2 77.5 470.4 78.1 469.5 78.6z" class="a"/><path d="M356.3 211c-3.8 0.9-7.6 1.9-11.4 2.9 -7.2 1.8-14.1 4.5-21.5 5.4 -2.7 0.3-5.5 0.4-8.3 0.3 -3.1-0.1-6.3-0.6-9.4-1 -2.5-0.3-5.1-0.6-7.6-1 -4.8-0.9-9.5-2.2-14.4-2.1 -0.6 0-1.2-0.1-1.8 0 -0.5 0.1-0.8 0.4-0.7 1 0.7 3.2 1.3 6.3 1.9 9.5 0.2 1.2 0.2 2.4 0.3 3.6 0.1 2.3 0.2 4.6 0.4 6.9 0.2 2.4 0.7 4.7 0.7 7.1 0 4.8 1.4 9.1 3.1 13.4 1.5 3.7 3.1 7.4 4.4 11.2 0.9 2.5 1.3 5.2 1.8 7.9 0.7 3.8 1.1 7.6 2 11.4 0.6 2.5 0 4.5-1.2 6.6 -0.3 0.5-0.7 0.7-1 0.9 -0.6 0.5-1.4 1-2.2 1.4 -1.4 1.1-3 1.7-4.7 2.2 -3.5 1.1-6.7 2.6-9.2 5.4 -2.7 3.1-2.9 6.7-0.1 9.7 1.3 1.5 2.9 2.4 4.8 3.1 2 0.8 3.9 1.3 6 1.6 2.1 0.2 4.3 0.4 6.4 0.5 2.1 0.1 4.2 0 6.2 0.3 0.3 0 0.6 0.1 0.9 0.1 0.1 0 0.2-0.1 0.3-0.1 5.1 0 10.2 0 15.2 0 3.6-0.5 7.1-1.2 10.5-2.2 4.1-1.3 7.9-2.9 11.7-4.6 0.3-0.4 0.7-0.7 1.1-1.1 2.6-2.8 3.2-6 2.3-9.6 -0.4-1.9-0.8-3.8-0.9-5.7 0-0.5 0-0.9 0-1.4 -0.1-0.7-0.2-1.4-0.3-2.1 -0.4-2.2-0.3-4.5 0-6.8 -0.3-4.4-0.1-8.9 0.7-13.2 0.5-6.1 2-12.5 4.3-18.3 0.3-0.8 0.6-1.7 0.9-2.5 1.2-6.6 2.7-13.2 4.8-19.5 0.6-2.3 1.4-4.5 2.3-6.6 1.3-4.8 2.4-9.7 3.3-14.5C357.3 210.8 356.9 210.8 356.3 211zM332 257.4c-0.2 0.5-0.8 1-1.3 1 -0.5 0.1-1.3-0.3-1.5-0.7 -0.7-1.8-1.2-3.6-1.6-5 0-1.3 0-2.2 1.1-2.5 0.9-0.2 1.8 0.2 2.2 1.2 0.5 1.4 0.9 2.8 1.3 4.2C332.3 256.2 332.3 256.9 332 257.4zM333.7 248.2c-1 0.1-2.7-1.3-2.7-2.4 -0.1-0.9 0.6-1.6 1.5-1.7 1.1 0 2.7 1.3 2.8 2.3C335.4 247.2 334.6 248 333.7 248.2zM340.9 237.3c-0.5 0.1-1.2 0-1.7-0.3 -1.3-0.9-1.6-2.4-2-4.1 0.3-0.4 0.6-1.2 1.1-1.3 0.5-0.2 1.6 0 1.8 0.5 0.8 1.1 1.3 2.4 1.8 3.7C342.1 236.4 341.6 237.1 340.9 237.3z" class="a"/><path d="M251.6 281.5c-0.2-1.1-0.4-2.1-0.7-3.2 -1.3-3.8-2.2-7.7-2.7-11.7 -1-4-2-8-3-12 -0.6-2.5-1.1-5-1.7-7.4 -0.2-0.8-0.9-1.7-0.8-2.4 0.4-1.9-0.3-3.7-0.2-5.5 0-1.9 0-3.8-0.1-5.7 -0.5-3.3-0.9-6.6-1.1-9.9 -0.3-1.7-0.6-3.3-0.8-5 -0.1-0.4-0.2-0.7-0.2-1.1 -0.2-4.1-1.1-3.5-3.9-4.2 -0.2-0.1-0.4-0.1-0.7-0.2 -4-0.7-8-1.4-12.1-2.1 -1.6-0.3-1.7-0.2-2.4 1.3 -2.9 6.2-5.7 12.3-8.7 18.5 -4.5 9.3-9.6 18.4-12.9 28.2 -0.5 1.5-0.5 2.7 0.7 3.8 2 1.9 3.8 4.1 6 5.8 2.5 2 4.9 4 6.9 6.5 2.1 2.7 4.4 5.2 6.5 7.9 0.8 1 1.3 2.3 1.5 3.6 0.7 3.3 1 6.6 0.1 9.9 -0.3 1.2-0.7 2.4-1.3 3.4 -0.8 1.3-2 2.4-3 3.5 -1.9 1.9-3.9 3.7-5.8 5.7 -1.1 1.1-1.9 2.6-1.7 4.2 0.1 1.4 0.7 2.9 1.4 4.1 1.7 2.9 4 5.1 7.8 5 0.5 0 0.9 0.1 1.4 0.2 1.4 0.5 2.8 0 4.1-0.5 3.6-1.5 6.8-3.6 10-5.8 3.9-2.8 7.6-5.8 10.7-9.5 2.4-2.8 4.6-5.8 5.5-9.5 0.9-4 2.1-7.9 1.9-12.1C251.9 283.7 251.7 282.6 251.6 281.5zM225.3 237.4c0.3-0.5 1.1-1 1.6-1 1.9 0 3.6 0.7 4.9 2.2 0.3 0.4 0.5 1.2 0.3 1.6 -0.2 0.4-0.9 0.7-1.4 1 -1.7-0.7-3.2-1.3-4.8-2C225.2 238.8 224.8 238 225.3 237.4zM227.4 248.7c0.3-0.9 1.3-1.5 2-1 1.7 1.3 3.6 2.4 4.6 4.5 0.1 0.3 0.2 0.6 0.4 1.1 -0.3 0.4-0.5 1-1 1.3 -0.4 0.2-1.1 0.1-1.5-0.1 -1.3-1-2.6-2.2-3.8-3.3C227.3 250.4 227.2 249.6 227.4 248.7zM236.8 266.7c-0.6 0.5-1.7 0.3-2.5-0.4 -1.1-1-2.4-2-3.4-3.1 -0.4-0.4-0.7-1.3-0.6-1.8 0.1-0.5 0.9-0.8 1.3-1.2 0.8 0.2 1.4 0.2 1.8 0.5 1.3 1.1 2.6 2.2 3.6 3.5C237.8 265 237.5 266.2 236.8 266.7z" class="a"/><path d="M57.7 30.5c-0.3-1.3-0.6-2.5-0.8-3.8 -0.1-1-0.3-2-0.1-2.9 0.5-2.5 1.2-4.9 1.9-7.4 0.1-0.5 0.4-1 0.7-1.4 1.9-2.4 3.9-4.5 6.6-6 1.7-0.9 3.5-0.9 5.2-0.8 3.7 0.2 7.1 1.2 10.3 3.1 1.7 1 3.1 2.3 4.2 3.9 0.9 1.3 1.8 2.7 2.6 4.1 0.6 1.1 0.3 1.6-0.9 1.9 -5 1.3-9.7 3.4-14.5 5.3 -4.5 1.8-8.8 4.2-12.8 7 -0.2 0.2-0.5 0.4-0.7 0.6 -1 0.6-1.6 0.3-1.8-0.9 -0.1-0.8 0-1.7 0-2.5C57.6 30.6 57.6 30.5 57.7 30.5z" class="a"/><path d="M9.1 101.8c0.3 1.7 0.5 3.2 0.7 4.7 0.3 1.8 0.2 2.1-0.8 2.5 -1.1 0.5-2.7 0.1-3.3-0.9 -0.4-0.6-0.7-1.4-0.9-2.1 -0.6-2.1-1.2-4.3-1.7-6.5 -0.6-2.3-1-4.7-1.6-7 -0.6-2.2 0-3.8 1.7-5.1 1.1-0.8 2.2-1.7 3.4-2.4 2.4-1.3 4.6-1.6 6.4 1.6 0.9 1.5 2.1 2.9 3.3 4.2 2.6 2.9 3 5.6 1 8.8 -0.9 1.4-1.9 2.8-3 4.1 -0.2 0.3-0.8 0.4-1.1 0.6 -0.1-0.4-0.4-0.8-0.4-1.2 0-0.8 0.3-1.7 0.4-2.5 0-0.8 0-1.7-0.3-2.5 -0.2-0.5-0.8-0.9-1.3-1.1 -0.7-0.2-1.4 0.3-1.6 1C9.6 99.3 9.4 100.6 9.1 101.8z" class="a"/><path d="M66.5 74.6c0.1-3.3 1-4.6 3.2-5.1 0.2 0 0.3-0.1 0.5-0.1 2.3 0 3.6 1.7 4.8 3.3 1 1.3 0.7 2.8 0 4.1 -0.3 0.5-0.7 0.9-1.1 1.1 -1.7 1.1-3.4 0.6-5-0.2C67.2 76.8 66.5 75.6 66.5 74.6zM71.1 74.6c0.8 0 1.5-0.7 1.6-1.4 0.1-0.7-0.6-1.5-1.4-1.6 -0.8-0.1-1.7 0.7-1.7 1.5C69.6 73.8 70.4 74.5 71.1 74.6z" class="a"/></svg>