<svg xmlns="http://www.w3.org/2000/svg" viewBox="0 0 400 300"><style>.a{fill:#FDB3D0;}</style><path d="M327.2 143.3c1.2 2.7 3.1 3.8 5.9 4.1 19.5 2.4 39 4.9 58.5 7.5 4.7 0.6 4.7 0.6 4.5 5.3 -0.1 2.5-0.1 5 0 7.5 0 1.9-0.7 2.8-2.7 2.7 -6.5-0.1-13.1-0.1-19.6-0.1 -9.2 0-18.4-0.1-27.7-0.1 -9.1 0-18.1 0.1-27.2 0.4 -10.4 0.3-20.8 0.9-31.2 1.3 -2.7 0.1-5.4 0.1-8-0.3 -2.2-0.4-3.7 0.3-5.5 1.5 -8.4 5.9-17 11.6-27 14.1 -4.7 1.2-9.6 1.3-14.4 1.7 -4.9 0.4-6.3 2.6-4.1 6.9 4.4 8.2 11.3 13.6 19.3 18 7.7 4.2 16 6.9 24.5 9.2 11.2 3 22.4 6.1 33.7 8.4 7.2 1.5 14.7 1.3 22 2.2 6.5 0.8 13 2 19.4 3 4.5 0.7 8.9 1.6 13.3 2.1 2.5 0.3 3.9 1.1 4.4 3.8 0.5 3.1 0.2 5.7-2.4 7.7 -0.9 0.7-2.1 1-3.2 1.5 -3.1 1.2-6.3 2.2-9.4 3.5 -1.8 0.8-3.4 2-5.2 2.9 -3.6 1.8-7.1 4-10.9 5 -6.1 1.6-11.4 4.8-16.9 7.7 -11.4 6-22.4 12.9-35 16.4 -6.5 1.8-13.1 3-19.6 4.3 -8.2 1.7-16.5 3.3-24.7 4.7 -2.6 0.5-5.4 0.6-8 0.3 -8-0.9-16.1-1.4-23.8-4 -3.2-1.1-6.5-1.6-9.7-2.6 -2.6-0.8-5.2-1.6-7.5-2.9 -10.1-6-20.7-11.3-28.9-19.9 -5.2-5.4-9.8-11.5-14.3-17.5 -1.5-2.1-2.3-4.8-3-7.4 -3.2-12-8.2-23.5-9.6-35.9 -0.2-2.1-0.2-4.4 0-6.5 1-7.2 0.7-14.4 0.1-21.5 -0.1-1.5-1.7-3.1-3-4.3 -1.9-1.8-4.1-3.4-6.3-4.9 -1.4-0.9-2.9-1.9-4.5-2 -5.5-0.6-11.1-1.2-16.5 0.5 -10.8 3.4-21.3 1.8-31.4-2.9 -5.9-2.7-11.9-5.5-17.3-9.2 -6.7-4.5-11.5-10.8-12.6-19.2 -0.4-3.4-0.5-3.4-3.9-3.8 -9.5-1.2-19-2.4-28.5-3.6 -0.8-0.1-1.7-0.2-2.5-0.4 -1.6-0.4-3.5-0.6-3.7-2.8 -0.2-2.3 0.1-4.5 2.5-5.6 3.7-1.7 7.4-3.3 11.1-4.8 5.9-2.3 11.9-4.6 17.9-6.8 1.9-0.7 3.8-1.2 5.7-1.9 2.9-1 5.3-2.4 6.3-5.8 1.6-5.3 5.2-9.3 10.2-11.9 2.3-1.2 4.3-3.1 6.4-4.7 4.9-3.8 11-4.9 16.6-6.8 3-1 6.6-2.1 9.7-2 10.7 0.3 20.9 2.9 29.4 10.2 2.9 2.5 6.1 4 10 4.4 2.2 0.2 4.2 1 6.4 1.5 1.4 0.3 2.3-0.1 2.5-1.6 0.7-6 1.4-11.9 2.2-17.9 0.1-0.8 0-1.7 0.3-2.5 2.1-5.5 3.9-11.1 6.5-16.4 2.2-4.5 5.2-8.6 8.2-12.6 3.1-4.1 5.6-8.7 9.6-12.1 5.4-4.5 9.4-10.6 16.5-12.9 0.9-0.3 1.8-1 2.5-1.7 3.7-3.8 8.5-5.5 13.4-6.7 7.1-1.8 14.3-3.3 21.8-3.5 7.5-0.2 15-1.4 22.6-1.9 6.7-0.4 13.4-0.7 20 1.2 0.5 0.1 1 0.3 1.5 0.2 6.5-0.8 12.2 1.8 18 3.8 4.9 1.7 9.9 3.2 14.8 5 3.3 1.2 6.4 2.8 9.6 4.2 4.9 2.2 9.8 4.4 14.7 6.7 4.4 2.1 8.6 4.6 13.1 6.3 5.9 2.3 12.1 4 18.2 5.9 10.1 3.1 20.2 6.2 30.2 9.4 2.7 0.9 4.5 4.2 4.1 6.7 -0.6 3.8-3.3 6.3-6.8 6.1 -6-0.4-12.1-1-18.1-1.7 -14.9-1.9-29.9-1.1-44.7 0.8 -6.4 0.8-12.6 3.3-19.1 4.5 -9.8 1.8-19.1 5-28.3 8.8 -5.2 2.1-9.9 5-14.2 8.4 -3.3 2.6-6.5 5.3-10.1 8.3 1.2 0.5 1.9 0.8 2.6 1 10.8 3.3 19.5 9.7 26.5 18.3 1.8 2.2 3.8 3.2 6.4 3.3 6.7 0.4 13.4 0.7 20.1 1.3 8.5 0.7 17 1.7 25.6 2.2 7.9 0.5 15.8 0.5 23.7 0.8 2.9 0.1 5.7 0.4 8.6 0.6 11.1 0.8 22.1 1.6 33.2 2.4 4.5 0.3 6.1 2 6.6 6.5 0.2 1.7 0.1 3.4 0.1 5 0 3.4-0.2 3.7-3.5 4.3 -5.1 0.8-10.3 1.6-15.4 2.3 -13.8 1.9-27.6 3.9-41.4 5.7C333.4 140.2 330.2 141 327.2 143.3zM109.3 116.4c0.1-0.8 0.2-1.7 0.3-2.5 0.5-6.4-1.2-9.3-7-11.8 -1.1-0.5-2.3-0.8-3.2-1.4 -5-3.4-10.2-3.3-15.8-1.6 -9 2.7-14.7 8.7-17.5 17.3 -2 6.3-2.2 12.6 3 17.9 4.6 4.6 12.7 8.5 20.7 4.8 3.5-1.6 6.8-3.5 10-5.7C105.7 129.3 108.8 123.5 109.3 116.4zM231.9 22.3c4.9-0.3 9-0.6 13.2-1 0.7 0 1.3-0.3 1.9-0.6 1.4-0.7 2.8-1.8 2-3.5 -0.4-0.9-2.1-1.8-3.2-1.7 -4.3 0.1-8.7 0.6-13 0.9 -0.3 0-0.7 0.1-1 0.2 -1.4 0.7-2.9 1.7-2.2 3.4C230 21.1 231.3 21.8 231.9 22.3zM282.7 51.2c0-1.9-1.5-3.2-3.3-2.4 -5.2 2.3-10.2 4.8-15.2 7.4 -1.3 0.7-1.9 2.2-0.8 3.4 0.6 0.7 2.3 1 3 0.7 5-2.2 10-4.6 14.8-7.1C282 52.8 282.4 51.7 282.7 51.2zM255.1 39c0.3-2-1-3.5-2.7-3.2 -4.7 0.8-9.4 1.8-14.1 3.1 -0.8 0.2-1.8 2-1.6 2.6 0.4 1 1.8 2.5 2.6 2.4 4.6-0.7 9.1-1.7 13.6-2.9C253.8 40.6 254.5 39.4 255.1 39zM227.6 277.9c0.9-0.5 2.2-0.9 2.8-1.8 0.9-1.2 0.2-2.6-1-3.5 -0.5-0.4-1.1-0.8-1.7-1.1 -3.3-1.5-6.6-3.1-10-4.5 -1.8-0.8-3.7-0.1-4.2 1.5 -0.7 1.8 0.4 3 1.8 3.7C219.2 274 223.2 275.8 227.6 277.9zM156.3 103.6c0-0.1 0-0.1 0-0.2 -3.2 0.1-6.3 0.2-9.5 0.3 -1.9 0.1-3.5 0.8-3.5 2.8 0 2 1.5 2.9 3.4 2.9 3.5 0.1 7 0.1 10.5 0 1.1 0 2.4-0.3 3.4-0.8 0.7-0.4 1.4-1.6 1.4-2.4 0-0.7-0.9-1.8-1.7-2.1C159 103.7 157.6 103.7 156.3 103.6zM281 16c-4.3 0.4-7.9 0.8-11.5 1.2 -1.7 0.2-2.7 1.3-2.6 3.1 0.1 1.8 1.3 2.7 3 2.6 3.7-0.2 7.3-0.4 10.9-0.9 2-0.2 3.5-2.1 2.9-3.3C283.2 17.5 281.8 16.8 281 16zM229.7 249.2c-1 0.6-2.6 0.9-3.2 2 -1.1 1.8 0.2 3.2 1.9 3.9 3.2 1.4 6.4 2.8 9.7 4 0.9 0.3 2.7-0.1 3-0.7 0.5-1 0.1-2.4-0.1-3.6 -0.1-0.4-0.6-0.8-1.1-1C236.6 252.2 233.4 250.9 229.7 249.2zM262.7 279.4c1.5 0 3.4 0.2 5.1-0.1 1.8-0.3 3.5-0.9 5.1-1.8 0.7-0.3 1.2-1.7 1-2.5 -0.2-0.7-1.3-1.8-2-1.8 -4.1 0-8.2 0.2-12.4 0.4 -0.3 0-0.7 0.2-0.9 0.4 -0.5 0.8-1.4 1.6-1.4 2.4 0 0.8 0.9 1.8 1.6 2.2C260 279.1 261.2 279.1 262.7 279.4zM309.8 43.7c4.9-0.4 9-0.7 13.1-1.1 0.7-0.1 1.3-0.3 1.9-0.5 1.5-0.5 2.2-1.8 1.6-3.1 -0.4-0.8-1.7-1.6-2.6-1.6 -4.5 0.3-8.9 0.9-13.3 1.4 -1.5 0.2-2.8 0.9-2.5 2.4C308.1 42.2 309.3 43.1 309.8 43.7zM283.9 36c4.1-0.3 7.4-0.6 10.7-0.9 0.7-0.1 1.5-0.1 1.9-0.5 0.7-0.8 1.6-1.9 1.5-2.8 -0.1-0.9-1.4-2.2-2.1-2.2 -4 0.1-7.9 0.4-11.9 0.9 -1.6 0.2-2.8 1.7-2.2 3.3C282.1 34.8 283.4 35.5 283.9 36zM303.3 258.2c2.2-0.2 4.9-0.3 7.5-0.8 1.7-0.3 3.3-1.4 3.1-3.4 -0.2-2.2-2.1-2.3-3.8-2.2 -2.8 0.1-5.6 0.3-8.5 0.2 -1.7 0-3.4 0.4-3.4 2.1 0 1.2 1.3 2.5 2.3 3.4C301 258 302 258 303.3 258.2zM279.2 256.7c-0.3-0.6-0.6-1.9-1.4-2.5 -2.4-1.9-5-3.8-7.7-5.4 -1.6-1-3.4 0.3-3.4 2.2 0 1.1 0.4 2.6 1.1 3.1 2.5 1.9 5.2 3.6 8 5C277.3 259.9 278.9 258.7 279.2 256.7zM158.6 118c-1.6 0.2-3.4 0.1-4.9 0.7 -0.8 0.3-1.9 1.7-1.8 2.5 0 0.8 1.2 2 2.1 2.3 2.7 0.8 5.5 1.4 8.3 1.8 0.8 0.1 2.3-0.3 2.6-0.9 0.4-0.9 0.4-2.3-0.1-3.2C163.4 118.9 161.1 118.4 158.6 118zM254.6 131.4c-0.1-0.4-0.2-1.2-0.6-1.7 -2-2.6-4.9-3.5-7.9-3.9 -0.7-0.1-2 1.2-2.4 2.1 -0.3 0.7 0.3 2.2 0.9 2.6 2 1.2 4.1 2.2 6.3 3C252.6 134.2 253.8 133.2 254.6 131.4zM281.2 233.1c-1.3 0.8-2.9 1.2-3.5 2.2 -1 1.5 0 2.9 1.5 3.7 1.5 0.8 3 1.5 4.4 2.3 1.4 0.8 2.6 0.6 3.6-0.6 1.1-1.3 0.7-2.7-0.3-3.6C285.3 235.6 283.4 234.6 281.2 233.1zM175.8 137c0 0 0 0.1 0 0.1 -0.3 0-0.7-0.1-1-0.2 -1.6-0.2-3.1-0.2-3.6 1.8 -0.4 1.9 0.7 2.8 2.3 3.3 1.8 0.5 3.6 1 5.4 1.3 1.5 0.2 2.6-0.4 3-2 0.4-1.6-0.4-2.7-1.7-3.2C178.8 137.6 177.2 137.4 175.8 137zM256.7 234.6c0.1-2.1-2.8-5.8-5-6.3 -2.1-0.5-4 1.2-3.1 3.1 1 2 2.7 3.8 4.4 5.2C254.6 237.7 256.6 236.4 256.7 234.6z" class="a"/><path d="M71.2 120c1.2-5.8 4.8-11.6 12.2-14.7 3.1-1.3 6.2-1.3 9.3-0.1 2.2 0.9 4.4 1.8 6.6 2.4 2.8 0.8 4.1 2.6 4 5.5 -0.1 4.5-1.2 8.7-4.2 12.1 -4 4.5-9.1 7.5-15 8.7C77.5 135.4 70.2 128.5 71.2 120zM90.8 118.1c0.2-1.8-0.9-3.1-2.8-3.3 -2.2-0.3-3.7 0.8-3.9 2.7 -0.2 1.8 0.9 3.1 2.8 3.4C89 121.1 90.6 120 90.8 118.1z" class="a"/></svg>