<?xml version="1.0" encoding="utf-8"?>
<!-- Generator: Adobe Illustrator 16.0.0, SVG Export Plug-In . SVG Version: 6.00 Build 0)  -->
<!DOCTYPE svg PUBLIC "-//W3C//DTD SVG 1.1//EN" "http://www.w3.org/Graphics/SVG/1.1/DTD/svg11.dtd">
<svg version="1.1" id="Layer_1" xmlns="http://www.w3.org/2000/svg" xmlns:xlink="http://www.w3.org/1999/xlink" x="0px" y="0px"
	 width="645px" height="728px" viewBox="0 0 645 728" enable-background="new 0 0 645 728" xml:space="preserve">
<g>
	<path fill="#FDB3D0" d="M298.54,1.04c6.61,0,13.22-0.12,19.83,0.05c3.64,0.1,7.26,0.78,10.91,1.03c4.01,0.27,8.04,0.27,12.06,0.52
		c7.32,0.44,14.66,0.71,21.94,1.52c13.83,1.55,27.64,3.26,41.42,5.24c7.97,1.14,15.82,3.02,23.76,4.38
		c3.42,0.59,6.92,0.67,10.38,1.03c11.3,1.18,22.52,2.22,33.08,7.36c6,2.92,12.88,4.05,19.36,5.98c0.7,0.21,1.45,0.34,2.1,0.66
		c16.02,8.01,32.85,14.57,46.74,26.36c7.96,6.75,15.84,13.61,24.07,20.01c6.79,5.28,14.15,9.81,21.05,14.96
		c5.42,4.04,10.59,8.42,15.72,12.82c3.32,2.85,6.18,6.24,9.58,8.97c4.16,3.33,5.73,7.91,7.15,12.67c0.26,0.87,0.21,1.89,0.66,2.64
		c3.16,5.34,6.28,10.72,9.73,15.87c0.91,1.36,2.91,2.06,4.49,2.9c1.94,1.03,4.1,1.68,5.93,2.86c3.75,2.42,5.05,5.87,4.1,9.94
		c-1.33,5.66-2.89,6.17-7.36,2.41c-3.1-2.6-6-5.51-9.38-7.66c-4.44-2.83-9.04-5.73-13.99-7.36c-7.81-2.59-15.99-4.02-23.95-6.19
		c-11.85-3.22-23.58-6.95-35.48-9.94c-20.84-5.24-41.91-9.46-63.44-10.22c-15.79-0.56-31.5,1.26-47.17,3.32
		c-9.45,1.24-18.96,1.99-28.45,2.86c-5.11,0.47-10.25,1.1-15.37,1.01c-9.72-0.16-19.44-0.6-29.14-1.25
		c-12.44-0.84-24.84-2.25-37.29-2.96c-17.43-1-34.7-2.97-51.66-7.22c-13.58-3.41-27.39-5.57-41.36-5.51
		c-15.27,0.06-30.32,2.52-45.11,6.39c-27.89,7.29-56.3,12.08-84.66,16.97c-13.52,2.33-27.33,3.01-40.96,4.74
		c-11.09,1.41-22.12,3.28-33.18,4.92c-2.54,0.38-5.09,0.64-7.63,1.02c-7.93,1.21-15.21,4.02-21.75,8.73
		c-0.9,0.64-2.2,0.72-3.31,1.06c-0.25-1.23-0.95-2.59-0.66-3.68c0.97-3.72,1.95-7.5,3.53-10.98c4.49-9.86,9.37-19.61,16.78-27.64
		c5.21-5.64,10.78-11.1,16.91-15.67c8.05-6.01,16.91-10.91,25.2-16.61c3.6-2.47,6.93-5.48,9.88-8.71
		c7.25-7.95,16.11-13.76,24.78-19.92c14.06-9.98,29.57-16.86,45.66-22.67c2.52-0.91,4.75-2.74,7.31-3.43
		c5.47-1.46,11.02-2.68,16.61-3.58c10.51-1.68,20.91-3.67,31.04-7.11c12.18-4.14,24.76-6.51,37.61-7.83
		C257.21,3.96,277.74,0.86,298.54,1.04 M465.23,92.07c-1.64,0-3.28,0.01-4.93,0c-7.19-0.06-7.64,0.35-9.08,7.14
		c-0.65,3.06,0.11,5.55,2.89,6.96c2.68,1.37,5.46,3.17,8.51,0.31c0.92-0.87,2.54-1.34,3.86-1.37c4.65-0.09,7.92-2.22,10.35-6.05
		c2.52-3.96,1.35-6.6-3.4-6.96C470.72,91.9,467.97,92.07,465.23,92.07 M231.64,49.11c4.47,0.25,7.82-1.9,10.94-4.56
		c3.44-2.92,4.21-8.25,1.42-11.65c-0.91-1.12-3.06-2.48-4.01-2.11c-5.72,2.22-11.57,4.42-16.74,7.63c-3.43,2.12-2.26,7.18,1.58,8.83
		C226.97,48.18,229.36,48.51,231.64,49.11 M104.48,109.91c7.34-0.5,10.96-3.5,12.01-10.31c0.81-5.19-0.5-6.73-5.73-6.68
		c-6.13,0.06-11.28,3.11-16.38,5.88c-3.5,1.9-2.74,7.26,1.13,8.8C98.36,108.74,101.48,109.17,104.48,109.91 M386.11,96.33
		c-4.67,0.24-9.96,1.56-14.79,4.42c-2.01,1.19-3.74,3.17-2.71,5.41c0.79,1.72,2.79,3.43,4.61,4c2.16,0.67,4.73,0.35,7.06,0.02
		c2.89-0.42,5.73-1.22,8.56-1.98c4.31-1.15,7.02-3.95,6.78-6.85C395.35,98.14,392.18,96.3,386.11,96.33 M329.95,72.99
		c-5.92-0.02-10.66,2.17-13.78,7.37c-1.43,2.38-1.98,5.19-0.11,7.15c1.26,1.33,3.89,1.99,5.85,1.88c3.05-0.17,6.05-1.26,9.07-1.95
		c1.23-0.28,2.62-0.26,3.65-0.88c1.87-1.12,3.65-7.48,2.93-9.52C336.54,74.19,334.39,73.04,329.95,72.99 M149.2,52.82
		c0.78,7.49,4.8,9.84,11.19,6.5c4.09-2.14,6.76-5.23,7.88-9.93c1.29-5.4-2.98-7.81-6.35-6.77c-3.25,1-6.51,2.49-9.24,4.48
		C151.01,48.31,150.32,50.87,149.2,52.82 M295.41,21.43c-0.01-0.08-0.02-0.17-0.03-0.25c-2.7,0.4-5.38,0.88-8.09,1.17
		c-4.2,0.44-5.66,5.29-3.16,7.77c2.74,2.73,6.33,4.72,9.82,6.52c1.77,0.91,4.09-0.3,3.81-2.49c-0.4-3.14,1.58-3.92,3.44-5.39
		c1.06-0.84,2.11-2.99,1.74-4.03c-0.5-1.37-2.27-2.5-3.75-3.2C298.14,21.03,296.68,21.43,295.41,21.43 M212.8,74.48
		c0.97-0.81,2.59-1.51,3.07-2.69c0.85-2.06,0.05-4.42-2.21-4.87c-6.79-1.33-13.56-0.95-19.52,2.98c-3,1.98-2.81,5.29-0.11,7.36
		c3.34,2.56,11.92,1.77,14.01-1.78C209.28,73.38,210.16,72.81,212.8,74.48 M474.07,56.54c0.11-3.44-2.24-6.03-5.48-4.94
		c-3.89,1.31-7.56,3.53-11.01,5.83c-1.87,1.25-1.61,3.47-0.14,5.35c2.55,3.26,5.99,4.44,9.68,3.23
		C471.46,64.59,473.91,61.23,474.07,56.54 M378.71,76.9c5.63-0.32,11.1-5.02,11.57-10.34c0.23-2.63-0.97-4.12-3.66-4.44
		c-4.62-0.55-8.23,1.47-11.14,4.68c-1.7,1.89-5.37,3.63-3.58,6.58C373.04,75.25,376.37,75.78,378.71,76.9 M522.37,93.76
		c4.11-1.82,8.08-3.18,11.55-5.32c1.21-0.75,1.92-3.59,1.57-5.19c-0.29-1.3-2.56-3.12-3.86-3.05c-4.47,0.23-9.11,0.47-12.65,4.02
		c-1.75,1.75-2.66,3.88-1.48,5.89C518.37,91.57,520.42,92.35,522.37,93.76 M108.56,78.56c6.32,0,9.38-3.01,9.67-8
		c0.05-0.83,0.18-1.8,0.64-2.43c1.24-1.68,1.91-3.6-0.1-4.68c-1.31-0.69-3.67-0.64-4.95,0.11c-2.79,1.64-5.23,3.91-7.74,6
		c-1.79,1.49-3.29,3.59-1.85,5.68C105.41,76.98,107.71,77.94,108.56,78.56 M443.55,32.92c-0.06,0.16-0.12,0.33-0.19,0.49
		c-0.91,0.06-1.87-0.03-2.73,0.21c-2.98,0.84-3.61,3.59-3.97,6c-0.18,1.22,1.13,3.71,2.07,3.87c3.86,0.66,7.87,1.03,11.74,0.66
		c1.31-0.12,3.09-2.66,3.33-4.28c0.19-1.29-1.34-3.42-2.68-4.19C448.84,34.35,446.1,33.8,443.55,32.92 M603.65,117.29
		c0-0.06,0-0.13,0-0.19c-1.64,0.07-3.43-0.25-4.86,0.33c-1.29,0.53-2.79,1.9-3.12,3.18c-0.74,2.88,5.37,8.15,8.35,7.43
		c1.75-0.42,3.45-1.03,5.15-1.63c2.06-0.73,3.89-2.26,3.23-4.37c-0.57-1.81-2.26-3.6-3.94-4.62
		C607.27,116.71,605.28,117.29,603.65,117.29 M524.72,65.48c0.81-0.13,2.15-0.14,3.3-0.59c2.29-0.9,4.79-2.42,4.05-5.07
		c-0.55-1.97-2.51-4.31-4.37-4.95c-2.18-0.74-5.01-0.11-7.42,0.47c-2.34,0.56-3.67,2.38-3.19,5c0.46,2.52,1.67,4.46,4.42,4.93
		C522.42,65.43,523.34,65.4,524.72,65.48 M356.67,33.73c-4.65-0.05-6.24,1.16-6.35,4.83c-0.13,4.28,2.65,6.92,7.31,6.94
		c4.01,0.02,6.04-1.55,6.08-4.68C363.78,36.11,361.46,33.78,356.67,33.73 M579.29,119.61c2.98,0.03,5.63-1.85,5.94-4.17
		c0.38-2.86-1.38-4.62-3.76-5.25c-2.4-0.64-5.01-0.57-7.53-0.64c-2.24-0.06-3.98,1-4.35,3.28c-0.4,2.44,0.92,4.29,3.15,5.11
		C574.94,118.74,577.29,119.11,579.29,119.61 M164.99,90.25c1.55-0.85,4.07-1.43,4.93-2.95c0.73-1.29-0.04-3.87-0.87-5.5
		c-1.12-2.2-7.52-3.71-9.48-2.16c-1.4,1.11-2.51,3.16-2.75,4.92c-0.16,1.15,1.22,2.94,2.39,3.73
		C160.65,89.26,162.58,89.49,164.99,90.25 M56.45,125.2c1.55-0.72,3.96-1.8,6.33-2.97c1.67-0.82,3.56-1.78,2.83-4.06
		c-0.73-2.27-2.78-2.82-4.94-2.48c-3.06,0.49-6.17,0.93-9.11,1.85c-1.11,0.35-2.58,2.06-2.5,3.04c0.11,1.37,1.28,2.94,2.45,3.84
		C52.37,125.1,53.95,124.87,56.45,125.2 M246.46,66.54c-3.55,0.03-6.01,2.15-5.82,5.02c0.23,3.55,2.48,5.82,5.84,5.89
		c3.8,0.08,6.82-1.98,6.89-4.7C253.46,69.45,250.19,66.51,246.46,66.54 M203.84,24.66c0.01-3.14-2.4-4.68-4.96-3.49
		c-2.29,1.06-4.48,2.36-6.74,3.49c-2.26,1.14-3.34,3.63-2.35,5.84c1.06,2.38,3.33,2.57,5.1,1.66c2.86-1.48,5.45-3.53,8.03-5.5
		C203.54,26.19,203.66,25.08,203.84,24.66 M273.67,62.72c2.77-1.13,5.2-1.63,6.96-2.99c1.13-0.88,2.07-3.24,1.68-4.5
		c-0.4-1.28-2.51-2.81-3.91-2.84c-2.21-0.05-4.57,0.79-6.65,1.73c-1.93,0.87-3.3,2.83-2.22,4.89
		C270.32,60.51,272.2,61.45,273.67,62.72 M141.53,116.2c-0.27,2.72,0.57,3.9,3,4.22c3.04,0.4,8.25-3.64,8.46-6.56
		c0.15-2.1-1.65-3.41-5.15-3.75C143.41,109.67,142.04,111,141.53,116.2 M274.62,79.34c3.71-0.15,6.13-1.87,6.08-3.94
		c-0.07-2.51-1.5-3.98-4-4.42c-0.89-0.16-1.75-0.47-2.62-0.72c-2.06-0.6-4.06-0.73-5.26,1.46c-1.32,2.4,0,4.35,1.72,5.72
		C271.88,78.52,273.73,78.95,274.62,79.34 M413.87,31.08c2.77,0.18,4.69-1.36,4.94-3.95c0.27-2.79-1.66-4.88-4.6-4.96
		c-2.73-0.08-4.91,1.96-5.05,4.71C409.04,29.31,410.8,30.88,413.87,31.08"/>
	<path fill="#FDB3D0" d="M314.78,402.24c8.81,0.54,14.85,0.85,20.89,1.29c13.23,0.95,26.37,0.14,39.52-1.43
		c10.18-1.22,20.42-1.96,30.62-3.04c2.33-0.25,3.26,0.49,3.7,2.78c2.48,12.94,5.51,25.78,7.56,38.79
		c3.31,20.96,5.9,42.03,9.02,63.02c0.83,5.58,2.88,10.99,3.64,16.57c1.24,9.05,2.45,18.17,2.59,27.27c0.12,8-1.22,16.02-1.94,24.03
		c-0.75,8.37-1.01,16.83-2.42,25.09c-1.78,10.46-4.47,20.77-6.83,31.13c-0.53,2.31-1.34,4.56-2.01,6.84
		c-0.1,0.35-0.07,0.82-0.29,1.05c-3.39,3.56-4.91,7.92-6.48,12.52c-1.56,4.58-4.65,8.71-7.37,12.83
		c-6.46,9.78-15.37,17.13-24.62,24.08c-8.24,6.19-17.01,11.49-26.6,15.37c-3.04,1.23-5.99,2.77-8.82,4.43
		c-12.15,7.14-25.3,8.29-38.86,6.29c-2.91-0.43-6.91,1.45-8.69-2.83c-0.01-0.01-0.69,0.13-0.72,0.27c-0.85,4.57-4.13,1.96-6.5,2.37
		c-3.92,0.68-7.88,1.57-11.58,3.01c-2.86,1.11-5.51,2.97-7.95,4.88c-7.76,6.05-16,7.49-25.26,3.75
		c-8.99-3.64-18.11-6.96-26.45-11.99c-2.65-1.6-5.2-3.42-7.57-5.4c-3.07-2.56-5.78-5.54-8.91-8.02c-2.21-1.76-3.57-3.83-3.47-6.52
		c0.15-4.17,0.66-8.33,1.08-12.49c0.11-1.08,0.57-2.14,0.63-3.21c0.69-12.33,4.69-23.76,10.66-34.33
		c5.46-9.66,12.41-18.07,23.61-22.02c3.48-1.22,6.56-4,9.38-6.55c9.1-8.23,18.03-16.64,26.94-25.08c1.29-1.22,2.54-2.83,3.02-4.48
		c2.09-7.17,4.17-14.37,5.73-21.67c2.14-10.01,3.61-20.16,5.71-30.18c2.64-12.58,3.84-25.28,4.25-38.1
		c0.42-13.17,1.22-26.32,1.61-39.5c0.11-3.81-0.66-7.64-1-11.47c-0.96-10.77-1.82-21.55-2.9-32.31c-0.3-2.98,1.08-4.08,3.59-4.37
		C300,403.86,308.72,402.91,314.78,402.24 M220.43,668.36c0.12,2.59-0.14,4,0.31,5.12c0.72,1.81,1.62,3.72,2.97,5.07
		c1.51,1.51,3.71,1.79,5.45,0.13c1.55-1.47,0.43-2.9-0.35-4.43c-0.79-1.55-1.73-3.44-1.49-5.01c0.52-3.35,0.6-6.99,3.64-9.51
		c1.37-1.13,1.95-2.75,0.55-4.35c-1.47-1.68-3.42-1.62-4.94-0.4c-1.51,1.22-3.05,2.81-3.72,4.56
		C221.61,662.76,220.99,666.21,220.43,668.36 M321.89,692.6c6.02-0.06,9.75-1.4,12.18-5.01c0.64-0.95,0.64-2.87,0.09-3.88
		c-0.38-0.7-2.2-0.78-3.39-0.82c-0.63-0.02-1.36,0.51-1.92,0.96c-2.75,2.22-5.83,1.96-8.88,1.05c-2.08-0.62-4.05-1.65-6.07-2.5
		c-1.78-0.75-3.67-1.27-4.86,0.73c-1.29,2.16-0.31,4.11,1.72,5.02C314.9,690.02,319.18,691.54,321.89,692.6 M403.06,622.88
		c-1.53,0.72-2.54,0.9-3.1,1.5c-4,4.27-7.95,8.59-11.81,12.98c-1.3,1.48-1.81,3.39-0.17,4.92c1.59,1.48,3.46,1.08,4.9-0.38
		c3.59-3.65,7.17-7.32,10.58-11.14c0.92-1.03,1.73-2.63,1.66-3.92C405.07,625.54,403.85,624.29,403.06,622.88 M342.22,672.72
		c5.28,0.16,10.18-0.86,13.87-5.02c1.51-1.71,2.72-3.73,0.75-5.81c-1.91-2-3.74-0.69-5.2,0.77c-2.78,2.79-6.2,3.62-9.95,3.76
		c-1.44,0.05-3.11-0.11-4.25,0.56c-1.02,0.59-1.91,2.17-1.97,3.36c-0.04,0.75,1.42,1.99,2.42,2.29
		C339.22,673.02,340.77,672.72,342.22,672.72 M415.74,588.18c-0.21-1.16-0.07-2.5-0.67-3.23c-0.71-0.88-2.04-1.64-3.13-1.69
		c-0.81-0.04-2.36,1.09-2.42,1.79c-0.44,5.56-3.49,9.97-6.11,14.58c-0.93,1.63-1.12,3.52,0.67,4.26c1.21,0.5,3.53,0.22,4.37-0.65
		C412.48,599.04,414.77,593.88,415.74,588.18 M309.45,660.39c1.95-0.24,4.17-0.84,4.5-3.51c0.29-2.37-1.63-3.15-3.53-3.3
		c-3.08-0.25-4.03-1.93-3.9-4.75c0.08-1.79-0.51-3.32-2.64-3.46c-2.24-0.15-3.28,1.32-3.79,3.22
		C298.56,654.21,303.42,660.55,309.45,660.39 M333.75,449.67c-1.55,0.86-2.62,1.09-3.03,1.74c-1.8,2.89-2.4,5.97-1.22,9.34
		c1.24,3.52,3.88,5.28,7.31,5.66c1.11,0.12,3-0.91,3.38-1.87c0.38-0.97-0.31-3.26-1.15-3.66c-3.18-1.5-3.16-3.89-3.1-6.8
		C335.97,452.7,334.61,451.3,333.75,449.67 M264.35,632.51c-0.18,5.38,1.31,8.2,4.46,8.89c1.09,0.24,2.74-0.01,3.46-0.71
		c0.7-0.69,1.14-2.79,0.65-3.35c-2.45-2.77-2.01-5.64-1.11-8.76c0.58-2,0-3.75-2.28-4.24c-2.18-0.47-3.56,0.75-4.09,2.75
		C264.88,629.2,264.57,631.38,264.35,632.51 M374.52,590.76c1.68-0.89,3.71-1.46,4.93-2.78c0.88-0.95,1.23-3.06,0.83-4.36
		c-0.56-1.86-2.57-2.11-4.08-1.08c-1.85,1.26-2.84-0.04-4.3-0.63c-1.1-0.45-3.16-0.32-3.83,0.42c-0.75,0.81-0.92,2.84-0.44,3.96
		C368.8,589,371.16,590.33,374.52,590.76 M401.23,492.96c0.15-2.41-2.42-4.31-4.45-2.73c-2.76,2.15-4.92,5.14-7.02,8.01
		c-0.43,0.59,0.21,2.64,0.96,3.22c0.78,0.6,2.81,0.76,3.41,0.18c2.48-2.35,4.63-5.04,6.87-7.63
		C401.22,493.77,401.17,493.32,401.23,492.96 M402.2,559.21c2.46,0.04,8.51-5.74,8.62-8.24c0.1-2.32-2.58-4.21-4.49-2.78
		c-2.55,1.92-4.88,4.31-6.71,6.91C398.28,556.98,399.92,559.17,402.2,559.21 M241.82,677.1c-0.77,0.24-1.32,0.32-1.78,0.57
		c-1.84,1.04-2.52,4.92-1.35,7.48c1.17,2.56,4.09,4.12,6.2,3.05c0.81-0.41,1.89-1.74,1.73-2.38c-0.63-2.59-1.59-5.12-2.68-7.56
		C243.66,677.65,242.47,677.44,241.82,677.1 M343.08,648.72c2.92-0.02,5.08-0.15,5.39-2.78c0.3-2.53-1.41-3.43-3.64-3.77
		c-1.24-0.19-2.47-1.01-3.64-0.9c-1.26,0.12-3.31,0.8-3.49,1.59c-0.29,1.26,0.27,3.26,1.23,4.11
		C340.17,648.08,342.15,648.36,343.08,648.72 M269.53,677.47c-1.02-1.92-1.7-3.61-2.73-5.05c-1.78-2.45-5.14-2.08-5.85,0.79
		c-0.36,1.47,0.22,3.69,1.22,4.82c1.04,1.18,3.06,1.77,4.72,1.96C267.6,680.08,268.51,678.5,269.53,677.47"/>
	<path fill="#FDB3D0" d="M377.02,306.23c-7.31-0.6-14.97-1.3-22.65-1.84c-4.02-0.29-8.06-0.47-12.09-0.42
		c-12.67,0.16-25.34,0.59-38.01,0.64c-6.22,0.03-12.43-0.58-18.65-0.84c-2.94-0.12-2.93-2.02-2.92-4.21
		c0.06-11.36-0.14-22.72,0.11-34.08c0.29-13,0.51-26.04,1.62-38.99c0.64-7.43,3.48-14.66,4.43-22.09
		c1.73-13.48,2.45-27.05,1.55-40.66c-0.79-12.08-1.49-24.16-2.32-36.24c-0.13-1.92,0.63-2.14,2.24-1.92
		c7.26,1.02,14.52,2.09,21.81,2.91c6.92,0.78,13.87,1.32,20.82,1.89c12.61,1.03,25.22,2.03,37.83,2.99
		c5.49,0.42,10.99,0.67,16.48,1.07c4.15,0.3,4.56,0.63,5.07,4.79c0.49,4,0.74,8.03,1.08,12.05c1.19,14.44,2.37,28.88,3.57,43.32
		c1.01,12.25,2.04,24.49,3.06,36.73c0.9,10.75,1.75,21.51,2.71,32.26c0.6,6.74,1.84,13.47,1.91,20.21
		c0.05,5.79-1.21,11.59-1.78,17.39c-0.26,2.58-1.75,3.29-4.07,3.44C391.7,305.08,384.57,305.66,377.02,306.23 M380.99,252.21
		c-1.12-1.41-1.92-3.33-2.99-3.49c-1.18-0.18-3.04,0.94-3.84,2.05c-1.14,1.59-1.91,3.62-2.23,5.56c-0.19,1.16,0.46,3.15,1.34,3.61
		c0.96,0.5,3.2,0.12,3.85-0.7C378.66,257.3,379.58,254.88,380.99,252.21"/>
	<path fill="#FDB3D0" d="M254.42,123.74c-2.57,15.9-4.9,31.84-7.81,47.68c-1.92,10.45-4.72,20.73-6.99,31.11
		c-0.59,2.7-1.38,3.61-4.44,2.81c-2.89-0.76-6.16-0.69-9.17-0.29c-4.63,0.62-9.12,0.87-13.54-0.88c-0.34-0.13-0.67-0.32-1.02-0.41
		c-5.06-1.22-5.2-1.26-3.9-6.01c6.84-24.96,11.71-50.34,15.9-75.85c0.46-2.8,1.32-3.77,3.99-3.76c7.12,0.02,14.25-0.27,21.36-0.1
		C254.87,118.19,253.56,119.02,254.42,123.74"/>
	<path fill="#FDB3D0" d="M332.74,396.17c-2.58-0.23-5.68-0.66-8.78-0.75c-2.32-0.07-3.37-0.98-3.29-3.28
		c0.08-2.2,0.04-4.41,0.19-6.6c1.07-15.16,2.12-30.32,3.28-45.48c0.62-8.22,1.52-16.41,2.1-24.63c0.2-2.77,1.3-3.97,4.05-3.92
		c2.2,0.03,4.4-0.24,6.6-0.23c3.98,0.01,4.91,0.84,4.71,4.89c-0.38,7.87-1.12,15.72-1.46,23.59c-0.64,14.63-1.17,29.27-1.57,43.92
		c-0.07,2.71,0.82,5.42,1.03,8.15c0.32,4.15,0.16,4.24-4.11,4.34C334.74,396.18,334.01,396.17,332.74,396.17"/>
	<path fill="#FDB3D0" d="M153.08,132.87c0.18,0.75,0.66,1.57,0.49,2.21c-4.05,15.38-8.21,30.74-12.25,46.13
		c-0.67,2.57-1.28,4.46-4.67,3.71c-6.78-1.5-13.6-2.8-20.43-4.02c-2.38-0.42-2.91-1.31-2.37-3.7c2.68-11.76,5.1-23.58,7.8-35.33
		c0.31-1.35,1.59-3.27,2.73-3.51C133.67,136.4,143.04,134.75,153.08,132.87"/>
	<path fill="#FDB3D0" d="M319.56,316.02c-0.84,8.56-1.83,17.67-2.61,26.8c-0.97,11.32-1.76,22.67-2.63,34
		c-0.4,5.3-0.72,10.6-1.29,15.89c-0.1,0.98-1.13,2.55-1.88,2.64c-5.09,0.65-10.21,1.02-15.33,1.33c-0.31,0.02-1.11-1.27-0.98-1.78
		c3.06-12.66,3.87-25.6,5.13-38.5c1.34-13.67,3.54-27.24,5.24-40.88c0.35-2.8,1.61-3.79,4.31-3.67c2.19,0.1,4.41,0.02,6.6-0.21
		C319.13,311.33,320.18,312.63,319.56,316.02"/>
	<path fill="#FDB3D0" d="M488.55,127.1c9.29,0.01,9.46,0.06,11.05,9.57c3.28,19.69,6.45,39.39,9.62,59.1
		c0.78,4.83,0.38,5.07-4.71,5.31c-2.72,0.13-5.41,0.79-8.12,1.11c-3.86,0.46-4.39,0.18-4.99-3.75c-1.44-9.41-2.63-18.86-4.03-28.28
		c-1.92-12.86-3.93-25.7-5.94-38.55c-0.69-4.42-0.75-4.42,3.84-4.51C486.34,127.08,487.44,127.1,488.55,127.1"/>
	<path fill="#FDB3D0" d="M195.71,199.25c-0.37,0.09-1.2,0.27-2.03,0.48c-5.58,1.35-7.29-0.17-6.35-5.98
		c2.32-14.45,4.78-28.88,7.09-43.33c1.06-6.68,1.98-13.39,2.79-20.11c0.86-7.09,1.04-7.42,7.97-8.89c2.87-0.61,5.73-1.21,8.61-1.78
		c2.19-0.43,3.41-0.24,2.89,2.73c-4.31,24.71-9.52,49.23-16.26,73.4C199.95,197.48,200.27,201.29,195.71,199.25"/>
	<path fill="#FDB3D0" d="M365.61,354.03c0.4-10.06,1.04-23.6,1.42-37.15c0.08-3.02,1.17-3.68,3.93-3.53
		c8.94,0.49,9.4-2.09,9.43,9.12c0.02,6.05,0.04,12.11,0.03,18.16c-0.04,13.79,1.35,27.43,4.43,40.87c0.73,3.2,2.06,6.26,3.08,9.39
		c0.53,1.62,0.37,2.89-1.77,3.05c-4.75,0.35-9.5,0.7-14.24,1.15c-2.42,0.23-3.21-0.59-3.94-3.11
		C364.71,380.61,365.88,369.04,365.61,354.03"/>
	<path fill="#FDB3D0" d="M401.17,392.05c-4.91,0.21-4.65,0.1-6.44-4.06c-4.34-10.12-5.77-20.88-6.54-31.64
		c-0.95-13.17-0.92-26.42-1.44-39.63c-0.1-2.5,0.67-3.84,3.22-4.01c1.1-0.07,2.18-0.31,3.28-0.37c4.39-0.21,4.46-0.1,4.76,4.48
		c0.85,13,2.02,26.02,5.58,38.57c2.54,8.97,6.23,17.62,9.42,26.41c0.56,1.55,1.29,3.05,1.79,4.61c1.05,3.26,0.76,3.7-2.76,4.21
		C408.43,391.15,404.79,391.58,401.17,392.05"/>
	<path fill="#FDB3D0" d="M273.48,400.52c0.76-5.05,1.47-10.11,2.3-15.15c2.45-14.83,4.91-29.65,7.44-44.46
		c1.45-8.49,2.85-17,4.62-25.42c1.1-5.22,4.8-6.76,9.38-4.12c0.86,0.5,1.41,2.46,1.26,3.64c-0.93,7.27-2.24,14.48-3.15,21.75
		c-1.5,12-2.7,24.04-4.2,36.04c-0.82,6.54-1.87,13.07-3.08,19.56c-1.19,6.34-3.21,7.89-9.67,8.1c-1.65,0.06-3.3,0.01-4.96,0.01
		L273.48,400.52z"/>
	<path fill="#FDB3D0" d="M354.25,396.32c-0.37,0-0.73,0-1.1,0c-6.86-0.05-6.71-0.05-6.88-7.11c-0.1-4.19-1.25-8.37-1.13-12.54
		c0.32-10.61,1.12-21.2,1.67-31.8c0.5-9.51,0.97-19.02,1.36-28.53c0.21-5.25,0.47-5.56,5.74-4.95c0.37,0.04,0.72,0.11,1.09,0.17
		c5.52,0.86,5.75,0.86,5.5,6.53c-0.54,11.89-1.5,23.75-1.97,35.64c-0.33,8.24-0.39,16.5-0.07,24.73c0.17,4.53,1.32,9.03,2.12,13.52
		c0.71,3.99,0.77,4-3.03,4.21c-1.09,0.06-2.2,0.01-3.29,0.01L354.25,396.32L354.25,396.32z"/>
	<path fill="#FDB3D0" d="M508.67,129.14c11.68,1.03,11.39,1.07,12.89,12.21c2.14,15.93,4.69,31.82,7.24,47.69
		c1.06,6.57,1.09,6.83-5.5,8.67c-6.15,1.72-6.21,1.73-7.28-4.5c-3.53-20.55-6.92-41.12-10.57-61.64
		C504.68,127.29,507.33,129.33,508.67,129.14"/>
	<path fill="#FDB3D0" d="M268.85,135.68c-1.64,13.81-3.28,27.62-4.92,41.44c-0.89,7.46-1.68,14.93-2.69,22.37
		c-0.33,2.42,0.23,6.01-2.65,6.63c-3.43,0.73-7.19,0.07-10.79-0.24c-0.33-0.03-0.85-1.9-0.68-2.82c0.61-3.43,1.57-6.79,2.21-10.21
		c3.14-16.74,6.42-33.47,9.24-50.27c1.09-6.48,1.11-13.14,1.58-19.72c0.12-1.69,0.1-3.75,2.51-3.21c2.05,0.46,5.28-0.29,5.4,3.28
		c0.14,4.22,0.03,8.44,0.03,12.66C268.35,135.62,268.6,135.65,268.85,135.68"/>
	<path fill="#FDB3D0" d="M158.65,191.7c-0.78-0.14-1.14-0.2-1.5-0.28c-10.2-2.17-10.4-2.48-7.91-12.53
		c2.77-11.19,5.52-22.39,8.29-33.58c0.17-0.71,0.35-1.42,0.55-2.13c3.36-11.87,3.79-12.27,15.74-14.41c3.16-0.57,3.21-0.51,2.42,2.5
		c-2.21,8.5-4.48,16.98-6.58,25.5c-2.59,10.48-5.04,21-7.53,31.51C161.62,190.39,161.1,192.35,158.65,191.7"/>
	<path fill="#FDB3D0" d="M259.7,406.43c-5.41-0.12-6.33-0.96-4.85-5.4c6.14-18.41,8.06-37.59,10.88-56.63
		c1.26-8.5,3.48-16.85,5.4-25.25c0.4-1.75,0.94-4.04,2.21-4.87c1.79-1.17,4.32-1.22,6.54-1.75c0.18,1.47,0.73,3,0.5,4.4
		c-2.96,18.09-5.88,36.18-9.14,54.21c-1.9,10.46-4.48,20.8-6.59,31.22C264.01,405.54,262.44,406.85,259.7,406.43"/>
	<path fill="#FDB3D0" d="M283.8,167.92c-0.52,10.79-1.02,21.59-1.57,32.38c-0.06,1.27-0.44,2.52-0.6,3.78
		c-0.34,2.61-1.81,3.31-4.25,2.76c-2.85-0.64-6.49-0.29-8.35-1.96c-1.29-1.16-0.35-5.04-0.05-7.67c1.61-14.55,3.59-29.07,4.92-43.64
		c0.8-8.75,0.64-17.58,1-26.37c0.07-1.63-1.08-3.92,1.61-4.54c2.28-0.52,4.14,1.02,4.47,4.14c0.92,8.73,1.76,17.48,2.33,26.24
		c0.32,4.93,0.06,9.9,0.06,14.85C283.51,167.91,283.66,167.91,283.8,167.92"/>
	<path fill="#FDB3D0" d="M428.25,205.73c-4.41,0.12-4.3,0.11-4.93-4.44c-2.42-17.2-5.01-34.38-7.31-51.6
		c-0.62-4.66-0.37-9.44-0.6-14.16c-0.09-1.93,0.95-2.62,2.62-2.75c1.28-0.1,2.56-0.08,3.84-0.17c2.17-0.15,2.74,0.47,3.09,2.98
		c1.95,13.92,4.43,27.77,6.63,41.66c1.2,7.58,2.19,15.2,3.33,22.79c0.74,4.95,0.48,5.33-4.47,5.67
		C429.72,205.77,428.98,205.73,428.25,205.73"/>
	<path fill="#FDB3D0" d="M404.39,316.12c0.41-1.88-1.23-4.41,2.15-4.86c3.48-0.47,5.4,0.37,6.3,3.71c2.29,8.47,4.3,17.02,6.5,25.51
		c0.73,2.82,1.72,5.57,2.52,8.37c0.71,2.46,1.89,4.96,1.87,7.43c-0.08,8,2.13,15.59,3.58,23.31c0.3,1.62,0.75,3.34,0.47,4.89
		c-0.21,1.17-1.33,2.39-2.38,3.07c-0.34,0.22-2.19-1-2.6-1.89c-7.32-16.24-14.23-32.61-16.14-50.59
		C405.99,328.71,405.14,322.35,404.39,316.12"/>
	<path fill="#FDB3D0" d="M529.1,132.54c3.74,0.45,5.73,1.46,7.53,4.88c7.74,14.72,9.36,31.1,13.85,46.69
		c0.87,3.01-0.1,4.56-2.65,5.57c-2.55,1.02-5.17,1.86-7.72,2.87c-2.37,0.94-3.36-0.1-3.79-2.32c-1.18-6.11-2.58-12.19-3.57-18.33
		c-1.95-12.11-3.66-24.25-5.52-36.38C526.89,133.48,527.24,132.23,529.1,132.54"/>
	<path fill="#FDB3D0" d="M399.07,139.37c-0.11-0.91-0.25-1.81-0.32-2.73c-0.04-0.53-0.09-1.5,0.06-1.54
		c2.04-0.53,4.09-1.06,6.17-1.32c1.88-0.24,2.4,1.06,2.61,2.72c2.75,21.58,5.54,43.15,8.31,64.72c0.09,0.73,0.16,1.46,0.19,2.19
		c0.01,0.36-0.04,1.02-0.15,1.04c-2.95,0.57-5.91,1.31-8.89,1.42c-0.72,0.03-2.04-1.97-2.2-3.15c-0.57-4.34-0.71-8.74-1.1-13.11
		c-1.52-16.75-3.07-33.49-4.61-50.24C399.11,139.36,399.09,139.37,399.07,139.37"/>
	<path fill="#FDB3D0" d="M484.14,200.12c-0.36,0.47-0.92,1.99-1.92,2.37c-2.62,0.99-5.88-0.29-6.41-2.4
		c-0.76-3.01-1.23-6.1-1.71-9.18c-2.6-16.65-5.15-33.3-7.78-49.94c-0.48-3.07-1.16-6.12-1.9-9.14c-0.6-2.48-0.08-3.66,2.76-3.95
		c6.1-0.62,6.74-0.54,7.65,5.49c2.47,16.29,4.71,32.62,7,48.94C482.62,187.91,483.3,193.55,484.14,200.12"/>
	<path fill="#FDB3D0" d="M447.44,203.49c-4.64,0-4.71-0.12-5.36-4.24c-2.39-15.2-4.8-30.41-7.26-45.6
		c-1.05-6.5-2.26-12.98-3.35-19.48c-0.11-0.64,0.05-1.89,0.22-1.91c2.5-0.37,5.06-0.88,7.54-0.66c0.77,0.07,1.71,2.15,1.96,3.43
		c1.16,5.93,2.11,11.9,3.12,17.86c2.39,14.09,4.78,28.18,7.17,42.27c0.18,1.08,0.44,2.16,0.58,3.24
		C452.73,203.49,452.72,203.49,447.44,203.49"/>
	<path fill="#FDB3D0" d="M454.19,129.18c2.23-0.42,3.11,0.76,3.46,2.97c1.71,10.67,3.63,21.31,5.26,32
		c1.73,11.42,3.21,22.87,4.8,34.31c0.24,1.71,1.31,3.7-1.71,4.2c-3.42,0.57-5.77-0.44-6.29-3.25c-2.63-14.06-5.19-28.13-7.72-42.21
		c-1.33-7.4-2.48-14.83-3.81-22.23c-0.91-5.07-0.85-5.25,4.22-5.66C452.95,129.26,453.51,129.23,454.19,129.18"/>
	<path fill="#FDB3D0" d="M190.7,129.92c-1.41,8.95-2.91,18.88-4.56,28.8c-1.71,10.28-3.56,20.53-5.37,30.8
		c-0.25,1.44-0.26,3.12-1.04,4.23c-2.68,3.79-5.79-0.39-8.78,0.15c-1.7,0.31-2.52-1.12-2.07-2.95c0.65-2.66,1.27-5.34,1.88-8.01
		c3.28-14.25,6.69-28.48,9.75-42.78c0.86-4.03,3.69-7.61,2.75-12.14c-0.1-0.47,2.26-1.79,3.63-2.17
		C190.69,124.8,190.9,125.06,190.7,129.92"/>
	<path fill="#FDB3D0" d="M545.1,135.71c4.03,1.12,7.24,1.87,10.34,2.96c0.85,0.3,1.56,1.49,1.99,2.43
		c5.28,11.66,10.48,23.36,15.74,35.02c1,2.22,1.12,3.61-1.88,4.28c-3.36,0.75-6.64,1.97-9.86,3.23c-2.49,0.98-3.71,0.33-4.33-2.22
		c-1.59-6.57-3.14-13.16-4.96-19.68c-2.21-7.91-4.69-15.75-7.01-23.64C544.94,137.47,545.1,136.73,545.1,135.71"/>
	<path fill="#FDB3D0" d="M86,143.65c7.69-0.5,7.95-0.44,6.63,6.08c-1.73,8.59-3.95,17.08-5.92,25.62c-0.6,2.57-1.8,3.51-4.68,3.04
		c-2.82-0.47-5.81-0.04-8.72,0.15c-4.8,0.31-5.01,0.05-3.37-4.79c2.16-6.41,4.31-12.81,6.44-19.23c0.57-1.73,1.16-3.47,1.55-5.25
		c1.16-5.3,1.12-5.32,6.44-5.62C85.28,143.61,86.19,143.65,86,143.65"/>
	<path fill="#FDB3D0" d="M57.45,179.53c-2.64-0.32-5.01-0.58-7.36-0.89c-4.65-0.62-4.77-0.66-3.52-5.36
		c1.54-5.82,3.19-11.62,4.97-17.37c2.51-8.11,4.33-9.49,12.64-10.07c2.32-0.16,4.65-0.25,6.97-0.37c-0.49,2.6-0.71,5.29-1.53,7.78
		c-2.5,7.63-5.21,15.2-7.87,22.77C61.01,178.17,60.19,180.31,57.45,179.53"/>
	<path fill="#FDB3D0" d="M112.13,140.5c3.01-0.34,2.75,1.76,2.39,3.56c-0.95,4.86-2,9.7-3.15,14.51
		c-1.45,6.06-3.07,12.09-4.57,18.14c-0.56,2.26-1.57,3.69-4.22,2.89c-0.69-0.21-1.45-0.2-2.18-0.3c-2.24-0.33-4.49-0.67-6.73-1
		c0.4-2.33,0.77-4.66,1.22-6.98c1.74-8.99,3.45-17.99,5.32-26.95c0.21-1,1.25-2.41,2.12-2.59
		C105.54,141.13,108.85,140.9,112.13,140.5"/>
	<path fill="#FDB3D0" d="M582.77,177.7c-0.55-0.6-1.58-1.32-2.05-2.3c-4.87-10.25-9.67-20.53-14.42-30.83
		c-0.34-0.73-0.24-1.67-0.34-2.51c0.85,0.06,1.75-0.04,2.55,0.2c3.86,1.14,7.78,2.16,11.49,3.68c1.7,0.7,3.61,2.17,4.31,3.78
		c3.25,7.54,6.11,15.25,9.12,22.89c0.8,2.02,0.07,3.16-1.97,3.54C588.79,176.67,586.09,177.11,582.77,177.7"/>
	<path fill="#FDB3D0" d="M43.66,149.02c1.86-0.15,2.75,0.28,2.09,2.46c-2.31,7.69-4.58,15.4-6.7,23.15
		c-0.68,2.48-2.02,3.3-4.38,2.82c-1.6-0.33-3.21-0.68-4.79-1.12c-1.65-0.45-2.33-1.5-2.04-3.28c1.05-6.49,1.92-13.01,3.1-19.48
		c0.21-1.17,1.4-2.83,2.42-3.07C36.73,149.71,40.22,149.47,43.66,149.02"/>
	<path fill="#FDB3D0" d="M607.51,174.88c-5.77,0.17-5.67,0.14-7.64-5.3c-2.17-6-4.49-11.94-6.84-17.87
		c-0.92-2.32-0.25-3.08,2.08-2.5c3.01,0.75,6.13,1.27,8.96,2.45c1.68,0.7,3.41,2.23,4.23,3.83c2.31,4.54,4.29,9.27,6.14,14.03
		c1.63,4.18,0.95,5.03-3.64,5.35C609.7,174.95,608.6,174.88,607.51,174.88"/>
	<path fill="#FDB3D0" d="M19.46,173.69c-4.49-3.11-8.66-5.71-12.39-8.83c-0.72-0.6-0.36-4.2,0.54-4.76
		c4.6-2.87,9.47-5.32,14.39-7.62c1.5-0.7,2.26,0.52,1.97,2.18c-0.95,5.39-1.82,10.79-2.82,16.17
		C20.98,171.66,20.25,172.37,19.46,173.69"/>
	<path fill="#FDB3D0" d="M623.5,173.39c-0.46-0.97-0.97-1.92-1.37-2.92c-1.47-3.72-2.94-7.45-4.32-11.21
		c-0.21-0.58,0.05-1.33,0.09-2c0.5,0.21,1.08,0.32,1.49,0.65c3.81,3.11,7.62,6.22,11.36,9.41c1.44,1.23,1.51,2.47-0.52,3.22
		c-1.87,0.69-3.76,1.34-5.64,2L623.5,173.39z"/>
	<polygon fill="#FDB3D0" points="273.42,400.46 273.31,400.65 273.48,400.52 	"/>
</g>
</svg>
