<svg xmlns="http://www.w3.org/2000/svg" width="645" height="728" viewBox="0 0 645 728"><style>.a{fill:#FDB3D0;}</style><path d="M298.5 1c6.6 0 13.2-0.1 19.8 0.1 3.6 0.1 7.3 0.8 10.9 1 4 0.3 8 0.3 12.1 0.5 7.3 0.4 14.7 0.7 21.9 1.5 13.8 1.6 27.6 3.3 41.4 5.2 8 1.1 15.8 3 23.8 4.4 3.4 0.6 6.9 0.7 10.4 1 11.3 1.2 22.5 2.2 33.1 7.4 6 2.9 12.9 4.1 19.4 6 0.7 0.2 1.5 0.3 2.1 0.7 16 8 32.9 14.6 46.7 26.4 8 6.8 15.8 13.6 24.1 20 6.8 5.3 14.2 9.8 21.1 15 5.4 4 10.6 8.4 15.7 12.8 3.3 2.9 6.2 6.2 9.6 9 4.2 3.3 5.7 7.9 7.2 12.7 0.3 0.9 0.2 1.9 0.7 2.6 3.2 5.3 6.3 10.7 9.7 15.9 0.9 1.4 2.9 2.1 4.5 2.9 1.9 1 4.1 1.7 5.9 2.9 3.8 2.4 5.1 5.9 4.1 9.9 -1.3 5.7-2.9 6.2-7.4 2.4 -3.1-2.6-6-5.5-9.4-7.7 -4.4-2.8-9-5.7-14-7.4 -7.8-2.6-16-4-23.9-6.2 -11.8-3.2-23.6-6.9-35.5-9.9 -20.8-5.2-41.9-9.5-63.4-10.2 -15.8-0.6-31.5 1.3-47.2 3.3 -9.4 1.2-19 2-28.4 2.9 -5.1 0.5-10.2 1.1-15.4 1 -9.7-0.2-19.4-0.6-29.1-1.2 -12.4-0.8-24.8-2.2-37.3-3 -17.4-1-34.7-3-51.7-7.2 -13.6-3.4-27.4-5.6-41.4-5.5 -15.3 0.1-30.3 2.5-45.1 6.4 -27.9 7.3-56.3 12.1-84.7 17 -13.5 2.3-27.3 3-41 4.7 -11.1 1.4-22.1 3.3-33.2 4.9 -2.5 0.4-5.1 0.6-7.6 1 -7.9 1.2-15.2 4-21.7 8.7 -0.9 0.6-2.2 0.7-3.3 1.1 -0.2-1.2-0.9-2.6-0.7-3.7 1-3.7 2-7.5 3.5-11 4.5-9.9 9.4-19.6 16.8-27.6 5.2-5.6 10.8-11.1 16.9-15.7 8.1-6 16.9-10.9 25.2-16.6 3.6-2.5 6.9-5.5 9.9-8.7 7.3-7.9 16.1-13.8 24.8-19.9 14.1-10 29.6-16.9 45.7-22.7 2.5-0.9 4.8-2.7 7.3-3.4 5.5-1.5 11-2.7 16.6-3.6 10.5-1.7 20.9-3.7 31-7.1 12.2-4.1 24.8-6.5 37.6-7.8C257.2 4 277.7 0.9 298.5 1M465.2 92.1c-1.6 0-3.3 0-4.9 0 -7.2-0.1-7.6 0.4-9.1 7.1 -0.6 3.1 0.1 5.6 2.9 7 2.7 1.4 5.5 3.2 8.5 0.3 0.9-0.9 2.5-1.3 3.9-1.4 4.7-0.1 7.9-2.2 10.4-6 2.5-4 1.4-6.6-3.4-7C470.7 91.9 468 92.1 465.2 92.1M231.6 49.1c4.5 0.3 7.8-1.9 10.9-4.6 3.4-2.9 4.2-8.2 1.4-11.6 -0.9-1.1-3.1-2.5-4-2.1 -5.7 2.2-11.6 4.4-16.7 7.6 -3.4 2.1-2.3 7.2 1.6 8.8C227 48.2 229.4 48.5 231.6 49.1M104.5 109.9c7.3-0.5 11-3.5 12-10.3 0.8-5.2-0.5-6.7-5.7-6.7 -6.1 0.1-11.3 3.1-16.4 5.9 -3.5 1.9-2.7 7.3 1.1 8.8C98.4 108.7 101.5 109.2 104.5 109.9M386.1 96.3c-4.7 0.2-10 1.6-14.8 4.4 -2 1.2-3.7 3.2-2.7 5.4 0.8 1.7 2.8 3.4 4.6 4 2.2 0.7 4.7 0.4 7.1 0 2.9-0.4 5.7-1.2 8.6-2 4.3-1.1 7-3.9 6.8-6.8C395.4 98.1 392.2 96.3 386.1 96.3M330 73c-5.9 0-10.7 2.2-13.8 7.4 -1.4 2.4-2 5.2-0.1 7.2 1.3 1.3 3.9 2 5.9 1.9 3.1-0.2 6.1-1.3 9.1-1.9 1.2-0.3 2.6-0.3 3.7-0.9 1.9-1.1 3.7-7.5 2.9-9.5C336.5 74.2 334.4 73 330 73M149.2 52.8c0.8 7.5 4.8 9.8 11.2 6.5 4.1-2.1 6.8-5.2 7.9-9.9 1.3-5.4-3-7.8-6.3-6.8 -3.2 1-6.5 2.5-9.2 4.5C151 48.3 150.3 50.9 149.2 52.8M295.4 21.4c0-0.1 0-0.2 0-0.2 -2.7 0.4-5.4 0.9-8.1 1.2 -4.2 0.4-5.7 5.3-3.2 7.8 2.7 2.7 6.3 4.7 9.8 6.5 1.8 0.9 4.1-0.3 3.8-2.5 -0.4-3.1 1.6-3.9 3.4-5.4 1.1-0.8 2.1-3 1.7-4 -0.5-1.4-2.3-2.5-3.7-3.2C298.1 21 296.7 21.4 295.4 21.4M212.8 74.5c1-0.8 2.6-1.5 3.1-2.7 0.9-2.1 0.1-4.4-2.2-4.9 -6.8-1.3-13.6-0.9-19.5 3 -3 2-2.8 5.3-0.1 7.4 3.3 2.6 11.9 1.8 14-1.8C209.3 73.4 210.2 72.8 212.8 74.5M474.1 56.5c0.1-3.4-2.2-6-5.5-4.9 -3.9 1.3-7.6 3.5-11 5.8 -1.9 1.3-1.6 3.5-0.1 5.4 2.6 3.3 6 4.4 9.7 3.2C471.5 64.6 473.9 61.2 474.1 56.5M378.7 76.9c5.6-0.3 11.1-5 11.6-10.3 0.2-2.6-1-4.1-3.7-4.4 -4.6-0.5-8.2 1.5-11.1 4.7 -1.7 1.9-5.4 3.6-3.6 6.6C373 75.3 376.4 75.8 378.7 76.9M522.4 93.8c4.1-1.8 8.1-3.2 11.6-5.3 1.2-0.7 1.9-3.6 1.6-5.2 -0.3-1.3-2.6-3.1-3.9-3 -4.5 0.2-9.1 0.5-12.6 4 -1.7 1.8-2.7 3.9-1.5 5.9C518.4 91.6 520.4 92.4 522.4 93.8M108.6 78.6c6.3 0 9.4-3 9.7-8 0.1-0.8 0.2-1.8 0.6-2.4 1.2-1.7 1.9-3.6-0.1-4.7 -1.3-0.7-3.7-0.6-4.9 0.1 -2.8 1.6-5.2 3.9-7.7 6 -1.8 1.5-3.3 3.6-1.8 5.7C105.4 77 107.7 77.9 108.6 78.6M443.6 32.9c-0.1 0.2-0.1 0.3-0.2 0.5 -0.9 0.1-1.9 0-2.7 0.2 -3 0.8-3.6 3.6-4 6 -0.2 1.2 1.1 3.7 2.1 3.9 3.9 0.7 7.9 1 11.7 0.7 1.3-0.1 3.1-2.7 3.3-4.3 0.2-1.3-1.3-3.4-2.7-4.2C448.8 34.4 446.1 33.8 443.6 32.9M603.7 117.3c0-0.1 0-0.1 0-0.2 -1.6 0.1-3.4-0.2-4.9 0.3 -1.3 0.5-2.8 1.9-3.1 3.2 -0.7 2.9 5.4 8.2 8.4 7.4 1.8-0.4 3.5-1 5.2-1.6 2.1-0.7 3.9-2.3 3.2-4.4 -0.6-1.8-2.3-3.6-3.9-4.6C607.3 116.7 605.3 117.3 603.7 117.3M524.7 65.5c0.8-0.1 2.2-0.1 3.3-0.6 2.3-0.9 4.8-2.4 4.1-5.1 -0.5-2-2.5-4.3-4.4-4.9 -2.2-0.7-5-0.1-7.4 0.5 -2.3 0.6-3.7 2.4-3.2 5 0.5 2.5 1.7 4.5 4.4 4.9C522.4 65.4 523.3 65.4 524.7 65.5M356.7 33.7c-4.6 0-6.2 1.2-6.3 4.8 -0.1 4.3 2.7 6.9 7.3 6.9 4 0 6-1.5 6.1-4.7C363.8 36.1 361.5 33.8 356.7 33.7M579.3 119.6c3 0 5.6-1.8 5.9-4.2 0.4-2.9-1.4-4.6-3.8-5.2 -2.4-0.6-5-0.6-7.5-0.6 -2.2-0.1-4 1-4.3 3.3 -0.4 2.4 0.9 4.3 3.2 5.1C574.9 118.7 577.3 119.1 579.3 119.6M165 90.3c1.6-0.8 4.1-1.4 4.9-2.9 0.7-1.3 0-3.9-0.9-5.5 -1.1-2.2-7.5-3.7-9.5-2.2 -1.4 1.1-2.5 3.2-2.7 4.9 -0.2 1.2 1.2 2.9 2.4 3.7C160.7 89.3 162.6 89.5 165 90.3M56.5 125.2c1.6-0.7 4-1.8 6.3-3 1.7-0.8 3.6-1.8 2.8-4.1 -0.7-2.3-2.8-2.8-4.9-2.5 -3.1 0.5-6.2 0.9-9.1 1.9 -1.1 0.4-2.6 2.1-2.5 3 0.1 1.4 1.3 2.9 2.5 3.8C52.4 125.1 54 124.9 56.5 125.2M246.5 66.5c-3.5 0-6 2.2-5.8 5 0.2 3.6 2.5 5.8 5.8 5.9 3.8 0.1 6.8-2 6.9-4.7C253.5 69.5 250.2 66.5 246.5 66.5M203.8 24.7c0-3.1-2.4-4.7-5-3.5 -2.3 1.1-4.5 2.4-6.7 3.5 -2.3 1.1-3.3 3.6-2.3 5.8 1.1 2.4 3.3 2.6 5.1 1.7 2.9-1.5 5.5-3.5 8-5.5C203.5 26.2 203.7 25.1 203.8 24.7M273.7 62.7c2.8-1.1 5.2-1.6 7-3 1.1-0.9 2.1-3.2 1.7-4.5 -0.4-1.3-2.5-2.8-3.9-2.8 -2.2 0-4.6 0.8-6.6 1.7 -1.9 0.9-3.3 2.8-2.2 4.9C270.3 60.5 272.2 61.5 273.7 62.7M141.5 116.2c-0.3 2.7 0.6 3.9 3 4.2 3 0.4 8.3-3.6 8.5-6.6 0.2-2.1-1.6-3.4-5.1-3.7C143.4 109.7 142 111 141.5 116.2M274.6 79.3c3.7-0.1 6.1-1.9 6.1-3.9 -0.1-2.5-1.5-4-4-4.4 -0.9-0.2-1.7-0.5-2.6-0.7 -2.1-0.6-4.1-0.7-5.3 1.5 -1.3 2.4 0 4.4 1.7 5.7C271.9 78.5 273.7 79 274.6 79.3M413.9 31.1c2.8 0.2 4.7-1.4 4.9-3.9 0.3-2.8-1.7-4.9-4.6-5 -2.7-0.1-4.9 2-5 4.7C409 29.3 410.8 30.9 413.9 31.1" class="a"/><path d="M314.8 402.2c8.8 0.5 14.9 0.9 20.9 1.3 13.2 1 26.4 0.1 39.5-1.4 10.2-1.2 20.4-2 30.6-3 2.3-0.2 3.3 0.5 3.7 2.8 2.5 12.9 5.5 25.8 7.6 38.8 3.3 21 5.9 42 9 63 0.8 5.6 2.9 11 3.6 16.6 1.2 9.1 2.5 18.2 2.6 27.3 0.1 8-1.2 16-1.9 24 -0.7 8.4-1 16.8-2.4 25.1 -1.8 10.5-4.5 20.8-6.8 31.1 -0.5 2.3-1.3 4.6-2 6.8 -0.1 0.4-0.1 0.8-0.3 1.1 -3.4 3.6-4.9 7.9-6.5 12.5 -1.6 4.6-4.6 8.7-7.4 12.8 -6.5 9.8-15.4 17.1-24.6 24.1 -8.2 6.2-17 11.5-26.6 15.4 -3 1.2-6 2.8-8.8 4.4 -12.1 7.1-25.3 8.3-38.9 6.3 -2.9-0.4-6.9 1.5-8.7-2.8 0 0-0.7 0.1-0.7 0.3 -0.8 4.6-4.1 2-6.5 2.4 -3.9 0.7-7.9 1.6-11.6 3 -2.9 1.1-5.5 3-7.9 4.9 -7.8 6.1-16 7.5-25.3 3.8 -9-3.6-18.1-7-26.4-12 -2.6-1.6-5.2-3.4-7.6-5.4 -3.1-2.6-5.8-5.5-8.9-8 -2.2-1.8-3.6-3.8-3.5-6.5 0.2-4.2 0.7-8.3 1.1-12.5 0.1-1.1 0.6-2.1 0.6-3.2 0.7-12.3 4.7-23.8 10.7-34.3 5.5-9.7 12.4-18.1 23.6-22 3.5-1.2 6.6-4 9.4-6.5 9.1-8.2 18-16.6 26.9-25.1 1.3-1.2 2.5-2.8 3-4.5 2.1-7.2 4.2-14.4 5.7-21.7 2.1-10 3.6-20.2 5.7-30.2 2.6-12.6 3.8-25.3 4.3-38.1 0.4-13.2 1.2-26.3 1.6-39.5 0.1-3.8-0.7-7.6-1-11.5 -1-10.8-1.8-21.5-2.9-32.3 -0.3-3 1.1-4.1 3.6-4.4C300 403.9 308.7 402.9 314.8 402.2M220.4 668.4c0.1 2.6-0.1 4 0.3 5.1 0.7 1.8 1.6 3.7 3 5.1 1.5 1.5 3.7 1.8 5.5 0.1 1.6-1.5 0.4-2.9-0.3-4.4 -0.8-1.5-1.7-3.4-1.5-5 0.5-3.3 0.6-7 3.6-9.5 1.4-1.1 2-2.7 0.6-4.3 -1.5-1.7-3.4-1.6-4.9-0.4 -1.5 1.2-3 2.8-3.7 4.6C221.6 662.8 221 666.2 220.4 668.4M321.9 692.6c6-0.1 9.8-1.4 12.2-5 0.6-0.9 0.6-2.9 0.1-3.9 -0.4-0.7-2.2-0.8-3.4-0.8 -0.6 0-1.4 0.5-1.9 1 -2.7 2.2-5.8 2-8.9 1.1 -2.1-0.6-4-1.6-6.1-2.5 -1.8-0.7-3.7-1.3-4.9 0.7 -1.3 2.2-0.3 4.1 1.7 5C314.9 690 319.2 691.5 321.9 692.6M403.1 622.9c-1.5 0.7-2.5 0.9-3.1 1.5 -4 4.3-7.9 8.6-11.8 13 -1.3 1.5-1.8 3.4-0.2 4.9 1.6 1.5 3.5 1.1 4.9-0.4 3.6-3.6 7.2-7.3 10.6-11.1 0.9-1 1.7-2.6 1.7-3.9C405.1 625.5 403.9 624.3 403.1 622.9M342.2 672.7c5.3 0.2 10.2-0.9 13.9-5 1.5-1.7 2.7-3.7 0.8-5.8 -1.9-2-3.7-0.7-5.2 0.8 -2.8 2.8-6.2 3.6-9.9 3.8 -1.4 0.1-3.1-0.1-4.2 0.6 -1 0.6-1.9 2.2-2 3.4 0 0.8 1.4 2 2.4 2.3C339.2 673 340.8 672.7 342.2 672.7M415.7 588.2c-0.2-1.2-0.1-2.5-0.7-3.2 -0.7-0.9-2-1.6-3.1-1.7 -0.8 0-2.4 1.1-2.4 1.8 -0.4 5.6-3.5 10-6.1 14.6 -0.9 1.6-1.1 3.5 0.7 4.3 1.2 0.5 3.5 0.2 4.4-0.6C412.5 599 414.8 593.9 415.7 588.2M309.5 660.4c2-0.2 4.2-0.8 4.5-3.5 0.3-2.4-1.6-3.1-3.5-3.3 -3.1-0.2-4-1.9-3.9-4.7 0.1-1.8-0.5-3.3-2.6-3.5 -2.2-0.1-3.3 1.3-3.8 3.2C298.6 654.2 303.4 660.6 309.5 660.4M333.8 449.7c-1.5 0.9-2.6 1.1-3 1.7 -1.8 2.9-2.4 6-1.2 9.3 1.2 3.5 3.9 5.3 7.3 5.7 1.1 0.1 3-0.9 3.4-1.9 0.4-1-0.3-3.3-1.1-3.7 -3.2-1.5-3.2-3.9-3.1-6.8C336 452.7 334.6 451.3 333.8 449.7M264.4 632.5c-0.2 5.4 1.3 8.2 4.5 8.9 1.1 0.2 2.7 0 3.5-0.7 0.7-0.7 1.1-2.8 0.7-3.3 -2.4-2.8-2-5.6-1.1-8.8 0.6-2 0-3.7-2.3-4.2 -2.2-0.5-3.6 0.8-4.1 2.8C264.9 629.2 264.6 631.4 264.4 632.5M374.5 590.8c1.7-0.9 3.7-1.5 4.9-2.8 0.9-0.9 1.2-3.1 0.8-4.4 -0.6-1.9-2.6-2.1-4.1-1.1 -1.8 1.3-2.8 0-4.3-0.6 -1.1-0.4-3.2-0.3-3.8 0.4 -0.7 0.8-0.9 2.8-0.4 4C368.8 589 371.2 590.3 374.5 590.8M401.2 493c0.2-2.4-2.4-4.3-4.4-2.7 -2.8 2.2-4.9 5.1-7 8 -0.4 0.6 0.2 2.6 1 3.2 0.8 0.6 2.8 0.8 3.4 0.2 2.5-2.3 4.6-5 6.9-7.6C401.2 493.8 401.2 493.3 401.2 493M402.2 559.2c2.5 0 8.5-5.7 8.6-8.2 0.1-2.3-2.6-4.2-4.5-2.8 -2.5 1.9-4.9 4.3-6.7 6.9C398.3 557 399.9 559.2 402.2 559.2M241.8 677.1c-0.8 0.2-1.3 0.3-1.8 0.6 -1.8 1-2.5 4.9-1.3 7.5 1.2 2.6 4.1 4.1 6.2 3.1 0.8-0.4 1.9-1.7 1.7-2.4 -0.6-2.6-1.6-5.1-2.7-7.6C243.7 677.7 242.5 677.4 241.8 677.1M343.1 648.7c2.9 0 5.1-0.1 5.4-2.8 0.3-2.5-1.4-3.4-3.6-3.8 -1.2-0.2-2.5-1-3.6-0.9 -1.3 0.1-3.3 0.8-3.5 1.6 -0.3 1.3 0.3 3.3 1.2 4.1C340.2 648.1 342.2 648.4 343.1 648.7M269.5 677.5c-1-1.9-1.7-3.6-2.7-5 -1.8-2.4-5.1-2.1-5.8 0.8 -0.4 1.5 0.2 3.7 1.2 4.8 1 1.2 3.1 1.8 4.7 2C267.6 680.1 268.5 678.5 269.5 677.5" class="a"/><path d="M377 306.2c-7.3-0.6-15-1.3-22.6-1.8 -4-0.3-8.1-0.5-12.1-0.4 -12.7 0.2-25.3 0.6-38 0.6 -6.2 0-12.4-0.6-18.6-0.8 -2.9-0.1-2.9-2-2.9-4.2 0.1-11.4-0.1-22.7 0.1-34.1 0.3-13 0.5-26 1.6-39 0.6-7.4 3.5-14.7 4.4-22.1 1.7-13.5 2.5-27 1.6-40.7 -0.8-12.1-1.5-24.2-2.3-36.2 -0.1-1.9 0.6-2.1 2.2-1.9 7.3 1 14.5 2.1 21.8 2.9 6.9 0.8 13.9 1.3 20.8 1.9 12.6 1 25.2 2 37.8 3 5.5 0.4 11 0.7 16.5 1.1 4.2 0.3 4.6 0.6 5.1 4.8 0.5 4 0.7 8 1.1 12.1 1.2 14.4 2.4 28.9 3.6 43.3 1 12.3 2 24.5 3.1 36.7 0.9 10.8 1.8 21.5 2.7 32.3 0.6 6.7 1.8 13.5 1.9 20.2 0.1 5.8-1.2 11.6-1.8 17.4 -0.3 2.6-1.7 3.3-4.1 3.4C391.7 305.1 384.6 305.7 377 306.2M381 252.2c-1.1-1.4-1.9-3.3-3-3.5 -1.2-0.2-3 0.9-3.8 2.1 -1.1 1.6-1.9 3.6-2.2 5.6 -0.2 1.2 0.5 3.2 1.3 3.6 1 0.5 3.2 0.1 3.9-0.7C378.7 257.3 379.6 254.9 381 252.2" class="a"/><path d="M254.4 123.7c-2.6 15.9-4.9 31.8-7.8 47.7 -1.9 10.5-4.7 20.7-7 31.1 -0.6 2.7-1.4 3.6-4.4 2.8 -2.9-0.8-6.2-0.7-9.2-0.3 -4.6 0.6-9.1 0.9-13.5-0.9 -0.3-0.1-0.7-0.3-1-0.4 -5.1-1.2-5.2-1.3-3.9-6 6.8-25 11.7-50.3 15.9-75.8 0.5-2.8 1.3-3.8 4-3.8 7.1 0 14.3-0.3 21.4-0.1C254.9 118.2 253.6 119 254.4 123.7" class="a"/><path d="M332.7 396.2c-2.6-0.2-5.7-0.7-8.8-0.7 -2.3-0.1-3.4-1-3.3-3.3 0.1-2.2 0-4.4 0.2-6.6 1.1-15.2 2.1-30.3 3.3-45.5 0.6-8.2 1.5-16.4 2.1-24.6 0.2-2.8 1.3-4 4.1-3.9 2.2 0 4.4-0.2 6.6-0.2 4 0 4.9 0.8 4.7 4.9 -0.4 7.9-1.1 15.7-1.5 23.6 -0.6 14.6-1.2 29.3-1.6 43.9 -0.1 2.7 0.8 5.4 1 8.2 0.3 4.2 0.2 4.2-4.1 4.3C334.7 396.2 334 396.2 332.7 396.2" class="a"/><path d="M153.1 132.9c0.2 0.8 0.7 1.6 0.5 2.2 -4 15.4-8.2 30.7-12.2 46.1 -0.7 2.6-1.3 4.5-4.7 3.7 -6.8-1.5-13.6-2.8-20.4-4 -2.4-0.4-2.9-1.3-2.4-3.7 2.7-11.8 5.1-23.6 7.8-35.3 0.3-1.3 1.6-3.3 2.7-3.5C133.7 136.4 143 134.8 153.1 132.9" class="a"/><path d="M319.6 316c-0.8 8.6-1.8 17.7-2.6 26.8 -1 11.3-1.8 22.7-2.6 34 -0.4 5.3-0.7 10.6-1.3 15.9 -0.1 1-1.1 2.6-1.9 2.6 -5.1 0.7-10.2 1-15.3 1.3 -0.3 0-1.1-1.3-1-1.8 3.1-12.7 3.9-25.6 5.1-38.5 1.3-13.7 3.5-27.2 5.2-40.9 0.4-2.8 1.6-3.8 4.3-3.7 2.2 0.1 4.4 0 6.6-0.2C319.1 311.3 320.2 312.6 319.6 316" class="a"/><path d="M488.6 127.1c9.3 0 9.5 0.1 11.1 9.6 3.3 19.7 6.5 39.4 9.6 59.1 0.8 4.8 0.4 5.1-4.7 5.3 -2.7 0.1-5.4 0.8-8.1 1.1 -3.9 0.5-4.4 0.2-5-3.7 -1.4-9.4-2.6-18.9-4-28.3 -1.9-12.9-3.9-25.7-5.9-38.5 -0.7-4.4-0.7-4.4 3.8-4.5C486.3 127.1 487.4 127.1 488.6 127.1" class="a"/><path d="M195.7 199.3c-0.4 0.1-1.2 0.3-2 0.5 -5.6 1.4-7.3-0.2-6.3-6 2.3-14.4 4.8-28.9 7.1-43.3 1.1-6.7 2-13.4 2.8-20.1 0.9-7.1 1-7.4 8-8.9 2.9-0.6 5.7-1.2 8.6-1.8 2.2-0.4 3.4-0.2 2.9 2.7 -4.3 24.7-9.5 49.2-16.3 73.4C200 197.5 200.3 201.3 195.7 199.3" class="a"/><path d="M365.6 354c0.4-10.1 1-23.6 1.4-37.1 0.1-3 1.2-3.7 3.9-3.5 8.9 0.5 9.4-2.1 9.4 9.1 0 6.1 0 12.1 0 18.2 0 13.8 1.4 27.4 4.4 40.9 0.7 3.2 2.1 6.3 3.1 9.4 0.5 1.6 0.4 2.9-1.8 3.1 -4.7 0.4-9.5 0.7-14.2 1.2 -2.4 0.2-3.2-0.6-3.9-3.1C364.7 380.6 365.9 369 365.6 354" class="a"/><path d="M401.2 392.1c-4.9 0.2-4.6 0.1-6.4-4.1 -4.3-10.1-5.8-20.9-6.5-31.6 -0.9-13.2-0.9-26.4-1.4-39.6 -0.1-2.5 0.7-3.8 3.2-4 1.1-0.1 2.2-0.3 3.3-0.4 4.4-0.2 4.5-0.1 4.8 4.5 0.9 13 2 26 5.6 38.6 2.5 9 6.2 17.6 9.4 26.4 0.6 1.6 1.3 3.1 1.8 4.6 1.1 3.3 0.8 3.7-2.8 4.2C408.4 391.2 404.8 391.6 401.2 392.1" class="a"/><path d="M273.5 400.5c0.8-5 1.5-10.1 2.3-15.1 2.5-14.8 4.9-29.6 7.4-44.5 1.5-8.5 2.9-17 4.6-25.4 1.1-5.2 4.8-6.8 9.4-4.1 0.9 0.5 1.4 2.5 1.3 3.6 -0.9 7.3-2.2 14.5-3.1 21.8 -1.5 12-2.7 24-4.2 36 -0.8 6.5-1.9 13.1-3.1 19.6 -1.2 6.3-3.2 7.9-9.7 8.1 -1.6 0.1-3.3 0-5 0L273.5 400.5z" class="a"/><path d="M354.3 396.3c-0.4 0-0.7 0-1.1 0 -6.9 0-6.7 0-6.9-7.1 -0.1-4.2-1.2-8.4-1.1-12.5 0.3-10.6 1.1-21.2 1.7-31.8 0.5-9.5 1-19 1.4-28.5 0.2-5.2 0.5-5.6 5.7-4.9 0.4 0 0.7 0.1 1.1 0.2 5.5 0.9 5.8 0.9 5.5 6.5 -0.5 11.9-1.5 23.8-2 35.6 -0.3 8.2-0.4 16.5-0.1 24.7 0.2 4.5 1.3 9 2.1 13.5 0.7 4 0.8 4-3 4.2 -1.1 0.1-2.2 0-3.3 0L354.3 396.3 354.3 396.3z" class="a"/><path d="M508.7 129.1c11.7 1 11.4 1.1 12.9 12.2 2.1 15.9 4.7 31.8 7.2 47.7 1.1 6.6 1.1 6.8-5.5 8.7 -6.1 1.7-6.2 1.7-7.3-4.5 -3.5-20.5-6.9-41.1-10.6-61.6C504.7 127.3 507.3 129.3 508.7 129.1" class="a"/><path d="M268.9 135.7c-1.6 13.8-3.3 27.6-4.9 41.4 -0.9 7.5-1.7 14.9-2.7 22.4 -0.3 2.4 0.2 6-2.6 6.6 -3.4 0.7-7.2 0.1-10.8-0.2 -0.3 0-0.8-1.9-0.7-2.8 0.6-3.4 1.6-6.8 2.2-10.2 3.1-16.7 6.4-33.5 9.2-50.3 1.1-6.5 1.1-13.1 1.6-19.7 0.1-1.7 0.1-3.7 2.5-3.2 2.1 0.5 5.3-0.3 5.4 3.3 0.1 4.2 0 8.4 0 12.7C268.4 135.6 268.6 135.7 268.9 135.7" class="a"/><path d="M158.7 191.7c-0.8-0.1-1.1-0.2-1.5-0.3 -10.2-2.2-10.4-2.5-7.9-12.5 2.8-11.2 5.5-22.4 8.3-33.6 0.2-0.7 0.4-1.4 0.6-2.1 3.4-11.9 3.8-12.3 15.7-14.4 3.2-0.6 3.2-0.5 2.4 2.5 -2.2 8.5-4.5 17-6.6 25.5 -2.6 10.5-5 21-7.5 31.5C161.6 190.4 161.1 192.4 158.7 191.7" class="a"/><path d="M259.7 406.4c-5.4-0.1-6.3-1-4.8-5.4 6.1-18.4 8.1-37.6 10.9-56.6 1.3-8.5 3.5-16.8 5.4-25.2 0.4-1.7 0.9-4 2.2-4.9 1.8-1.2 4.3-1.2 6.5-1.7 0.2 1.5 0.7 3 0.5 4.4 -3 18.1-5.9 36.2-9.1 54.2 -1.9 10.5-4.5 20.8-6.6 31.2C264 405.5 262.4 406.9 259.7 406.4" class="a"/><path d="M283.8 167.9c-0.5 10.8-1 21.6-1.6 32.4 -0.1 1.3-0.4 2.5-0.6 3.8 -0.3 2.6-1.8 3.3-4.2 2.8 -2.8-0.6-6.5-0.3-8.3-2 -1.3-1.2-0.3-5 0-7.7 1.6-14.5 3.6-29.1 4.9-43.6 0.8-8.7 0.6-17.6 1-26.4 0.1-1.6-1.1-3.9 1.6-4.5 2.3-0.5 4.1 1 4.5 4.1 0.9 8.7 1.8 17.5 2.3 26.2 0.3 4.9 0.1 9.9 0.1 14.9C283.5 167.9 283.7 167.9 283.8 167.9" class="a"/><path d="M428.3 205.7c-4.4 0.1-4.3 0.1-4.9-4.4 -2.4-17.2-5-34.4-7.3-51.6 -0.6-4.7-0.4-9.4-0.6-14.2 -0.1-1.9 1-2.6 2.6-2.7 1.3-0.1 2.6-0.1 3.8-0.2 2.2-0.1 2.7 0.5 3.1 3 2 13.9 4.4 27.8 6.6 41.7 1.2 7.6 2.2 15.2 3.3 22.8 0.7 5 0.5 5.3-4.5 5.7C429.7 205.8 429 205.7 428.3 205.7" class="a"/><path d="M404.4 316.1c0.4-1.9-1.2-4.4 2.2-4.9 3.5-0.5 5.4 0.4 6.3 3.7 2.3 8.5 4.3 17 6.5 25.5 0.7 2.8 1.7 5.6 2.5 8.4 0.7 2.5 1.9 5 1.9 7.4 -0.1 8 2.1 15.6 3.6 23.3 0.3 1.6 0.8 3.3 0.5 4.9 -0.2 1.2-1.3 2.4-2.4 3.1 -0.3 0.2-2.2-1-2.6-1.9 -7.3-16.2-14.2-32.6-16.1-50.6C406 328.7 405.1 322.4 404.4 316.1" class="a"/><path d="M529.1 132.5c3.7 0.5 5.7 1.5 7.5 4.9 7.7 14.7 9.4 31.1 13.9 46.7 0.9 3-0.1 4.6-2.6 5.6 -2.5 1-5.2 1.9-7.7 2.9 -2.4 0.9-3.4-0.1-3.8-2.3 -1.2-6.1-2.6-12.2-3.6-18.3 -1.9-12.1-3.7-24.2-5.5-36.4C526.9 133.5 527.2 132.2 529.1 132.5" class="a"/><path d="M399.1 139.4c-0.1-0.9-0.2-1.8-0.3-2.7 0-0.5-0.1-1.5 0.1-1.5 2-0.5 4.1-1.1 6.2-1.3 1.9-0.2 2.4 1.1 2.6 2.7 2.8 21.6 5.5 43.2 8.3 64.7 0.1 0.7 0.2 1.5 0.2 2.2 0 0.4 0 1-0.1 1 -2.9 0.6-5.9 1.3-8.9 1.4 -0.7 0-2-2-2.2-3.1 -0.6-4.3-0.7-8.7-1.1-13.1 -1.5-16.7-3.1-33.5-4.6-50.2C399.1 139.4 399.1 139.4 399.1 139.4" class="a"/><path d="M484.1 200.1c-0.4 0.5-0.9 2-1.9 2.4 -2.6 1-5.9-0.3-6.4-2.4 -0.8-3-1.2-6.1-1.7-9.2 -2.6-16.6-5.1-33.3-7.8-49.9 -0.5-3.1-1.2-6.1-1.9-9.1 -0.6-2.5-0.1-3.7 2.8-3.9 6.1-0.6 6.7-0.5 7.7 5.5 2.5 16.3 4.7 32.6 7 48.9C482.6 187.9 483.3 193.6 484.1 200.1" class="a"/><path d="M447.4 203.5c-4.6 0-4.7-0.1-5.4-4.2 -2.4-15.2-4.8-30.4-7.3-45.6 -1-6.5-2.3-13-3.3-19.5 -0.1-0.6 0.1-1.9 0.2-1.9 2.5-0.4 5.1-0.9 7.5-0.7 0.8 0.1 1.7 2.2 2 3.4 1.2 5.9 2.1 11.9 3.1 17.9 2.4 14.1 4.8 28.2 7.2 42.3 0.2 1.1 0.4 2.2 0.6 3.2C452.7 203.5 452.7 203.5 447.4 203.5" class="a"/><path d="M454.2 129.2c2.2-0.4 3.1 0.8 3.5 3 1.7 10.7 3.6 21.3 5.3 32 1.7 11.4 3.2 22.9 4.8 34.3 0.2 1.7 1.3 3.7-1.7 4.2 -3.4 0.6-5.8-0.4-6.3-3.2 -2.6-14.1-5.2-28.1-7.7-42.2 -1.3-7.4-2.5-14.8-3.8-22.2 -0.9-5.1-0.8-5.2 4.2-5.7C453 129.3 453.5 129.2 454.2 129.2" class="a"/><path d="M190.7 129.9c-1.4 9-2.9 18.9-4.6 28.8 -1.7 10.3-3.6 20.5-5.4 30.8 -0.2 1.4-0.3 3.1-1 4.2 -2.7 3.8-5.8-0.4-8.8 0.2 -1.7 0.3-2.5-1.1-2.1-2.9 0.7-2.7 1.3-5.3 1.9-8 3.3-14.2 6.7-28.5 9.8-42.8 0.9-4 3.7-7.6 2.8-12.1 -0.1-0.5 2.3-1.8 3.6-2.2C190.7 124.8 190.9 125.1 190.7 129.9" class="a"/><path d="M545.1 135.7c4 1.1 7.2 1.9 10.3 3 0.9 0.3 1.6 1.5 2 2.4 5.3 11.7 10.5 23.4 15.7 35 1 2.2 1.1 3.6-1.9 4.3 -3.4 0.8-6.6 2-9.9 3.2 -2.5 1-3.7 0.3-4.3-2.2 -1.6-6.6-3.1-13.2-5-19.7 -2.2-7.9-4.7-15.7-7-23.6C544.9 137.5 545.1 136.7 545.1 135.7" class="a"/><path d="M86 143.7c7.7-0.5 8-0.4 6.6 6.1 -1.7 8.6-3.9 17.1-5.9 25.6 -0.6 2.6-1.8 3.5-4.7 3 -2.8-0.5-5.8 0-8.7 0.2 -4.8 0.3-5 0.1-3.4-4.8 2.2-6.4 4.3-12.8 6.4-19.2 0.6-1.7 1.2-3.5 1.6-5.2 1.2-5.3 1.1-5.3 6.4-5.6C85.3 143.6 86.2 143.7 86 143.7" class="a"/><path d="M57.5 179.5c-2.6-0.3-5-0.6-7.4-0.9 -4.6-0.6-4.8-0.7-3.5-5.4 1.5-5.8 3.2-11.6 5-17.4 2.5-8.1 4.3-9.5 12.6-10.1 2.3-0.2 4.7-0.2 7-0.4 -0.5 2.6-0.7 5.3-1.5 7.8 -2.5 7.6-5.2 15.2-7.9 22.8C61 178.2 60.2 180.3 57.5 179.5" class="a"/><path d="M112.1 140.5c3-0.3 2.8 1.8 2.4 3.6 -0.9 4.9-2 9.7-3.1 14.5 -1.4 6.1-3.1 12.1-4.6 18.1 -0.6 2.3-1.6 3.7-4.2 2.9 -0.7-0.2-1.4-0.2-2.2-0.3 -2.2-0.3-4.5-0.7-6.7-1 0.4-2.3 0.8-4.7 1.2-7 1.7-9 3.5-18 5.3-26.9 0.2-1 1.3-2.4 2.1-2.6C105.5 141.1 108.9 140.9 112.1 140.5" class="a"/><path d="M582.8 177.7c-0.5-0.6-1.6-1.3-2-2.3 -4.9-10.2-9.7-20.5-14.4-30.8 -0.3-0.7-0.2-1.7-0.3-2.5 0.9 0.1 1.8 0 2.6 0.2 3.9 1.1 7.8 2.2 11.5 3.7 1.7 0.7 3.6 2.2 4.3 3.8 3.3 7.5 6.1 15.3 9.1 22.9 0.8 2 0.1 3.2-2 3.5C588.8 176.7 586.1 177.1 582.8 177.7" class="a"/><path d="M43.7 149c1.9-0.1 2.8 0.3 2.1 2.5 -2.3 7.7-4.6 15.4-6.7 23.2 -0.7 2.5-2 3.3-4.4 2.8 -1.6-0.3-3.2-0.7-4.8-1.1 -1.6-0.4-2.3-1.5-2-3.3 1.1-6.5 1.9-13 3.1-19.5 0.2-1.2 1.4-2.8 2.4-3.1C36.7 149.7 40.2 149.5 43.7 149" class="a"/><path d="M607.5 174.9c-5.8 0.2-5.7 0.1-7.6-5.3 -2.2-6-4.5-11.9-6.8-17.9 -0.9-2.3-0.2-3.1 2.1-2.5 3 0.8 6.1 1.3 9 2.5 1.7 0.7 3.4 2.2 4.2 3.8 2.3 4.5 4.3 9.3 6.1 14 1.6 4.2 1 5-3.6 5.4C609.7 175 608.6 174.9 607.5 174.9" class="a"/><path d="M19.5 173.7c-4.5-3.1-8.7-5.7-12.4-8.8 -0.7-0.6-0.4-4.2 0.5-4.8 4.6-2.9 9.5-5.3 14.4-7.6 1.5-0.7 2.3 0.5 2 2.2 -0.9 5.4-1.8 10.8-2.8 16.2C21 171.7 20.3 172.4 19.5 173.7" class="a"/><path d="M623.5 173.4c-0.5-1-1-1.9-1.4-2.9 -1.5-3.7-2.9-7.4-4.3-11.2 -0.2-0.6 0.1-1.3 0.1-2 0.5 0.2 1.1 0.3 1.5 0.7 3.8 3.1 7.6 6.2 11.4 9.4 1.4 1.2 1.5 2.5-0.5 3.2 -1.9 0.7-3.8 1.3-5.6 2L623.5 173.4z" class="a"/><polygon points="273.4 400.5 273.3 400.7 273.5 400.5 " class="a"/></svg>