<?xml version="1.0" encoding="utf-8"?>
<!-- Generator: Adobe Illustrator 16.0.0, SVG Export Plug-In . SVG Version: 6.00 Build 0)  -->
<!DOCTYPE svg PUBLIC "-//W3C//DTD SVG 1.1//EN" "http://www.w3.org/Graphics/SVG/1.1/DTD/svg11.dtd">
<svg version="1.1" id="Layer_1" xmlns="http://www.w3.org/2000/svg" xmlns:xlink="http://www.w3.org/1999/xlink" x="0px" y="0px"
	 width="471px" height="341px" viewBox="0 0 471 341" enable-background="new 0 0 471 341" xml:space="preserve">
<g>
	<polygon fill="#F98233" points="460.57,298.19 460.37,298.21 460.44,297.95 	"/>
	<g>
		<path fill="#F98233" d="M95.69,315.69c-3.31,0.17-6.62,0.28-9.92,0.53c-1.11,0.08-2.23,0.41-3.29,0.78
			c-6.04,2.15-12.04,4.41-18.1,6.51c-5.15,1.79-10.45,2.44-15.9,1.89c-5.62-0.58-8.52-4.2-8.47-9.85
			c0.05-6.57,3.06-11.33,7.85-15.42c5.43-4.64,12.01-6.75,18.59-8.96c1.52-0.51,3.04-1.27,4.32-2.22c3.8-2.84,7.54-5.78,11.2-8.8
			c2.62-2.16,4.85-4.83,7.63-6.73c4.78-3.25,9.83-6.12,14.82-9.06c3.22-1.91,6.19-4.05,8.96-6.62c3.17-2.95,6.92-5.26,10.26-8.03
			c5.57-4.63,11.02-9.42,16.53-14.12c0.98-0.83,0.49-1.48-0.24-2c-3.12-2.21-6.35-4.28-9.41-6.57c-3.47-2.6-7.18-5.04-10.08-8.2
			c-2.02-2.19-3.97-4.13-6.65-5.36c-0.28-0.13-0.52-0.34-0.77-0.52c-3.7-2.66-7.42-5.3-11.09-8c-1-0.73-1.89-1.62-2.76-2.5
			c-5.37-5.38-11.26-10.02-18.15-13.39c-2.85-1.39-5.48-3.27-8.12-5.07c-1.55-1.05-3.13-1.18-4.7-0.46
			c-4.5,2.06-8.93,4.26-13.4,6.38c-1.11,0.53-2.25,1.08-3.43,1.39c-4.11,1.05-8.19,2.42-12.37,2.9c-6.01,0.68-11.99,2.39-18.17,1.14
			c-2.31-0.47-4.74-0.42-7.11-0.56c-6.47-0.37-9.98-4.74-11.75-9.58c-0.23-0.62-0.01-1.4-0.01-2.11c0.63,0.17,1.31,0.24,1.88,0.54
			c2.12,1.11,2.65,1.08,4.19-0.85c1.74-2.19,3.46-4.41,5.02-6.73c0.42-0.62,0.62-1.94,0.25-2.42c-0.79-1.05-1.94-0.51-2.64,0.35
			c-1.24,1.52-2.29,3.2-3.51,4.75c-0.6,0.76-1.04,1.88-2.43,1.44c-1.73-0.53-3.12-1.88-3.14-3.37c-0.12-6.85,1.11-13.4,4.35-19.5
			c0.63-1.19,1.28-2.37,1.87-3.58c2.66-5.46,6.34-10.14,10.74-14.31c0.87-0.83,1.59-1.9,2.14-2.97c2.34-4.56,4.81-9.02,8.14-12.95
			c1.13-1.34,2.21-2.74,3.17-4.2c4.49-6.82,10.12-12.28,17.81-15.39c4.6-1.86,9.17-3.8,13.76-5.69c0.38-0.16,0.79-0.36,1.18-0.36
			c3.63-0.08,3.94-0.69,3.74-4.87c-0.2-4.2,0.99-7.94,2.58-11.67c0.24-0.57,0.46-1.16,0.58-1.76c1.62-8.32,5.31-15.76,9.31-23.17
			c3.93-7.28,9.99-11.93,16.78-16.11c3.84-2.36,8.07-4.28,10.83-8.18c0.87-1.24,2.15-2.24,3.39-3.15c3.4-2.51,5.79-5.9,8.17-9.27
			c7.54-10.69,17.94-16.63,30.69-18.77c1.22-0.21,2.45-0.62,3.66-0.57c6.06,0.27,9.15,5.85,6.36,11.38
			c-1.16,2.31-2.49,4.54-3.52,6.91c-0.95,2.17-1.5,4.51-2.42,6.69c-1.01,2.38-2.19,4.69-3.41,6.96
			c-4.03,7.49-8.28,14.86-12.13,22.44c-3.26,6.42-8.49,10.68-14.48,14.1c-4.13,2.36-8.52,4.28-12.89,6.18
			c-5.85,2.55-10.29,6.45-13.16,12.21c-1.15,2.3-2.64,4.46-4.15,6.55c-0.9,1.24-2,2.42-3.93,1.51c-0.4-0.19-1.58,0.31-1.72,0.72
			c-0.23,0.67-0.14,1.71,0.27,2.26c0.87,1.18,2.3,1.63,3.61,0.9c1.6-0.89,3.31-1.86,4.44-3.23c1.76-2.14,3.28-4.55,4.53-7.04
			c2.5-4.97,6.27-8.41,11.32-10.61c3.42-1.49,6.77-3.15,10.16-4.71c3.98-1.84,7.59-4.22,10.92-7.08c3.19-2.73,5.91-5.74,7.81-9.55
			c2.87-5.75,5.91-11.42,8.98-17.06c1.39-2.54,2.75-5.19,4.62-7.35c1.86-2.15,4.22-3.95,6.6-5.55c2.91-1.96,5.97-3.71,9.54-4.38
			c2.12-0.4,4.14-1.28,6.26-1.74c2.97-0.65,5.14,0.86,5.53,3.74c0.09,0.65-0.14,1.39-0.39,2.02c-1.06,2.71-3.17,4.53-5.36,6.33
			c-1.24,1.02-2.33,2.28-3.28,3.59c-2.84,3.91-5.6,7.89-8.34,11.88c-0.46,0.66-0.67,1.49-1.04,2.22c-1.32,2.54-2.65,5.07-4,7.59
			c-0.19,0.35-0.74,0.68-0.7,0.95c0.29,1.78-1.04,2.58-2.03,3.6c-3.07,3.12-5.44,6.92-9.24,9.36c-0.91,0.58-1.49,1.7-2.17,2.61
			c-2.83,3.82-6.79,6.33-10.52,9.12c-1.4,1.05-2.81,2.09-4.22,3.13c-0.25,0.18-0.46,0.49-0.74,0.55c-3.06,0.74-6.13,1.44-9.19,2.15
			c-0.1,0.02-0.21-0.04-0.31-0.01c-5.83,1.57-12.19,1.15-17.5,4.68c-1.86,1.23-1.95,1.56,0.14,2.55c7.28,3.46,12.1,9.53,17.11,15.5
			c1.96,2.34,4.65,4.07,6.99,6.1c4.46,3.89,9.77,6.17,15.25,8.14c0.78,0.28,1.59,0.6,2.4,0.62c5.06,0.13,10.12,0.19,15.17,0.26
			c1.03,0.01,2.07-0.07,3.1-0.01c6.76,0.38,13.52,0.91,20.28,1.16c9.61,0.36,18.96-1,27.99-4.53c4.43-1.73,9.1-2.84,13.59-4.44
			c4.68-1.67,9.3-3.49,13.88-5.42c8.88-3.74,17.83-7.18,27.23-9.47c4.4-1.07,8.59-2.98,12.9-4.43c5.7-1.91,11.35-4.03,17.16-5.51
			c4.58-1.17,9.38-1.5,14.07-2.22c1.73-0.26,3.46-0.64,5.2-0.83c3.06-0.34,6.14-0.54,9.2-0.87c2.05-0.22,4.11-0.44,6.12-0.89
			c9.74-2.14,19.63-2.93,29.56-2.78c6.76,0.1,13.4,1.3,19.54,4.42c1.85,0.94,3.79,1.72,5.59,2.74c1.4,0.8,2.17,0.67,3.34-0.63
			c4.05-4.52,7.59-9.54,12.55-13.22c1.04-0.77,1.62-2.12,2.5-3.13c3.41-3.94,7.29-7.37,12.07-9.51c2.52-1.13,5.25-1.81,7.94-2.52
			c2.2-0.58,4.47-0.9,6.71-1.31c3.47-0.64,5.66,0.68,5.9,4.13c0.31,4.52,0.34,9.08,0.09,13.6c-0.18,3.25-0.98,6.46-1.57,9.68
			c-0.14,0.81-0.46,1.6-0.81,2.35c-3.62,7.59-8.08,14.42-16,18.28c-3.57,1.74-3.6,1.89-1.79,5.36c1.39,2.66,3.13,5.13,4.55,7.78
			c2.65,4.93,3.44,10.43,4.3,15.83c0.57,3.54,0.57,7.2,0.55,10.8c-0.01,1.24-0.81,2.49-1.3,3.71c-0.42,1.03-1.16,2-1.32,3.06
			c-0.58,3.75-2.1,7.12-3.69,10.51c-0.86,1.84-1.08,3.98-1.87,5.86c-0.99,2.35-2.18,4.64-3.45,6.86c-1.5,2.63-1.55,2.83,0.93,4.34
			c5.2,3.17,10.41,6.32,15.63,9.44c3.1,1.85,6.22,3.68,9.38,5.42c3.54,1.95,7.12,3.8,10.71,5.65c3.31,1.71,6.71,3.25,9.96,5.08
			c4.07,2.3,6.96,5.64,7.39,10.47c0.41,4.62,0.6,9.27,0.67,13.92c0.02,1.5-0.59,3.03-1.01,4.52c-1.24,4.37-2.51,8.73-3.79,13.09
			c-0.26,0.89-0.47,1.84-0.95,2.62c-3.49,5.65-4.49,12.21-6.78,18.29c-3.17,8.43-6.09,17-9.94,25.11c-2.15,4.51-3.64,9.2-5.52,13.77
			c-3.22,7.84-7.26,15.17-14.03,20.58c-5.88,4.71-12.53,6.7-20.05,5.05c-4.12-0.91-7.49-6.22-6.62-10.97
			c0.53-2.93,1.19-5.97,2.52-8.59c2.57-5.1,5.65-9.97,11.15-12.52c4.26-1.97,6.28-5.78,8.28-9.65c0.14-0.27,0.16-0.64,0.36-0.85
			c5.07-5.51,5.09-12.79,6.37-19.46c1.04-5.42,0.9-11.13,0.77-16.7c-0.16-7.16-4.43-12.59-11.35-14.12
			c-0.51-0.11-1.02-0.25-1.48-0.48c-6.42-3.13-13.4-4.12-20.31-5.45c-4.06-0.78-8.06-1.89-12.11-2.76
			c-2.73-0.59-5.48-1.09-8.23-1.54c-3.29-0.54-6.53-1.18-9.44-2.94c-0.78-0.47-1.71-0.74-2.61-0.97
			c-7.63-1.96-15.28-3.82-22.88-5.88c-3.08-0.83-6.05-2.1-9.07-3.16c-1.07-0.38-2.16-0.7-3.21-1.13c-0.75-0.3-1.55-0.62-2.16-1.14
			c-2.22-1.86-4.59-3.61-6.51-5.76c-6.76-7.61-11.16-16.22-10.16-26.77c0.43-4.54,2.1-8.64,5.28-12.03c0.21-0.23,0.57-0.45,0.59-0.7
			c0.08-0.75,0.33-1.81-0.05-2.19c-0.41-0.4-1.68-0.47-2.17-0.12c-1.07,0.76-2.03,1.78-2.78,2.88c-4.6,6.76-5.49,14.2-3.68,22.02
			c1.38,5.96,4.2,11.29,7.8,16.14c1.57,2.12,3.81,3.78,5.88,5.49c3.99,3.29,3.95,4-0.85,5.92c-2.01,0.8-4.41,0.97-6.09,2.17
			c-3.78,2.7-8.63,1.98-12.44,4.35c-0.41,0.26-1,0.32-1.51,0.3c-3.81-0.12-7.28,1.28-10.86,2.31c-2.07,0.59-4.24,0.82-6.36,1.19
			c-0.3,0.05-0.64,0-0.93,0.09c-9.39,2.99-19.24,2.19-28.83,3.59c-0.51,0.08-1.09,0.01-1.53,0.23c-5.5,2.71-11.11,0.65-16.66,0.34
			c-5.08-0.29-10.16-0.59-15.13,0.56c-2.55,0.59-3.91-0.12-5.41-2.19c-2.67-3.69-5.68-7.13-8.71-10.54
			c-4.41-4.96-9.01-9.76-11.54-16.07c-0.35-0.88-1-1.86-2.07-1.22c-0.49,0.3-0.85,1.49-0.67,2.1c0.49,1.67,1.05,3.43,2.04,4.82
			c2.77,3.87,5.71,7.62,8.69,11.34c2.92,3.63,6.09,7.07,8.93,10.77c2.51,3.28,2.31,8.16-0.59,11.09c-3.41,3.45-7.12,6.61-10.8,9.79
			c-1.95,1.69-4.04,3.24-6.2,4.66c-2.75,1.8-5.61,3.44-8.47,5.07c-3.33,1.91-6.65,3.83-10.06,5.57c-3.03,1.55-6.24,2.74-9.24,4.33
			c-2.27,1.2-4.33,2.79-6.51,4.17c-1.66,1.05-3.26,2.26-5.04,3.04c-5.12,2.24-10.32,4.3-15.49,6.43c-0.29,0.12-0.74,0.12-0.85,0.32
			c-1.46,2.68-4.61,2.79-6.79,4.49c-4.21,3.3-9.07,5.75-13.4,8.91c-2.62,1.91-5.23,3.66-8.32,4.63
			C105.89,313.97,100.95,315.55,95.69,315.69z M67.5,137c-0.57-4.9-3.6-7.37-8.51-6.84c-1.33,0.14-2.67,0.43-3.93,0.86
			c-4.36,1.49-5.45,3.07-5.53,7.67c-0.01,0.41-0.05,0.83-0.04,1.24c0.1,4.06,2.29,7.14,5.87,8.25c4.19,1.31,7.58,0.23,10.12-3.24
			C67.21,142.57,67.83,139.9,67.5,137z M410.3,110.75c1.64-0.68,2.95-1.05,4.03-1.77c0.53-0.35,1.08-1.72,0.84-2
			c-1.58-1.94,0.18-2.15,1.25-2.78c0.62-0.36,1.41-0.65,1.76-1.2c0.43-0.68,0.49-1.6,0.7-2.41c-0.75-0.05-1.59-0.34-2.23-0.1
			c-1.83,0.68-3.61,1.51-5.33,2.43c-0.63,0.34-1.04,1.09-1.55,1.66c0.51,0.44,1.02,0.88,1.53,1.32c0.25,0.22,0.5,0.43,0.74,0.65
			c-0.25,0.17-0.48,0.4-0.75,0.5c-0.38,0.14-0.8,0.19-1.21,0.27c-1.23,0.24-3.16-0.12-2.83,1.82
			C407.39,109.85,409.3,110.26,410.3,110.75z M159.73,272.83c-3.92,1.64-7.67,3.14-11.34,4.81c-0.51,0.23-0.63,1.32-0.93,2.01
			c0.72,0.22,1.58,0.8,2.15,0.59c3.69-1.38,7.34-2.87,10.93-4.48c0.51-0.23,0.89-1.31,0.85-1.96
			C161.37,273.45,160.33,273.16,159.73,272.83z M135.36,210.87c-0.59-1.23-0.95-2.49-1.69-3.44c-1.57-2.02-3.27-3.95-5.08-5.76
			c-0.36-0.36-1.43-0.03-2.17-0.02c0.09,0.75,0.12,1.52,0.28,2.26c0.06,0.25,0.45,0.41,0.64,0.65c1.43,1.87,2.85,3.75,4.26,5.64
			c0.43,0.58,0.71,1.31,1.24,1.76c0.4,0.33,1.19,0.55,1.62,0.37C134.9,212.14,135.07,211.39,135.36,210.87z M241.17,225.38
			c0.71-0.62,1.69-1.09,1.71-1.6c0.02-0.55-0.75-1.48-1.35-1.65c-3.14-0.92-6.34-1.67-9.53-2.42c-0.41-0.1-1.15,0.06-1.33,0.35
			c-0.27,0.45-0.39,1.2-0.2,1.67c0.21,0.5,0.8,1.03,1.32,1.18C234.85,223.77,237.92,224.53,241.17,225.38z M190.18,228.32
			c-0.32-2-5.83-7.45-7.62-7.56c-0.57-0.04-1.5,0.41-1.68,0.87c-0.18,0.45,0.22,1.35,0.64,1.78c1.8,1.82,3.71,3.53,5.58,5.28
			c0.3,0.28,0.56,0.72,0.91,0.8c0.54,0.12,1.22,0.16,1.68-0.08C190.01,229.24,190.08,228.56,190.18,228.32z M131.92,282.04
			c-0.59-1.42-1.52-1.62-2.36-1.02c-2.35,1.66-4.64,3.4-6.83,5.27c-0.43,0.37-0.27,1.42-0.39,2.15c0.75,0.04,1.7,0.38,2.2,0.05
			c2.13-1.42,4.17-3,6.16-4.63C131.27,283.39,131.57,282.58,131.92,282.04z M243.39,218.47c0.99-0.71,2.14-1.11,2.27-1.73
			c0.28-1.3-0.95-1.58-2-1.83c-2.2-0.55-4.4-1.12-6.58-1.74c-0.92-0.26-2.03-0.73-2.33,0.5c-0.15,0.63,0.45,1.94,1.04,2.18
			C238.24,216.88,240.81,217.61,243.39,218.47z M127.49,277.48c0.69-0.17,0.92-0.18,1.08-0.28c2.43-1.53,4.87-3.04,7.26-4.63
			c0.81-0.54,1.42-1.49,0.58-2.32c-0.42-0.41-1.6-0.52-2.15-0.23c-2.17,1.16-4.25,2.49-6.3,3.85c-0.57,0.38-1.24,1.05-1.29,1.62
			C126.62,276.16,127.21,276.87,127.49,277.48z M378.35,212.75c0.6-0.57,1.42-0.99,1.46-1.47c0.03-0.53-0.62-1.14-1.05-1.64
			c-0.17-0.2-0.56-0.24-0.86-0.29c-2.43-0.37-4.86-0.74-7.29-1.06c-0.94-0.12-2.08-0.1-2.13,1.11c-0.02,0.58,0.75,1.6,1.32,1.74
			C372.58,211.79,375.41,212.21,378.35,212.75z M167.85,156.27c0.54-0.58,1.46-1.12,1.6-1.81c0.22-1.14-0.84-1.47-1.83-1.56
			c-2.45-0.21-4.9-0.42-7.35-0.6c-0.92-0.06-1.98-0.16-2.23,1.07c-0.24,1.18,0.61,1.74,1.56,1.88
			C162.24,155.64,164.89,155.91,167.85,156.27z M442.11,228.73c-1.43-2.49-2.74-4.91-4.22-7.22c-0.22-0.35-1.33-0.4-1.87-0.18
			c-0.33,0.13-0.65,1.17-0.47,1.56c1.15,2.41,2.4,4.77,3.73,7.08c0.23,0.39,1.2,0.76,1.54,0.58
			C441.33,230.3,441.58,229.55,442.11,228.73z M121.35,58.85c2.94-0.98,5.41-2.09,7.12-4.3c0.37-0.48,0.21-1.49,0.03-2.19
			c-0.05-0.19-1.21-0.37-1.62-0.14c-2.16,1.21-4.28,2.48-6.32,3.88c-0.45,0.31-0.78,1.31-0.62,1.82
			C120.09,58.4,120.98,58.63,121.35,58.85z M107.59,289.24c-0.51-0.16-1.45-0.75-1.76-0.51c-2.14,1.6-4.25,3.28-6.15,5.15
			c-0.85,0.84-0.04,2.16,1.14,2.15c1.54-0.02,6.63-4.5,6.76-5.95C107.58,289.97,107.58,289.86,107.59,289.24z M378.6,198.47
			c-0.16-0.24-0.34-0.61-0.61-0.89c-1.26-1.28-6.52-1.86-7.92-0.8c-0.41,0.31-0.79,1.05-0.7,1.51c0.09,0.44,0.74,1.01,1.22,1.09
			c2.1,0.37,4.22,0.62,6.33,0.85C378.06,200.35,378.66,199.8,378.6,198.47z M175.28,232.53c-1.48-2.09-2.89-4.2-4.47-6.17
			c-0.24-0.3-1.37-0.17-1.88,0.12c-0.3,0.17-0.47,1.21-0.24,1.59c1.21,2.01,2.52,3.98,3.91,5.86c0.25,0.34,1.18,0.49,1.61,0.31
			C174.63,234.05,174.82,233.32,175.28,232.53z M105.31,185.92c0.04-1.77-4.94-6.1-6.66-5.78c-1.03,0.19-1.67,1.39-0.95,2.09
			c1.77,1.71,3.66,3.32,5.63,4.8C104.2,187.67,105.29,186.94,105.31,185.92z M434.72,77.04c-0.65-0.15-1.52-0.65-1.96-0.4
			c-1.86,1.08-3.63,2.33-5.33,3.65c-0.34,0.26-0.42,1.14-0.28,1.64c0.09,0.32,0.78,0.64,1.22,0.68c1.71,0.15,5.7-2.6,6.17-4.18
			C434.64,78.15,434.63,77.83,434.72,77.04z M338.06,183.14c-1.08,0.32-1.78,0.51-2.46,0.74c-0.94,0.31-1.77,0.8-1.48,1.96
			c0.31,1.23,1.29,1.02,2.25,0.96c1.52-0.11,3.05-0.03,4.56-0.18c0.61-0.06,1.17-0.54,1.76-0.83c-0.36-0.65-0.57-1.67-1.11-1.89
			C340.38,183.41,339.02,183.33,338.06,183.14z M135,42.22c-0.04-1.4-1.14-1.91-2.25-1.14c-1.52,1.05-3.02,2.17-4.37,3.42
			c-0.47,0.44-0.48,1.38-0.7,2.09c0.74,0.14,1.72,0.65,2.18,0.36c1.63-1.04,3.11-2.32,4.58-3.59
			C134.79,43.07,134.88,42.48,135,42.22z M143.46,203.32c0.97,1.77,1.82,3.54,2.89,5.16c0.28,0.42,1.28,0.6,1.87,0.48
			c0.32-0.06,0.8-1.12,0.65-1.48c-0.81-1.88-1.73-3.73-2.8-5.47c-0.23-0.37-1.31-0.48-1.86-0.29
			C143.85,201.83,143.73,202.69,143.46,203.32z M160.64,168.87c-0.53-0.66-0.72-1.1-1.04-1.26c-1.65-0.83-3.3-1.67-5.01-2.33
			c-0.41-0.16-1.43,0.19-1.53,0.52c-0.19,0.58-0.14,1.55,0.23,1.96c1.45,1.58,3.4,2.33,5.51,2.39
			C159.35,170.15,159.94,169.37,160.64,168.87z M428.45,89.88c-0.85-0.15-1.79-0.62-2.32-0.34c-1.52,0.81-2.94,1.85-4.26,2.97
			c-0.4,0.34-0.65,1.41-0.41,1.81c0.25,0.42,1.41,0.8,1.76,0.57c1.68-1.1,3.22-2.4,4.78-3.67
			C428.21,91.05,428.21,90.65,428.45,89.88z M424.91,227.21c-0.22,0.81-0.75,1.67-0.52,2.15c0.99,2.02,2.63,3.46,4.84,4.05
			c0.45,0.12,1.31-0.24,1.54-0.63c0.22-0.38,0.07-1.3-0.27-1.63c-1.26-1.22-2.64-2.32-4.01-3.42
			C426.2,227.5,425.74,227.47,424.91,227.21z M397.19,206.52c-0.21,0.17-0.89,0.44-0.91,0.76c-0.04,0.63,0.07,1.52,0.49,1.88
			c1.17,0.99,2.49,1.82,3.81,2.6c0.36,0.21,1.16,0.22,1.38-0.02c0.35-0.38,0.58-1.09,0.49-1.6
			C402.23,208.73,398.9,206.41,397.19,206.52z M254.91,208.98c0.96-0.83,2.03-1.46,2.67-2.38c0.7-1.02-0.14-2.04-1.4-1.91
			c-1.28,0.13-2.57,0.2-3.83,0.45c-0.51,0.1-1.22,0.52-1.35,0.94c-0.13,0.44,0.16,1.33,0.54,1.56
			C252.47,208.19,253.56,208.47,254.91,208.98z M285.45,203.69c-1.66,0.47-2.93,0.67-4.03,1.2c-0.57,0.28-0.84,1.17-1.25,1.78
			c0.68,0.34,1.38,0.98,2.05,0.94c1.22-0.06,2.51-0.35,3.59-0.89c0.67-0.34,1.03-1.3,1.53-1.99
			C286.61,204.33,285.89,203.94,285.45,203.69z M392.33,167.28c-0.32,0.65-1.01,1.46-0.83,1.76c0.98,1.66,2.11,3.23,3.33,4.71
			c0.2,0.24,1.2,0.06,1.64-0.23c0.28-0.18,0.44-1.06,0.25-1.38c-0.92-1.48-1.95-2.89-3.01-4.28
			C393.51,167.6,393,167.56,392.33,167.28z M381.37,183.92c-0.08-0.22-0.08-0.51-0.22-0.59c-1.56-0.93-3.12-1.89-4.75-2.7
			c-0.27-0.13-1.13,0.29-1.24,0.61c-0.16,0.5-0.12,1.43,0.21,1.66c1.32,0.94,2.71,1.83,4.21,2.44
			C380.61,185.77,381.33,185.08,381.37,183.92z M137.32,181.94c-1.13,0.17-1.73,1.54-0.83,2.28c1.15,0.94,2.53,1.7,3.92,2.21
			c1.02,0.38,1.9-0.59,1.64-1.51C141.77,183.86,138.46,181.77,137.32,181.94z M164.24,198.9c-0.37-1.54-0.45-2.51-0.85-3.32
			c-0.21-0.43-0.94-0.79-1.45-0.82c-0.33-0.02-0.84,0.56-1.02,0.98c-0.54,1.22,0.17,4.13,1.2,4.89c0.36,0.26,1.01,0.44,1.38,0.3
			c0.37-0.15,0.7-0.72,0.8-1.17C164.41,199.3,164.22,198.76,164.24,198.9z M358.97,153.97c-0.74,0.74-1.68,1.24-1.82,1.92
			c-0.25,1.15,0.79,1.54,1.79,1.57c1.26,0.04,2.64,1.11,3.74-0.25c0.23-0.29,0.22-1.23,0-1.36
			C361.6,155.18,360.4,154.67,358.97,153.97z M264.82,184.24c0.82-0.27,1.22-0.36,1.58-0.53c1.03-0.49,2.25-1.07,1.75-2.43
			c-0.56-1.52-1.8-0.81-2.84-0.43c-0.29,0.1-0.67,0.11-0.85,0.31c-0.5,0.54-1.41,1.38-1.27,1.68
			C263.5,183.5,264.36,183.88,264.82,184.24z M295.37,138.81c-1.57,0.54-3.24,0.26-3.13,2.05c0.08,1.29,1.14,1.86,2.42,1.79
			c1.26-0.07,2.52-1.35,2.17-2.43C296.62,139.59,295.76,139.17,295.37,138.81z M161.58,140.78c-1.73,0.22-2.94,0.41-2.78,1.96
			c0.12,1.14,1.06,1.38,2.06,1.26c1.17-0.15,2.37-0.54,2.14-1.96C162.91,141.45,161.88,141.02,161.58,140.78z M398.82,193.43
			c-0.34,0.36-1.37,0.95-1.36,1.54c0,1.52,1.38,1.49,2.5,1.48c0.99,0,1.98-0.35,1.9-1.5C401.75,193.43,400.44,193.49,398.82,193.43z
			 M122.68,162.82c-0.2,0.37-0.73,0.9-0.77,1.48c-0.1,1.32,1.42,2.79,2.53,2.48c0.45-0.13,1-0.76,1.07-1.23
			C125.68,164.42,124.1,162.76,122.68,162.82z M134.48,185.21c-0.84-0.47-1.44-1.07-1.93-0.99c-0.45,0.08-0.77,0.89-1.15,1.38
			c0.55,0.33,1.07,0.86,1.64,0.92C133.4,186.55,133.82,185.85,134.48,185.21z"/>
		<path fill="#F98233" d="M58.82,145.44c-3.14,0.27-5.97-2.09-6.2-5.18c-0.27-3.71,2.31-6.44,6.45-6.82
			c3.02-0.28,4.97,1.38,5.17,4.4C64.48,141.53,61.87,145.18,58.82,145.44z M60.62,137.53c-0.49-0.25-1.29-0.99-2.08-0.98
			c-1.36,0.03-1.98,1.28-1.74,2.42c0.13,0.6,1.24,1.3,1.98,1.39C60.03,140.52,60.85,139.38,60.62,137.53z"/>
	</g>
</g>
</svg>
