<svg xmlns="http://www.w3.org/2000/svg" width="471" height="341" viewBox="0 0 471 341"><style>.a{fill:#F98233;}</style><polygon points="460.6 298.2 460.4 298.2 460.4 298 " class="a"/><path d="M95.7 315.7c-3.3 0.2-6.6 0.3-9.9 0.5 -1.1 0.1-2.2 0.4-3.3 0.8 -6 2.2-12 4.4-18.1 6.5 -5.1 1.8-10.4 2.4-15.9 1.9 -5.6-0.6-8.5-4.2-8.5-9.8 0.1-6.6 3.1-11.3 7.9-15.4 5.4-4.6 12-6.7 18.6-9 1.5-0.5 3-1.3 4.3-2.2 3.8-2.8 7.5-5.8 11.2-8.8 2.6-2.2 4.9-4.8 7.6-6.7 4.8-3.2 9.8-6.1 14.8-9.1 3.2-1.9 6.2-4 9-6.6 3.2-2.9 6.9-5.3 10.3-8 5.6-4.6 11-9.4 16.5-14.1 1-0.8 0.5-1.5-0.2-2 -3.1-2.2-6.3-4.3-9.4-6.6 -3.5-2.6-7.2-5-10.1-8.2 -2-2.2-4-4.1-6.6-5.4 -0.3-0.1-0.5-0.3-0.8-0.5 -3.7-2.7-7.4-5.3-11.1-8 -1-0.7-1.9-1.6-2.8-2.5 -5.4-5.4-11.3-10-18.1-13.4 -2.8-1.4-5.5-3.3-8.1-5.1 -1.5-1-3.1-1.2-4.7-0.5 -4.5 2.1-8.9 4.3-13.4 6.4 -1.1 0.5-2.2 1.1-3.4 1.4 -4.1 1.1-8.2 2.4-12.4 2.9 -6 0.7-12 2.4-18.2 1.1 -2.3-0.5-4.7-0.4-7.1-0.6 -6.5-0.4-10-4.7-11.7-9.6 -0.2-0.6 0-1.4 0-2.1 0.6 0.2 1.3 0.2 1.9 0.5 2.1 1.1 2.7 1.1 4.2-0.8 1.7-2.2 3.5-4.4 5-6.7 0.4-0.6 0.6-1.9 0.3-2.4 -0.8-1-1.9-0.5-2.6 0.4 -1.2 1.5-2.3 3.2-3.5 4.8 -0.6 0.8-1 1.9-2.4 1.4 -1.7-0.5-3.1-1.9-3.1-3.4 -0.1-6.8 1.1-13.4 4.4-19.5 0.6-1.2 1.3-2.4 1.9-3.6 2.7-5.5 6.3-10.1 10.7-14.3 0.9-0.8 1.6-1.9 2.1-3 2.3-4.6 4.8-9 8.1-12.9 1.1-1.3 2.2-2.7 3.2-4.2 4.5-6.8 10.1-12.3 17.8-15.4 4.6-1.9 9.2-3.8 13.8-5.7 0.4-0.2 0.8-0.4 1.2-0.4 3.6-0.1 3.9-0.7 3.7-4.9 -0.2-4.2 1-7.9 2.6-11.7 0.2-0.6 0.5-1.2 0.6-1.8 1.6-8.3 5.3-15.8 9.3-23.2 3.9-7.3 10-11.9 16.8-16.1 3.8-2.4 8.1-4.3 10.8-8.2 0.9-1.2 2.2-2.2 3.4-3.1 3.4-2.5 5.8-5.9 8.2-9.3 7.5-10.7 17.9-16.6 30.7-18.8 1.2-0.2 2.5-0.6 3.7-0.6 6.1 0.3 9.2 5.9 6.4 11.4 -1.2 2.3-2.5 4.5-3.5 6.9 -0.9 2.2-1.5 4.5-2.4 6.7 -1 2.4-2.2 4.7-3.4 7 -4 7.5-8.3 14.9-12.1 22.4 -3.3 6.4-8.5 10.7-14.5 14.1 -4.1 2.4-8.5 4.3-12.9 6.2 -5.8 2.6-10.3 6.5-13.2 12.2 -1.1 2.3-2.6 4.5-4.1 6.6 -0.9 1.2-2 2.4-3.9 1.5 -0.4-0.2-1.6 0.3-1.7 0.7 -0.2 0.7-0.1 1.7 0.3 2.3 0.9 1.2 2.3 1.6 3.6 0.9 1.6-0.9 3.3-1.9 4.4-3.2 1.8-2.1 3.3-4.5 4.5-7 2.5-5 6.3-8.4 11.3-10.6 3.4-1.5 6.8-3.1 10.2-4.7 4-1.8 7.6-4.2 10.9-7.1 3.2-2.7 5.9-5.7 7.8-9.5 2.9-5.7 5.9-11.4 9-17.1 1.4-2.5 2.8-5.2 4.6-7.3 1.9-2.1 4.2-3.9 6.6-5.5 2.9-2 6-3.7 9.5-4.4 2.1-0.4 4.1-1.3 6.3-1.7 3-0.6 5.1 0.9 5.5 3.7 0.1 0.7-0.1 1.4-0.4 2 -1.1 2.7-3.2 4.5-5.4 6.3 -1.2 1-2.3 2.3-3.3 3.6 -2.8 3.9-5.6 7.9-8.3 11.9 -0.5 0.7-0.7 1.5-1 2.2 -1.3 2.5-2.6 5.1-4 7.6 -0.2 0.4-0.7 0.7-0.7 1 0.3 1.8-1 2.6-2 3.6 -3.1 3.1-5.4 6.9-9.2 9.4 -0.9 0.6-1.5 1.7-2.2 2.6 -2.8 3.8-6.8 6.3-10.5 9.1 -1.4 1.1-2.8 2.1-4.2 3.1 -0.2 0.2-0.5 0.5-0.7 0.6 -3.1 0.7-6.1 1.4-9.2 2.2 -0.1 0-0.2 0-0.3 0 -5.8 1.6-12.2 1.2-17.5 4.7 -1.9 1.2-1.9 1.6 0.1 2.6 7.3 3.5 12.1 9.5 17.1 15.5 2 2.3 4.7 4.1 7 6.1 4.5 3.9 9.8 6.2 15.3 8.1 0.8 0.3 1.6 0.6 2.4 0.6 5.1 0.1 10.1 0.2 15.2 0.3 1 0 2.1-0.1 3.1 0 6.8 0.4 13.5 0.9 20.3 1.2 9.6 0.4 19-1 28-4.5 4.4-1.7 9.1-2.8 13.6-4.4 4.7-1.7 9.3-3.5 13.9-5.4 8.9-3.7 17.8-7.2 27.2-9.5 4.4-1.1 8.6-3 12.9-4.4 5.7-1.9 11.4-4 17.2-5.5 4.6-1.2 9.4-1.5 14.1-2.2 1.7-0.3 3.5-0.6 5.2-0.8 3.1-0.3 6.1-0.5 9.2-0.9 2.1-0.2 4.1-0.4 6.1-0.9 9.7-2.1 19.6-2.9 29.6-2.8 6.8 0.1 13.4 1.3 19.5 4.4 1.9 0.9 3.8 1.7 5.6 2.7 1.4 0.8 2.2 0.7 3.3-0.6 4.1-4.5 7.6-9.5 12.6-13.2 1-0.8 1.6-2.1 2.5-3.1 3.4-3.9 7.3-7.4 12.1-9.5 2.5-1.1 5.3-1.8 7.9-2.5 2.2-0.6 4.5-0.9 6.7-1.3 3.5-0.6 5.7 0.7 5.9 4.1 0.3 4.5 0.3 9.1 0.1 13.6 -0.2 3.3-1 6.5-1.6 9.7 -0.1 0.8-0.5 1.6-0.8 2.4 -3.6 7.6-8.1 14.4-16 18.3 -3.6 1.7-3.6 1.9-1.8 5.4 1.4 2.7 3.1 5.1 4.6 7.8 2.7 4.9 3.4 10.4 4.3 15.8 0.6 3.5 0.6 7.2 0.6 10.8 0 1.2-0.8 2.5-1.3 3.7 -0.4 1-1.2 2-1.3 3.1 -0.6 3.8-2.1 7.1-3.7 10.5 -0.9 1.8-1.1 4-1.9 5.9 -1 2.4-2.2 4.6-3.4 6.9 -1.5 2.6-1.5 2.8 0.9 4.3 5.2 3.2 10.4 6.3 15.6 9.4 3.1 1.9 6.2 3.7 9.4 5.4 3.5 2 7.1 3.8 10.7 5.7 3.3 1.7 6.7 3.3 10 5.1 4.1 2.3 7 5.6 7.4 10.5 0.4 4.6 0.6 9.3 0.7 13.9 0 1.5-0.6 3-1 4.5 -1.2 4.4-2.5 8.7-3.8 13.1 -0.3 0.9-0.5 1.8-0.9 2.6 -3.5 5.7-4.5 12.2-6.8 18.3 -3.2 8.4-6.1 17-9.9 25.1 -2.1 4.5-3.6 9.2-5.5 13.8 -3.2 7.8-7.3 15.2-14 20.6 -5.9 4.7-12.5 6.7-20 5.1 -4.1-0.9-7.5-6.2-6.6-11 0.5-2.9 1.2-6 2.5-8.6 2.6-5.1 5.7-10 11.2-12.5 4.3-2 6.3-5.8 8.3-9.6 0.1-0.3 0.2-0.6 0.4-0.8 5.1-5.5 5.1-12.8 6.4-19.5 1-5.4 0.9-11.1 0.8-16.7 -0.2-7.2-4.4-12.6-11.3-14.1 -0.5-0.1-1-0.2-1.5-0.5 -6.4-3.1-13.4-4.1-20.3-5.4 -4.1-0.8-8.1-1.9-12.1-2.8 -2.7-0.6-5.5-1.1-8.2-1.5 -3.3-0.5-6.5-1.2-9.4-2.9 -0.8-0.5-1.7-0.7-2.6-1 -7.6-2-15.3-3.8-22.9-5.9 -3.1-0.8-6-2.1-9.1-3.2 -1.1-0.4-2.2-0.7-3.2-1.1 -0.7-0.3-1.5-0.6-2.2-1.1 -2.2-1.9-4.6-3.6-6.5-5.8 -6.8-7.6-11.2-16.2-10.2-26.8 0.4-4.5 2.1-8.6 5.3-12 0.2-0.2 0.6-0.4 0.6-0.7 0.1-0.7 0.3-1.8 0-2.2 -0.4-0.4-1.7-0.5-2.2-0.1 -1.1 0.8-2 1.8-2.8 2.9 -4.6 6.8-5.5 14.2-3.7 22 1.4 6 4.2 11.3 7.8 16.1 1.6 2.1 3.8 3.8 5.9 5.5 4 3.3 4 4-0.8 5.9 -2 0.8-4.4 1-6.1 2.2 -3.8 2.7-8.6 2-12.4 4.4 -0.4 0.3-1 0.3-1.5 0.3 -3.8-0.1-7.3 1.3-10.9 2.3 -2.1 0.6-4.2 0.8-6.4 1.2 -0.3 0.1-0.6 0-0.9 0.1 -9.4 3-19.2 2.2-28.8 3.6 -0.5 0.1-1.1 0-1.5 0.2 -5.5 2.7-11.1 0.7-16.7 0.3 -5.1-0.3-10.2-0.6-15.1 0.6 -2.5 0.6-3.9-0.1-5.4-2.2 -2.7-3.7-5.7-7.1-8.7-10.5 -4.4-5-9-9.8-11.5-16.1 -0.3-0.9-1-1.9-2.1-1.2 -0.5 0.3-0.8 1.5-0.7 2.1 0.5 1.7 1.1 3.4 2 4.8 2.8 3.9 5.7 7.6 8.7 11.3 2.9 3.6 6.1 7.1 8.9 10.8 2.5 3.3 2.3 8.2-0.6 11.1 -3.4 3.5-7.1 6.6-10.8 9.8 -1.9 1.7-4 3.2-6.2 4.7 -2.7 1.8-5.6 3.4-8.5 5.1 -3.3 1.9-6.6 3.8-10.1 5.6 -3 1.6-6.2 2.7-9.2 4.3 -2.3 1.2-4.3 2.8-6.5 4.2 -1.7 1.1-3.3 2.3-5 3 -5.1 2.2-10.3 4.3-15.5 6.4 -0.3 0.1-0.7 0.1-0.8 0.3 -1.5 2.7-4.6 2.8-6.8 4.5 -4.2 3.3-9.1 5.8-13.4 8.9 -2.6 1.9-5.2 3.7-8.3 4.6C105.9 314 101 315.6 95.7 315.7zM67.5 137c-0.6-4.9-3.6-7.4-8.5-6.8 -1.3 0.1-2.7 0.4-3.9 0.9 -4.4 1.5-5.4 3.1-5.5 7.7 0 0.4 0 0.8 0 1.2 0.1 4.1 2.3 7.1 5.9 8.3 4.2 1.3 7.6 0.2 10.1-3.2C67.2 142.6 67.8 139.9 67.5 137zM410.3 110.8c1.6-0.7 3-1 4-1.8 0.5-0.3 1.1-1.7 0.8-2 -1.6-1.9 0.2-2.1 1.3-2.8 0.6-0.4 1.4-0.6 1.8-1.2 0.4-0.7 0.5-1.6 0.7-2.4 -0.7 0-1.6-0.3-2.2-0.1 -1.8 0.7-3.6 1.5-5.3 2.4 -0.6 0.3-1 1.1-1.5 1.7 0.5 0.4 1 0.9 1.5 1.3 0.3 0.2 0.5 0.4 0.7 0.7 -0.2 0.2-0.5 0.4-0.7 0.5 -0.4 0.1-0.8 0.2-1.2 0.3 -1.2 0.2-3.2-0.1-2.8 1.8C407.4 109.9 409.3 110.3 410.3 110.8zM159.7 272.8c-3.9 1.6-7.7 3.1-11.3 4.8 -0.5 0.2-0.6 1.3-0.9 2 0.7 0.2 1.6 0.8 2.2 0.6 3.7-1.4 7.3-2.9 10.9-4.5 0.5-0.2 0.9-1.3 0.9-2C161.4 273.5 160.3 273.2 159.7 272.8zM135.4 210.9c-0.6-1.2-0.9-2.5-1.7-3.4 -1.6-2-3.3-3.9-5.1-5.8 -0.4-0.4-1.4 0-2.2 0 0.1 0.8 0.1 1.5 0.3 2.3 0.1 0.3 0.5 0.4 0.6 0.7 1.4 1.9 2.9 3.8 4.3 5.6 0.4 0.6 0.7 1.3 1.2 1.8 0.4 0.3 1.2 0.6 1.6 0.4C134.9 212.1 135.1 211.4 135.4 210.9zM241.2 225.4c0.7-0.6 1.7-1.1 1.7-1.6 0-0.5-0.7-1.5-1.3-1.6 -3.1-0.9-6.3-1.7-9.5-2.4 -0.4-0.1-1.1 0.1-1.3 0.4 -0.3 0.5-0.4 1.2-0.2 1.7 0.2 0.5 0.8 1 1.3 1.2C234.9 223.8 237.9 224.5 241.2 225.4zM190.2 228.3c-0.3-2-5.8-7.4-7.6-7.6 -0.6 0-1.5 0.4-1.7 0.9 -0.2 0.5 0.2 1.4 0.6 1.8 1.8 1.8 3.7 3.5 5.6 5.3 0.3 0.3 0.6 0.7 0.9 0.8 0.5 0.1 1.2 0.2 1.7-0.1C190 229.2 190.1 228.6 190.2 228.3zM131.9 282c-0.6-1.4-1.5-1.6-2.4-1 -2.3 1.7-4.6 3.4-6.8 5.3 -0.4 0.4-0.3 1.4-0.4 2.2 0.8 0 1.7 0.4 2.2 0.1 2.1-1.4 4.2-3 6.2-4.6C131.3 283.4 131.6 282.6 131.9 282zM243.4 218.5c1-0.7 2.1-1.1 2.3-1.7 0.3-1.3-0.9-1.6-2-1.8 -2.2-0.5-4.4-1.1-6.6-1.7 -0.9-0.3-2-0.7-2.3 0.5 -0.1 0.6 0.5 1.9 1 2.2C238.2 216.9 240.8 217.6 243.4 218.5zM127.5 277.5c0.7-0.2 0.9-0.2 1.1-0.3 2.4-1.5 4.9-3 7.3-4.6 0.8-0.5 1.4-1.5 0.6-2.3 -0.4-0.4-1.6-0.5-2.1-0.2 -2.2 1.2-4.2 2.5-6.3 3.9 -0.6 0.4-1.2 1.1-1.3 1.6C126.6 276.2 127.2 276.9 127.5 277.5zM378.4 212.8c0.6-0.6 1.4-1 1.5-1.5 0-0.5-0.6-1.1-1-1.6 -0.2-0.2-0.6-0.2-0.9-0.3 -2.4-0.4-4.9-0.7-7.3-1.1 -0.9-0.1-2.1-0.1-2.1 1.1 0 0.6 0.8 1.6 1.3 1.7C372.6 211.8 375.4 212.2 378.4 212.8zM167.9 156.3c0.5-0.6 1.5-1.1 1.6-1.8 0.2-1.1-0.8-1.5-1.8-1.6 -2.4-0.2-4.9-0.4-7.3-0.6 -0.9-0.1-2-0.2-2.2 1.1 -0.2 1.2 0.6 1.7 1.6 1.9C162.2 155.6 164.9 155.9 167.9 156.3zM442.1 228.7c-1.4-2.5-2.7-4.9-4.2-7.2 -0.2-0.3-1.3-0.4-1.9-0.2 -0.3 0.1-0.6 1.2-0.5 1.6 1.2 2.4 2.4 4.8 3.7 7.1 0.2 0.4 1.2 0.8 1.5 0.6C441.3 230.3 441.6 229.6 442.1 228.7zM121.4 58.9c2.9-1 5.4-2.1 7.1-4.3 0.4-0.5 0.2-1.5 0-2.2 0-0.2-1.2-0.4-1.6-0.1 -2.2 1.2-4.3 2.5-6.3 3.9 -0.4 0.3-0.8 1.3-0.6 1.8C120.1 58.4 121 58.6 121.4 58.9zM107.6 289.2c-0.5-0.2-1.4-0.7-1.8-0.5 -2.1 1.6-4.2 3.3-6.1 5.2 -0.8 0.8 0 2.2 1.1 2.2 1.5 0 6.6-4.5 6.8-5.9C107.6 290 107.6 289.9 107.6 289.2zM378.6 198.5c-0.2-0.2-0.3-0.6-0.6-0.9 -1.3-1.3-6.5-1.9-7.9-0.8 -0.4 0.3-0.8 1.1-0.7 1.5 0.1 0.4 0.7 1 1.2 1.1 2.1 0.4 4.2 0.6 6.3 0.9C378.1 200.4 378.7 199.8 378.6 198.5zM175.3 232.5c-1.5-2.1-2.9-4.2-4.5-6.2 -0.2-0.3-1.4-0.2-1.9 0.1 -0.3 0.2-0.5 1.2-0.2 1.6 1.2 2 2.5 4 3.9 5.9 0.3 0.3 1.2 0.5 1.6 0.3C174.6 234.1 174.8 233.3 175.3 232.5zM105.3 185.9c0-1.8-4.9-6.1-6.7-5.8 -1 0.2-1.7 1.4-0.9 2.1 1.8 1.7 3.7 3.3 5.6 4.8C104.2 187.7 105.3 186.9 105.3 185.9zM434.7 77c-0.6-0.1-1.5-0.6-2-0.4 -1.9 1.1-3.6 2.3-5.3 3.7 -0.3 0.3-0.4 1.1-0.3 1.6 0.1 0.3 0.8 0.6 1.2 0.7 1.7 0.2 5.7-2.6 6.2-4.2C434.6 78.2 434.6 77.8 434.7 77zM338.1 183.1c-1.1 0.3-1.8 0.5-2.5 0.7 -0.9 0.3-1.8 0.8-1.5 2 0.3 1.2 1.3 1 2.3 1 1.5-0.1 3.1 0 4.6-0.2 0.6-0.1 1.2-0.5 1.8-0.8 -0.4-0.6-0.6-1.7-1.1-1.9C340.4 183.4 339 183.3 338.1 183.1zM135 42.2c0-1.4-1.1-1.9-2.2-1.1 -1.5 1.1-3 2.2-4.4 3.4 -0.5 0.4-0.5 1.4-0.7 2.1 0.7 0.1 1.7 0.7 2.2 0.4 1.6-1 3.1-2.3 4.6-3.6C134.8 43.1 134.9 42.5 135 42.2zM143.5 203.3c1 1.8 1.8 3.5 2.9 5.2 0.3 0.4 1.3 0.6 1.9 0.5 0.3-0.1 0.8-1.1 0.7-1.5 -0.8-1.9-1.7-3.7-2.8-5.5 -0.2-0.4-1.3-0.5-1.9-0.3C143.9 201.8 143.7 202.7 143.5 203.3zM160.6 168.9c-0.5-0.7-0.7-1.1-1-1.3 -1.6-0.8-3.3-1.7-5-2.3 -0.4-0.2-1.4 0.2-1.5 0.5 -0.2 0.6-0.1 1.6 0.2 2 1.5 1.6 3.4 2.3 5.5 2.4C159.4 170.2 159.9 169.4 160.6 168.9zM428.5 89.9c-0.8-0.1-1.8-0.6-2.3-0.3 -1.5 0.8-2.9 1.9-4.3 3 -0.4 0.3-0.6 1.4-0.4 1.8 0.3 0.4 1.4 0.8 1.8 0.6 1.7-1.1 3.2-2.4 4.8-3.7C428.2 91.1 428.2 90.7 428.5 89.9zM424.9 227.2c-0.2 0.8-0.7 1.7-0.5 2.2 1 2 2.6 3.5 4.8 4.1 0.5 0.1 1.3-0.2 1.5-0.6 0.2-0.4 0.1-1.3-0.3-1.6 -1.3-1.2-2.6-2.3-4-3.4C426.2 227.5 425.7 227.5 424.9 227.2zM397.2 206.5c-0.2 0.2-0.9 0.4-0.9 0.8 0 0.6 0.1 1.5 0.5 1.9 1.2 1 2.5 1.8 3.8 2.6 0.4 0.2 1.2 0.2 1.4 0 0.4-0.4 0.6-1.1 0.5-1.6C402.2 208.7 398.9 206.4 397.2 206.5zM254.9 209c1-0.8 2-1.5 2.7-2.4 0.7-1-0.1-2-1.4-1.9 -1.3 0.1-2.6 0.2-3.8 0.5 -0.5 0.1-1.2 0.5-1.3 0.9 -0.1 0.4 0.2 1.3 0.5 1.6C252.5 208.2 253.6 208.5 254.9 209zM285.5 203.7c-1.7 0.5-2.9 0.7-4 1.2 -0.6 0.3-0.8 1.2-1.2 1.8 0.7 0.3 1.4 1 2.1 0.9 1.2-0.1 2.5-0.3 3.6-0.9 0.7-0.3 1-1.3 1.5-2C286.6 204.3 285.9 203.9 285.5 203.7zM392.3 167.3c-0.3 0.7-1 1.5-0.8 1.8 1 1.7 2.1 3.2 3.3 4.7 0.2 0.2 1.2 0.1 1.6-0.2 0.3-0.2 0.4-1.1 0.3-1.4 -0.9-1.5-1.9-2.9-3-4.3C393.5 167.6 393 167.6 392.3 167.3zM381.4 183.9c-0.1-0.2-0.1-0.5-0.2-0.6 -1.6-0.9-3.1-1.9-4.7-2.7 -0.3-0.1-1.1 0.3-1.2 0.6 -0.2 0.5-0.1 1.4 0.2 1.7 1.3 0.9 2.7 1.8 4.2 2.4C380.6 185.8 381.3 185.1 381.4 183.9zM137.3 181.9c-1.1 0.2-1.7 1.5-0.8 2.3 1.2 0.9 2.5 1.7 3.9 2.2 1 0.4 1.9-0.6 1.6-1.5C141.8 183.9 138.5 181.8 137.3 181.9zM164.2 198.9c-0.4-1.5-0.4-2.5-0.8-3.3 -0.2-0.4-0.9-0.8-1.4-0.8 -0.3 0-0.8 0.6-1 1 -0.5 1.2 0.2 4.1 1.2 4.9 0.4 0.3 1 0.4 1.4 0.3 0.4-0.1 0.7-0.7 0.8-1.2C164.4 199.3 164.2 198.8 164.2 198.9zM359 154c-0.7 0.7-1.7 1.2-1.8 1.9 -0.2 1.2 0.8 1.5 1.8 1.6 1.3 0 2.6 1.1 3.7-0.2 0.2-0.3 0.2-1.2 0-1.4C361.6 155.2 360.4 154.7 359 154zM264.8 184.2c0.8-0.3 1.2-0.4 1.6-0.5 1-0.5 2.3-1.1 1.8-2.4 -0.6-1.5-1.8-0.8-2.8-0.4 -0.3 0.1-0.7 0.1-0.8 0.3 -0.5 0.5-1.4 1.4-1.3 1.7C263.5 183.5 264.4 183.9 264.8 184.2zM295.4 138.8c-1.6 0.5-3.2 0.3-3.1 2.1 0.1 1.3 1.1 1.9 2.4 1.8 1.3-0.1 2.5-1.3 2.2-2.4C296.6 139.6 295.8 139.2 295.4 138.8zM161.6 140.8c-1.7 0.2-2.9 0.4-2.8 2 0.1 1.1 1.1 1.4 2.1 1.3 1.2-0.1 2.4-0.5 2.1-2C162.9 141.5 161.9 141 161.6 140.8zM398.8 193.4c-0.3 0.4-1.4 1-1.4 1.5 0 1.5 1.4 1.5 2.5 1.5 1 0 2-0.3 1.9-1.5C401.8 193.4 400.4 193.5 398.8 193.4zM122.7 162.8c-0.2 0.4-0.7 0.9-0.8 1.5 -0.1 1.3 1.4 2.8 2.5 2.5 0.5-0.1 1-0.8 1.1-1.2C125.7 164.4 124.1 162.8 122.7 162.8zM134.5 185.2c-0.8-0.5-1.4-1.1-1.9-1 -0.4 0.1-0.8 0.9-1.1 1.4 0.6 0.3 1.1 0.9 1.6 0.9C133.4 186.6 133.8 185.9 134.5 185.2z" class="a"/><path d="M58.8 145.4c-3.1 0.3-6-2.1-6.2-5.2 -0.3-3.7 2.3-6.4 6.5-6.8 3-0.3 5 1.4 5.2 4.4C64.5 141.5 61.9 145.2 58.8 145.4zM60.6 137.5c-0.5-0.2-1.3-1-2.1-1 -1.4 0-2 1.3-1.7 2.4 0.1 0.6 1.2 1.3 2 1.4C60 140.5 60.9 139.4 60.6 137.5z" class="a"/></svg>